<?xml version="1.0" encoding="utf-8"?>
<!-- Generator: Adobe Illustrator 25.1.0, SVG Export Plug-In . SVG Version: 6.00 Build 0)  -->
<svg version="1.1" id="_0237_couple_2" xmlns="http://www.w3.org/2000/svg" xmlns:xlink="http://www.w3.org/1999/xlink" x="0px"
	 y="0px" viewBox="0 0 500 500" style="enable-background:new 0 0 500 500;" xml:space="preserve">
<style type="text/css">
	.st0{fill:#A855F7;}
</style>
<g id="couple_on_scooter_couple-2-27">
	<path class="st0" d="M237.6,325.2c-0.3,1.4-0.7,2.8-1.2,4.2c-0.5,1.6-0.8,3.3-0.9,4.9c0,0.5-0.1,1.1-0.3,1.6s-0.8,0.7-1.3,0.5
		l0.3-6.3c-0.7,1.5-1.5,2.9-2.5,4.2c-0.4,0.6-0.8,1.1-1.4,1.5c-0.5,0.4-1.1,0.6-1.7,0.8c-3.1,1-6.5,1.3-9.7,0.9
		c-0.1-1,0.7-1.9,1.4-2.6c3.1-2.6,7-4.4,9.6-7.5c0.9-1.2,1.6-2.5,2.6-3.7c0.7-0.9,2.4-2.7,3.8-2.4S237.7,324.1,237.6,325.2
		L237.6,325.2z"/>
	<path d="M237.6,325.2c-0.3,1.4-0.7,2.8-1.2,4.2c-0.5,1.6-0.8,3.3-0.9,4.9c0,0.5-0.1,1.1-0.3,1.6s-0.8,0.7-1.3,0.5l0.3-6.3
		c-0.7,1.5-1.5,2.9-2.5,4.2c-0.4,0.6-0.8,1.1-1.4,1.5c-0.5,0.4-1.1,0.6-1.7,0.8c-3.1,1-6.5,1.3-9.7,0.9c-0.1-1,0.7-1.9,1.4-2.6
		c3.1-2.6,7-4.4,9.6-7.5c0.9-1.2,1.6-2.5,2.6-3.7c0.7-0.9,2.4-2.7,3.8-2.4S237.7,324.1,237.6,325.2L237.6,325.2z"/>
	<path d="M232.4,308.9c0,0-0.1,14-7,22.9c0,0,3.1,1.7,5.1,0s5.7-7.9,5.7-7.9l1-8.6l0.8-8.5L232.4,308.9L232.4,308.9z"/>
	<path class="st0" d="M287,274.4c1.1-2.3,0.9-5-0.5-7.2c-1.4-2.1-3.5-3.7-5.9-4.6s-4.8-1.7-7.3-2.2c-9.1-2.4-17.8-6.1-26.7-9.1
		c-1.6-0.6-3.4-1.1-5.1-0.7c-1.6,0.5-2.9,1.5-3.9,2.9c-2.3,3.1-3.4,6.8-4.1,10.5c-1.6,8.2-1.5,16.6-1.4,25c0.1,7.1-1.2,14-0.8,21.1
		c1,0.1,2,0.3,2.9,0.6c1,0.3,2,0.1,2.9-0.5c0.4-0.4,0.6-0.8,0.8-1.3c1.8-4.4,2.6-9.2,3.9-13.8c2.5-8.9,6.7-17.8,5.6-27l8,6.3
		c3.1,2.4,6.3,4.9,10,6.4c2.7,1,5.5,1.5,8.4,1.7c2.1,0.2,4.2,0,6.2-0.6C283.3,280.7,285.4,277.3,287,274.4L287,274.4z"/>
	<path d="M287,274.4c1.1-2.3,0.9-5-0.5-7.2c-1.4-2.1-3.5-3.7-5.9-4.6s-4.8-1.7-7.3-2.2c-9.1-2.4-17.8-6.1-26.7-9.1
		c-1.6-0.6-3.4-1.1-5.1-0.7c-1.6,0.5-2.9,1.5-3.9,2.9c-2.3,3.1-3.4,6.8-4.1,10.5c-1.6,8.2-1.5,16.6-1.4,25c0.1,7.1-1.2,14-0.8,21.1
		c1,0.1,2,0.3,2.9,0.6c1,0.3,2,0.1,2.9-0.5c0.4-0.4,0.6-0.8,0.8-1.3c1.8-4.4,2.6-9.2,3.9-13.8c2.5-8.9,6.7-17.8,5.6-27l8,6.3
		c3.1,2.4,6.3,4.9,10,6.4c2.7,1,5.5,1.5,8.4,1.7c2.1,0.2,4.2,0,6.2-0.6C283.3,280.7,285.4,277.3,287,274.4L287,274.4z"/>
	<path d="M125.2,359.4c-3.4,0.2-7.4,0.9-8.7,4c6.1,2.8,13,3,19.7,3c31.5,0.2,62,3.2,93.6,3c35.4-0.2,71.7-3,107.1-3.6
		c6-0.1,12.3-0.4,17.7-3c-13.4-1.4-26.9-2.4-40.4-2.9c-51.3-2-102.8,2.6-154-1.2C148.5,357.9,137,358.7,125.2,359.4L125.2,359.4z"/>
	<path d="M304.8,339c3.8-4.9,8.6-9,14.2-11.9c5.7-3,13.6-4.5,18.2-0.1c1.1-6,3.5-12,8.1-15.9c4.7-3.9,12-5.2,17-1.6
		c0.7,0.6,1.5,1.1,2.4,1.4c1.9,0.3,3.3-1.4,4.5-2.9c4.3-5.5,10.2-10.2,17.2-10.8c11.7-1,21.6,10.4,22.6,21.9
		c0.3,2.9,0.1,5.8,1.2,8.5c1.2,3,3.7,5.3,5,8.2c2.5,5.6-0.4,12.6-5.5,16.2c-5,3.6-11.6,4.4-17.8,3.8c-6.2-0.6-12.2-2.4-18.3-3.6
		c-1.4-0.4-2.8-0.4-4.1,0c-1.3,0.6-2.4,1.5-3.2,2.6c-3.4,3.7-7.2,7.1-11.9,9c-11.3,4.6-24-0.7-36.2-0.5c-5.4,0.1-10.9,1.3-16.2,0.3
		c-5.1-0.9-12-5.5-9.1-10.9c1.1-2.1,4.8-4.2,6.4-6.1C301.2,344.3,302.9,341.5,304.8,339L304.8,339z"/>
	<ellipse cx="160.9" cy="342.5" rx="21.6" ry="21.3"/>
	<ellipse cx="160.9" cy="342.5" rx="21.6" ry="21.3"/>
	<path class="st0" d="M141.7,323.6l35.8,8.2c0,0-3.9-22-12.9-23.9S136.8,304.9,141.7,323.6z"/>
	<path d="M141.4,327l35.8,8.1c0,0-3.9-22-12.9-23.9C155.1,309.3,136.4,308.2,141.4,327L141.4,327z"/>
	<ellipse cx="160.7" cy="343.2" rx="13.5" ry="13.4"/>
	<ellipse cx="161.2" cy="343" rx="11" ry="10.9"/>
	<ellipse cx="289.2" cy="346.3" rx="21.6" ry="21.3"/>
	<ellipse cx="289.2" cy="346.3" rx="21.6" ry="21.3"/>
	<ellipse cx="289.6" cy="346.6" rx="13.5" ry="13.4"/>
	<ellipse cx="289.5" cy="346.6" rx="11" ry="10.9"/>
	<path d="M240.6,247.7c0,0-33.8,14.9-36.4,27.9c-2.6,13-13.9,48.9-13.9,48.9l9.2,11l20.2-57.8l25.8-31.2L240.6,247.7L240.6,247.7z"
		/>
	<path d="M240.6,247.7c0,0-33.8,14.9-36.4,27.9c-2.6,13-13.9,48.9-13.9,48.9l9.2,11l20.2-57.8l25.8-31.2L240.6,247.7L240.6,247.7z"
		/>
	<path class="st0" d="M193.4,328c-2.6-0.1-5.2-0.7-7.9-0.6c-1.4-0.1-2.7,0.3-3.9,1c-1.2,0.8-1.6,2.2-1.1,3.5c0.3,0.5,0.7,1,1.2,1.3
		c3.5,2.7,7.8,4.4,12.2,4.8c1.9,0.2,3.8,0.1,5.7,0.3c2.4,0.3,4.8,1,7,2.2l3-9.4c0.6-1,0.4-2.2-0.6-2.9c-0.1-0.1-0.3-0.2-0.4-0.2
		c-2.1-1.2-5.1-3-7.7-1.9C198.3,327.3,196.4,328.1,193.4,328L193.4,328z"/>
	<path d="M193.4,328c-2.6-0.1-5.2-0.7-7.9-0.6c-1.4-0.1-2.7,0.3-3.9,1c-1.2,0.8-1.6,2.2-1.1,3.5c0.3,0.5,0.7,1,1.2,1.3
		c3.5,2.7,7.8,4.4,12.2,4.8c1.9,0.2,3.8,0.1,5.7,0.3c2.4,0.3,4.8,1,7,2.2l3-9.4c0.6-1,0.4-2.2-0.6-2.9c-0.1-0.1-0.3-0.2-0.4-0.2
		c-2.1-1.2-5.1-3-7.7-1.9C198.3,327.3,196.4,328.1,193.4,328L193.4,328z"/>
	<path class="st0" d="M242.5,198.8c0,0-9.2,20.3-16.1,21.6s-27.4,6.9-28.6,9.2s0.4,7.4,0.4,7.4s13,2.9,24.6-2
		c7.4-3.3,14.3-7.5,20.6-12.7l2.6-20.8L242.5,198.8L242.5,198.8z"/>
	<path d="M242.5,198.8c0,0-9.2,20.3-16.1,21.6s-27.4,6.9-28.6,9.2s0.4,7.4,0.4,7.4s13,2.9,24.6-2c7.4-3.3,14.3-7.5,20.6-12.7
		l2.6-20.8L242.5,198.8L242.5,198.8z"/>
	<path d="M191.6,230.1c-1.1-0.1-2.1-0.1-3.2,0c-0.9,0.2-1.7,0.5-2.4,0.9c-1.3,0.6-2.5,1.6-2.8,3c-0.1,0.8,0,1.6,0.3,2.4
		c0.7,2,2.4,3.6,4.6,4c0.8,0.2,1.6-0.1,2-0.7c0.1-0.3,0.2-0.6,0.3-1c0.4-0.9,1.2-1.6,2.3-1.8c1-0.1,2-0.1,3-0.1c1,0.1,2-0.3,2.8-0.9
		c0.7-0.7,1-1.7,0.9-2.6c-0.1-1.6-0.5-2.7-2.1-2.9C195.4,230.4,193.5,230.3,191.6,230.1L191.6,230.1z"/>
	<path class="st0" d="M325.6,344.3c-40-1-80.2,8.5-119.9,3c-15.6-2.1-31.8-7.2-42-19.1c-4.8-5.7-7.9-13.7-5.7-20.5
		c0.3-1.1,0.8-2.1,1.5-3.1c1.7-2.6,4.1-4.5,6.3-6.7c5.7-6,8.5-14.1,9.9-22.2s1.5-16.4,2.4-24.5c0-0.9,0.3-1.8,0.9-2.6
		c0.2-0.3,0.6-0.5,0.9-0.6c1.2-0.5,2.6-0.4,3.7,0.2c3.2,1.6,4.9,5.2,5.3,8.7c0.3,3.5-0.5,7-1.3,10.4c-3,12.7-5.5,25.9-3.5,38.8
		s9.4,25.7,21.4,31c6.9,2.8,14.4,3.8,21.9,3c6.9-0.8,13.5-3.3,17.1-8.9c3.1-4.7,3.4-10.6,3.3-16.2c-0.1-4.6-0.4-9.3-1-13.9
		c-0.5-3.9-1.4-8.1-4.5-10.6c-1.3-1-2.8-1.7-4.4-2.3c-0.8-0.3-1.7-0.6-2.5-1c-2.3-1.1-4.6-3-4.7-5.5c-0.1-2.4,1.8-4.5,4-5.4
		s4.7-0.9,7.1-0.8c20.6,0.4,46.3-0.8,61.4,15.9c4.4,4.9,7.5,10.9,10.1,16.9C318.4,319.9,322.6,331.9,325.6,344.3L325.6,344.3z"/>
	<path d="M286.6,286.4c0,0,31.5,19.9,29.6,46.7l-56.5,3.3l-10.9,12.1l76.3-5.7c0,0-12.2-52.7-32-58.7L286.6,286.4L286.6,286.4z"/>
	<path d="M257.8,336.2c-6,2.7-31,5.9-31,5.9l0.4-2c6.9-0.8,13.5-3.3,17.1-8.9c3.1-4.7,3.4-10.6,3.3-16.2c-0.1-4.6-0.4-9.3-1-13.9
		c-0.5-3.9-1.4-8.1-4.5-10.6c-1.3-1-2.8-1.7-4.4-2.3l0.1-0.4c0,0,16.6,1.7,22,9.8C265.4,305.7,263.8,333.5,257.8,336.2L257.8,336.2z
		"/>
	<path d="M236.2,271.5c-2.9,0.1-6.4,0.6-7.5,3.3c-0.9,2.2,0.6,4.8,2.6,6c2.1,1.2,4.6,1.4,6.9,1.5c16.1,1,32.2,2.4,48.3,4.1
		c2.4,0.2,4.8,0.5,7.1,0s4.5-2.1,5.2-4.4c0.5-2-0.2-4.2-1.9-5.4c-2.1-1.5-3.6-0.4-5.7-0.2c-2.3,0.2-4.8-0.7-7.1-1.1
		c-5.3-1-13.4-11.5-18.8-12C254.9,262,246.9,271.2,236.2,271.5L236.2,271.5z"/>
	<path d="M236.8,271.5c-2.9,0.1-6.4,0.6-7.5,3.3c-0.9,2.2,0.6,4.8,2.6,6c2.1,1.2,4.6,1.4,6.9,1.5c16.1,1,32.2,2.4,48.3,4.1
		c2.4,0.2,4.8,0.5,7.1,0s4.5-2.1,5.2-4.4c0.5-2-0.2-4.2-1.9-5.4c-2.1-1.5-3.6-0.4-5.7-0.2c-2.3,0.2-4.8-0.7-7.1-1.1
		c-5.3-1-7.2-9.9-12.5-10.5C261.6,263.5,247.4,271.2,236.8,271.5L236.8,271.5z"/>
	<path class="st0" d="M247.5,328.5c-0.3,1.6-0.8,3.1-1.3,4.6c-0.6,1.8-0.9,3.6-1,5.5c0,0.6-0.1,1.2-0.3,1.7
		c-0.3,0.5-0.9,0.8-1.5,0.6l0.4-7c-0.8,1.6-1.7,3.2-2.7,4.6c-0.4,0.6-0.9,1.2-1.5,1.7c-0.6,0.4-1.2,0.7-1.9,0.8
		c-3.5,1-7.1,1.4-10.8,1c-0.1-1.1,0.7-2.1,1.6-2.8c3.4-2.9,7.8-4.8,10.6-8.3c1-1.3,1.8-2.8,2.9-4.1c0.8-1,2.6-3,4.2-2.7
		S247.7,327.3,247.5,328.5L247.5,328.5z"/>
	<path d="M255.8,188.8c-1.5-2.8-0.6-6.5,1.7-8.8c2.2-2.3,5.6-3.3,8.8-3.4c5.1,0,10.1,2.1,13.5,5.9c1.1,1.3,2.2,2.8,3.7,3.5
		c1.3,0.6,2.7,0.6,4.1,0.7c2.6,0.3,5.3,1.3,6.9,3.3s2.4,5.4,5,6.3c1.4,0.5,2.9,0.1,4.4,0.1c5.1,0.1,8.5,5.1,13.2,7
		c2,0.8,4.1,1,6.2,1.6s4.1,1.6,5.2,3.4c1.6,2.8,0.3,6.2-1.1,9c-1.6,3-3.6,6-6.7,7.3c-1.5,0.6-3.1,0.9-4.7,1
		c-4.3,0.5-8.6,0.2-12.7-0.7c-4.2-1-8-3.2-10.9-6.3c-1.2-1.4-2.1-2.9-3.4-4.2c-1.2-1.4-2.8-2.3-4.6-2.5c-2.4-0.2-4.6,1.4-7,1.5
		c-2.8,0.1-5.4-1.8-8.1-2.1c-1.2-0.1-2.5,0-3.7-0.4c-2.1-0.6-3.5-2.7-4-4.8c-1.1-3.8,0.1-7.6-0.5-11.3
		C260.5,192.1,257.1,191.2,255.8,188.8L255.8,188.8z"/>
	<path d="M277.9,194.1c2.1,1.2,4.5,1.7,6.8,2.6s4.6,2.1,5.6,4.3c0.8,1.7,0.7,3.6,1.4,5.3c0.2,0.7,0.8,1.3,1.4,1.6
		c0.5,0.2,1.1,0.2,1.7,0.1c3.1-0.2,6.5-0.1,8.9,1.8c4,3.1,4.1,9.8,8.6,12.1c0.1,0.6-0.7,0.9-1.3,1c-5.1,0.8-10.6,0.9-15-1.8
		c-1.6-1.1-3-2.3-4.3-3.7l-5.4-5.4c-0.6-0.6-1.2-1.2-2-1.6c-1-0.4-2.1-0.6-3.2-0.6c-1.5,0-3,0.2-4.5,0.5c-1.2,0.3-2.4,0.7-3.6,0.9
		c-1.6,0.2-3.2,0.2-4.8-0.1c-1.6-0.2-3.1-0.8-4.4-1.7c-1.7-1.4-2.5-3.6-3-5.7c-0.5-2.1-0.6-4.3-0.6-6.4c0-0.9,0.2-1.7,0.6-2.4
		c0.5-0.6,1.1-1.1,1.8-1.5c2.6-1.6,5.9-3.7,9.2-3.5C274.3,189.9,275.9,192.9,277.9,194.1L277.9,194.1z"/>
	<path d="M289.3,215.1c1.3,2.6,2.4,5.3,3.3,8c2.1,5.9,4.1,12.2,3.1,18.4c-0.2,1.5-0.8,3-1.6,4.3c-2.5,3.7-7.6,4.4-12.1,4.6
		c-1.1,0.1-2.2,0.1-3.3-0.2c-1.6-0.5-2.9-1.9-3.9-3.4c-5.8-8.2-7.8-18.5-8.5-28.5c-0.2-2.4-0.2-4.9,0.8-7.1
		c1.7-3.5,6.6-9.4,11.1-8.3C282.8,203.9,287.2,211.2,289.3,215.1L289.3,215.1z"/>
	<path d="M300.7,262.3c0.2,1,0.3,2.1,0.1,3.1c-0.5,1.8-2.2,2.3-3.8,2.5c-5.2,0.7-10.5,0.6-15.7-0.3c-1-0.1-2-0.6-2.6-1.4
		c-0.4-0.6-0.6-1.3-0.7-2c-1.2-5-2.1-9.9-2.8-15c-0.1-0.5-0.1-1.1,0-1.6c0.2-0.6,0.6-1.1,1.2-1.3c3.8-2.4,8-3.8,12.5-4.3
		c3.5-0.4,5.9,0.3,7.6,4.6C298.4,251.6,299.8,256.9,300.7,262.3L300.7,262.3z"/>
	<path d="M287.8,221.4c1.5,2.4,3,5.1,2.7,8c-0.2,2-1.3,3.8-2,5.6c-2.1,5.6-0.5,11.9,1.1,17.7c0.4,1.3,1.8,4.8,0.8,5.6
		c-0.8,0.7-3.3-1.4-4.3-1.9s-3.3,2.2-4.3,1.8c-4.5-1.7-6.3-1.8-6.6-8.2c-0.1-3.2,0.8-5.3,2.4-7.9c1.9-2.9,3.9-5.3,5.4-8.5
		C283.9,231.8,288.8,222.9,287.8,221.4L287.8,221.4z"/>
	<path d="M275,219.4c-0.3,0.4-0.7,0.6-1.2,0.7c-0.8,0-6.9-6.1-8.3-3.2c-0.2,0.4,0.7,1,0.8,1.4c3,11.2,6.7,22.3,9.7,33.4
		c2.1-1.7,3-4.6,3.1-7.3s-0.3-5.5-0.2-8.2c0.1-4,1.4-7.9,2-11.8c0.4-2.4,1-7.3-0.8-9.3C278.2,212.8,276.4,218,275,219.4L275,219.4z"
		/>
	<path class="st0" d="M244.4,195c-1.9,2.3-2.1,5.5-2.2,8.5c-0.1,11.4,1.2,22.8,2.6,34.2c0.7,5.3,1.5,10.8,4.5,15.3s8.7,7.6,13.9,5.9
		c3.8-1.3,6.4-4.9,7.7-8.6c2.2-6.2,1.4-13.1-0.3-19.5s-4.3-12.5-5.8-18.9c-0.9-3.7-1.4-7.6-2.7-11.2c-1.1-3.1-3.3-7.7-6.7-8.7
		C251.9,190.9,246.5,192.4,244.4,195L244.4,195z"/>
	<path d="M254.1,194.4c0.2,0.5,0.9,0.6,1.2,1s0.4,0.9,0.4,1.4c0.3,1.5,1.1,3,2.2,4.1s2.1,2.3,3,3.6c1.3,2.1,1.6,4.6,2.8,6.8
		c0.4-2.2-0.6-4.4-1.1-6.7c-0.5-2.1-0.5-4.2-1.1-6.3s-1.6-4.2-3.6-5.1c-0.9-0.4-1.7-0.7-2.5-1.2c-0.5-0.3-1.1-0.5-1.7-0.5
		c-0.5,0-0.8,0.1-0.7,0.6c0,0.4,0.6,0.7,0.7,1C254,193.5,253.9,193.9,254.1,194.4L254.1,194.4z"/>
	<path d="M247,225.5c1.5-5.6,2.5-11.2,3-17c2.2,1.4,2.6,4.4,2.7,7c0.2,4,0,8-0.4,11.9c-0.2,1.8-0.4,3.8,0.5,5.3
		c1.2,2.1,4.1,2.7,6.5,2.1s4.3-2.3,6.2-3.8c0.6-0.5,1.4-1.1,2.2-0.9c1.1,0.2,1.4,1.7,1.3,2.8c-0.4,4.2-3.7,7.6-7.5,9.5
		s-8.1,2.3-12.4,2.7c-0.7,0.1-1.5,0.1-2.2-0.3c-0.9-0.5-1.1-1.6-1.2-2.6l-1.3-8.1c-0.1-0.7-1.1-2.2-1-2.8c0.2-0.8,1.1-0.8,1.4-1.5
		C245.8,228.5,246.5,227.1,247,225.5z"/>
	<path d="M254.8,176.7c-0.4,4.6-1.4,9.2-1,13.8c0.1,1.1,0.3,2.4-0.3,3.4c-0.7,1.1-2.1,1.6-3.4,1.9c-2,0.4-4,0.7-6,0.7
		c-0.2,0-0.4,0-0.6-0.1c-0.2-0.2-0.3-0.4-0.3-0.6c-0.1-0.4-0.3-0.9-0.4-1.3c-0.2-0.6-0.4-1.2-0.6-1.9c-0.1-0.3-0.2-0.5-0.4-0.7
		c-0.1-0.1-0.2-0.1-0.3-0.1s-0.2,0-0.3,0h-3c-0.5,0-1.1,0-1.6-0.2c-0.8-0.5-1.4-1.4-1.4-2.3c-0.1-0.9-0.3-1.9-0.7-2.8
		c-0.6-0.9-1.6-1.5-1.9-2.6s0.4-1.9,0.9-2.8c0.9-1.4,1.4-3,1.7-4.6l0.9-3.3c0.9-1.6,2.6-2.6,4.1-3.6c1.6-0.9,3.3-2,5.2-1.9
		c1.3,0.1,2.5,0.4,3.6,1c1.7,0.7,3.3,1.8,4.5,3.2c0.6,0.7,1.1,1.5,1.4,2.4C254.9,175,254.9,175.9,254.8,176.7L254.8,176.7z"/>
	<path d="M243.4,194.4c-0.2,0-0.4,0.2-0.6,0.1c0,0-0.1,0-0.1-0.1c-0.2-0.6-0.4-1.2-0.6-1.9c-0.1-0.3-0.2-0.5-0.4-0.7
		c-0.1-0.1-0.2-0.1-0.3-0.1c2.1-0.4,4.1-1.9,6.3-2.9C247.7,188.9,247.5,193.6,243.4,194.4z"/>
	<path d="M232.6,170.8c1.1,2.1,3.7,3.2,6.1,3.1c1.1-0.1,2.4-0.3,3.1,0.5c0.5,0.5,0.6,1.2,1.2,1.5c0.8,0.4,1.8-0.3,2.4,0.3
		c0.2,0.2,0.3,0.5,0.4,0.8c0.4,0.7,1.2,1,2,0.8l0.2,5.1c0.4-0.7,0.6-1.5,0.5-2.3c0.1-0.8,0.4-1.7,1.2-1.9c2.8,0.3,1.7,4.4,0,5.9
		c0.6,0.5,1,1.1,1.3,1.8c0.4,0.6,1.2,1.2,1.9,0.9s0.8-1.2,0.9-2c0.4-1.6,1.1-3.2,2.2-4.5s1.9-2.8,2.4-4.4c0.4-1.6,0-3.6-1.3-4.5
		c0.7-0.9,1.5-1.9,1.3-3c-0.2-0.8-0.7-1.5-1.4-2c-1.1-1.1-2.6-2.2-4-1.6c-0.2,0.1-0.5,0.2-0.7,0.3c-0.6,0-0.9-0.6-1.2-1.2
		c-1.3-2.2-3.9-3.1-6.3-2.2c-0.3,0.2-0.7,0.3-1.1,0.3c-0.3,0-0.6-0.1-0.8-0.3c-1.3-0.7-2.9-1.3-4.3-0.5c-1.2,0.7-1.9,1.9-3.2,2.6
		C233.3,165.6,231.2,167.9,232.6,170.8L232.6,170.8z"/>
	<path d="M232.6,170.8c1.1,2.1,3.7,3.2,6.1,3.1c1.1-0.1,2.4-0.3,3.1,0.5c0.5,0.5,0.6,1.2,1.2,1.5c0.8,0.4,1.8-0.3,2.4,0.3
		c0.2,0.2,0.3,0.5,0.4,0.8c0.4,0.7,1.2,1,2,0.8l0.2,5.1c0.4-0.7,0.6-1.5,0.5-2.3c0.1-0.8,0.4-1.7,1.2-1.9c2.8,0.4,1.7,4.4,0,5.9
		c0.6,0.5,1,1.1,1.3,1.8c0.4,0.6,1.2,1.2,1.9,0.9s0.8-1.2,0.9-2c0.4-1.6,1.1-3.2,2.2-4.5s1.9-2.8,2.4-4.4c0.4-1.6,0-3.6-1.3-4.5
		c0.7-0.9,1.5-1.9,1.3-3c-0.2-0.8-0.7-1.5-1.4-2c-1.1-1.1-2.6-2.2-4-1.6c-0.2,0.1-0.5,0.2-0.7,0.3c-0.6,0-0.9-0.6-1.2-1.2
		c-1.3-2.2-3.9-3.1-6.3-2.2c-0.3,0.2-0.7,0.3-1.1,0.3c-0.3,0-0.6-0.1-0.8-0.3c-1.3-0.7-2.9-1.3-4.3-0.5c-1.2,0.7-1.9,1.9-3.2,2.6
		C233.3,165.6,231.2,167.9,232.6,170.8L232.6,170.8z"/>
	<path d="M246.6,244.5c0,0-29.2,18.8-34.4,28s-13.5,53.8-13.5,53.8l10.7,7.1l16.9-53.3c0,0,36-13.9,39.1-17s5.6-14,5.6-14
		L246.6,244.5L246.6,244.5z"/>
	<path d="M277.5,209.8c-1.4,1.3-3.5,1.2-4.8-0.1c-0.1-0.1-0.1-0.1-0.2-0.2c-0.3-0.4-0.6-0.9-0.8-1.4c-0.7-1.7-1.3-3.5-1.8-5.3
		c0-0.1-0.1-0.3-0.1-0.4c-0.5-3.7,3.9-10.1,5.2-7.3C278.9,204,279.7,207.5,277.5,209.8L277.5,209.8z"/>
	<path d="M276.3,200.7c0.1,1.2,0,2.5,0,3.8c0,1-0.2,2-0.5,3c-0.4,1-1.1,1.7-2.1,2.1c-0.3,0.1-0.7,0.1-1,0h-0.1
		c-0.3-0.4-0.6-0.9-0.8-1.4c-0.7-1.7-1.3-3.5-1.8-5.3c0-0.1-0.1-0.3-0.1-0.4c0.2-0.5,0.5-1,0.8-1.4c0.5-0.9,1.2-1.8,1.8-2.6
		c0.5-0.7,1.2-1.9,2-2.3C276.1,195.2,276.2,199.8,276.3,200.7L276.3,200.7z"/>
	<path d="M258.3,194.9c0.7,1.6,1.5,3.1,2.6,4.4c1.1,1.6,2.3,3.1,3.7,4.5c1.5,1.5,3.4,2.8,5.5,2.7c1.9-0.2,3.5-1.4,4.3-3.1
		c0.8-1.7,1.1-3.5,1-5.3c0-2.7-0.7-5.3-1.9-7.7c-0.8-1.6-2.1-3-3.6-3.9c-1.7-0.9-3.6-1.3-5.5-1.3c-1.1-0.1-2.2,0.1-3.3,0.4
		C257,187.1,257.1,191.6,258.3,194.9L258.3,194.9z"/>
	<path d="M247.5,328.5c-0.3,1.6-0.8,3.1-1.3,4.6c-0.6,1.8-0.9,3.6-1,5.5c0,0.6-0.1,1.2-0.3,1.7c-0.3,0.5-0.9,0.8-1.5,0.6l0.4-7
		c-0.8,1.6-1.7,3.2-2.7,4.6c-0.4,0.6-0.9,1.2-1.5,1.7c-0.6,0.4-1.2,0.7-1.9,0.8c-3.5,1-7.1,1.4-10.8,1c-0.1-1.1,0.7-2.1,1.6-2.8
		c3.4-2.9,7.8-4.8,10.6-8.3c1-1.3,1.8-2.8,2.9-4.1c0.8-1,2.6-3,4.2-2.7S247.7,327.3,247.5,328.5L247.5,328.5z"/>
	<path d="M241.8,310.4c0,0-0.1,15.5-7.7,25.4c0,0,3.4,1.9,5.6,0s6.3-8.7,6.3-8.7l1.1-9.5l0.8-9.4L241.8,310.4z"/>
	<path class="st0" d="M302.3,272.1c1.2-2.6,1-5.6-0.6-7.9s-3.9-4.1-6.5-5.1s-5.3-1.9-8-2.5c-10-2.7-19.7-6.8-29.6-10.1
		c-1.8-0.6-3.8-1.2-5.6-0.7c-1.8,0.6-3.3,1.7-4.3,3.2c-2.5,3.4-3.8,7.5-4.6,11.6c-1.8,9.1-1.6,18.4-1.5,27.6
		c0.1,7.9-1.3,15.5-0.9,23.4c1.1,0.1,2.2,0.3,3.2,0.7c1.1,0.4,2.2,0.2,3.2-0.5c0.4-0.4,0.7-0.9,0.9-1.5c1.9-4.9,2.9-10.2,4.3-15.2
		c2.8-9.9,7.4-19.7,6.2-29.9l8.9,7c3.4,2.7,7,5.5,11,7c3,1.1,6.1,1.7,9.3,1.9c2.3,0.3,4.7,0,6.9-0.6
		C298.2,279.1,300.5,275.4,302.3,272.1L302.3,272.1z"/>
	<path d="M302.3,272.1c1.2-2.6,1-5.6-0.6-7.9s-3.9-4.1-6.5-5.1s-5.3-1.9-8-2.5c-10-2.7-19.7-6.8-29.6-10.1c-1.8-0.6-3.8-1.2-5.6-0.7
		c-1.8,0.6-3.3,1.7-4.3,3.2c-2.5,3.4-3.8,7.5-4.6,11.6c-1.8,9.1-1.6,18.4-1.5,27.6c0.1,7.9-1.3,15.5-0.9,23.4
		c1.1,0.1,2.2,0.3,3.2,0.7c1.1,0.4,2.2,0.2,3.2-0.5c0.4-0.4,0.7-0.9,0.9-1.5c1.9-4.9,2.9-10.2,4.3-15.2c2.8-9.9,7.4-19.7,6.2-29.9
		l8.9,7c3.4,2.7,7,5.5,11,7c3,1.1,6.1,1.7,9.3,1.9c2.3,0.3,4.7,0,6.9-0.6C298.2,279.1,300.5,275.4,302.3,272.1L302.3,272.1z"/>
	<path class="st0" d="M169.5,231.2c0,0,13.7,3.9,15.5,6.2s1.6,11.8,1.6,11.8l-4.9-0.2c0,0,0.1-2.4-2.1-3s-10.8,0.4-10.8,0.4
		S167.5,231.8,169.5,231.2L169.5,231.2z"/>
	<ellipse class="st0" cx="168.8" cy="238.9" rx="3" ry="7.7"/>
	<ellipse cx="168.8" cy="238.9" rx="3" ry="7.7"/>
	<path d="M270.3,230.4c-0.3,1.1-0.8,2.1-1.4,3c-1.9,2.6-5.4,3.5-8.6,3.6s-6.5-0.7-9.7-0.4s-6.6,1.8-7.8,4.7c-0.4,1-0.4,2.1,0,3.1
		c0.6,1,1.6,1.8,2.8,2.2c9.1,3.8,19.5,2,29.1-0.4c2.5-0.6,5-1.3,7-2.9c1.8-1.6,3.1-3.6,3.9-5.9c2.6-6.5,3.1-13.6,3.2-20.5
		c0-5.2-4.5-14.2-9.8-7.1C274.8,215.4,272.7,223.9,270.3,230.4z"/>
	<path class="st0" d="M182.1,235.7c3.6,0,7.2,0.3,10.8,0.7c7.3,0.9,1.8,7.1,1.8,7.1s-5.9,0.7-8.2,5.8S176.2,239.9,182.1,235.7
		L182.1,235.7z"/>
	<path d="M171.9,238.9c0,0,9.2,3.2,12.3,3.7s8.4-2.8,11.2-2.3s0.5,2.6,0.5,2.6s-4.9,1.3-7.3,3.5c-2.3,2.2-3.1,6.1-3.1,6.1l-4.6-4.5
		c0,0,0.8-0.7-1.3-1.8s-10.8,0.4-10.8,0.4S172,244.3,171.9,238.9L171.9,238.9z"/>
	<path class="st0" d="M236.3,220.5c-0.8,1.4-1.8,2.7-3,3.8c-1.7,1.4-3.9,1.9-5.9,2.5l-19.5,5c-0.8,0.1-1.6,0.5-2.1,1
		c-0.8,0.9-0.8,2.4-0.6,3.6c0.5,3.6,2,7.8,5.4,8.7c2.1,0.6,4.3-0.2,6.3-1.1l23-9.3c2.2-0.8,4.2-1.8,6.1-3.1c1.6-1.2,3.1-2.6,4.4-4.1
		c4-4.4,8-9.3,9.6-15.2c1.7-6.1-1.7-18.6-9.9-14.1C243.3,202,240.3,214,236.3,220.5L236.3,220.5z"/>
	<path d="M199.5,234.5c-2.4-0.3-4.9-0.2-7,0.8c-2.1,1.1-3.8,3.4-3.3,5.7c0.4,1.4,1.2,2.7,2.3,3.6c1,1,2.2,1.8,3.6,2.3
		c0.5,0.2,1.1,0.2,1.6,0.1c0.5-0.1,0.9-0.6,1.1-1.1c0-0.4,0-0.8-0.2-1.2c-0.4-1.4-0.6-2.9-0.5-4.4c0-0.3,0.1-0.5,0.2-0.7
		c0.2-0.2,0.4-0.4,0.7-0.5c1.1-0.5,2.4-0.3,3.3,0.6c0.8,0.9,0.6,2.4,1.2,3.4c0.6,0.9,1.6,1.3,2.6,1.1c1-0.3,1.8-1,2.3-1.9
		c0.6-0.7,1-1.5,1.3-2.4c0.4-1.5-0.2-4.1-1.9-4.6c-0.9-0.3-2.4-0.1-3.5-0.3C202,234.9,200.8,234.7,199.5,234.5L199.5,234.5z"/>
	<ellipse class="st0" cx="199.6" cy="241.5" rx="3.1" ry="3.1"/>
	<path d="M199.9,343.5c0,0-19.5,2.7-34.5-18.5c-3.7-5.2-6.2-11.1-7.5-17.4c0.3-1.1,0.8-2.1,1.5-3.1c1.7-2.6,4.1-4.5,6.3-6.7
		c5.7-6,8.5-14.1,9.9-22.2s1.5-16.4,2.4-24.5c0-0.9,0.3-1.8,0.9-2.6c0.2-0.3,0.6-0.5,0.9-0.6c0.7,0.4,1.4,0.8,2.1,1.2
		c0,0,3,0.2,2.2,6.5s-11.3,38.5-4.9,54.4C185.6,326,200,343.5,199.9,343.5L199.9,343.5z"/>
	<path d="M257.4,194.1c0.2,0.3,0.6,0.6,1,0.7c0.2,0,0.5,0,0.7-0.1c0.8-0.1,1.6-0.4,2.2-0.9s0.7-1.5,0.1-2.1l0,0
		c0.7,0.6,1.6,0.9,2.5,0.6c0.9-0.2,1.7-0.6,2.4-1.1c0-0.6-0.2-1.1-0.5-1.6c0.9,1.5,3.2,1.4,4.5,0.4c0.2-0.1,0.4-0.3,0.6-0.4
		c0.3-0.1,0.5,0,0.8,0.1c0.7,0.2,1.6,0.3,1.8-0.4c0-0.2,0-0.4,0-0.6c-0.2-1.6-0.8-3-1.6-4.3c-0.8-0.9-1.9-1.6-3-2.1
		c-2.2-0.9-4.7-1.2-7-0.9c-2.6,0.4-6,1.9-6.8,4.5S255.8,192.1,257.4,194.1L257.4,194.1z"/>
	<path class="st0" d="M254.1,190.3c-0.2-0.1-0.4,0-0.6,0.1l-8.2,2.6c-1.4,0.4-2.7,0.9-4,1.6c-0.2,0.1-0.5,0.3-0.6,0.5
		c-0.1,0.3-0.1,0.6,0,0.9c0.5,1.9,1.3,3.7,2.2,5.5c5-1,9-4.4,12.9-7.8c0.1-0.1,0.2-0.2,0.2-0.3C256.1,192.8,254.6,190.4,254.1,190.3
		L254.1,190.3z"/>
	<path d="M316.2,333.1c-2.6-2.1-4.6-4.9-6.8-7.4c-1.7-2-3.6-3.8-5.8-5.4h0.2c0.4,0,0.8-0.4,0.8-0.8s-0.4-0.8-0.8-0.8h-2.6
		c-0.6-0.4-1.3-0.8-2-1.1h4.8c0.4-0.2,0.6-0.6,0.6-1c-0.1-0.8-0.6-0.9-0.6-0.9h-9.5c-4.8-1.4-10-1-14.5,1.1c-4.3,2.2-10.8,0-8.9-5.6
		c1.6-4.7,5.9-9.9,10.3-12.3c2.5-1.3,5.2-2,8-2.1c8.5-0.2,16.4,5.1,20.8,12.2C314.9,316.2,316.3,324.8,316.2,333.1L316.2,333.1z"/>
	<path d="M304.7,316.6c0,0.4-0.2,0.7-0.6,0.8c-0.1,0-0.1,0-0.2,0h-18.1c-0.4,0-0.8-0.4-0.8-0.8s0.4-0.8,0.8-0.8h18.1
		c0.1,0,0.1,0,0.2,0C304.5,315.9,304.7,316.2,304.7,316.6z"/>
	<path d="M304.8,319.4c0,0.4-0.4,0.8-0.8,0.8h-18.1c-0.4,0-0.8-0.4-0.8-0.8s0.4-0.8,0.8-0.8H304C304.4,318.6,304.7,319,304.8,319.4
		L304.8,319.4z"/>
	<path d="M285.8,321.8h18.1c0.5,0,0.8,0.4,0.8,0.8l0,0c0,0.4-0.4,0.8-0.8,0.8h-18.1c-0.5,0-0.8-0.4-0.8-0.8l0,0
		C285,322.1,285.4,321.8,285.8,321.8z"/>
	<path d="M241,238.2c-0.5,0.8-0.7,1.7-0.6,2.6c0.1,1.2,0.5,2.3,1.3,3.2c0.2,0.2,0.4,0.5,0.7,0.6s0.6,0.1,0.9,0
		c0.4-0.2,0.4-0.7,0.5-1.2c0.2-0.9,0.6-1.8,1.1-2.5c0.8-1.2,1.5-2.2,0.1-3.2S242,236.7,241,238.2L241,238.2z"/>
	<path d="M249.8,181.8c0.1-0.3-0.1-0.5-0.2-0.8c-0.1-0.5,0.2-1,0.6-1.2c0.1,0,0.2-0.1,0.3-0.1c0.2,0,0.2,0.2,0.3,0.3
		c0.6,1.4,0,3-1.3,3.6c-0.1,0.1-0.2,0.1-0.3,0.1s-0.1-0.1-0.2-0.2c-0.2-0.4-0.2-0.8,0-1.1C249.3,182.3,249.7,182.2,249.8,181.8z"/>
	<path d="M276,253.2c-3.7-1.3-7.5-2.1-11.3-2.5"/>
</g>
<g id="heart_couple-2-27">
	<path class="st0" d="M273.2,142.7c-1.5,0.1-2.8,1-3.5,2.4c-1,2.2,0,4.9,1.8,6.6s4,2.7,6.1,4l3.6-4c1.1-1.3,2.3-2.7,2.5-4.4
		c0.1-2.4-1.7-4.4-4.1-4.6c-1.2,0-2,1.2-2.9,1.3C275.6,143.9,274.6,142.6,273.2,142.7L273.2,142.7z"/>
	<path class="st0" d="M291.5,129.5c-0.9,0.6-1.3,1.7-1.2,2.8c0.2,1,0.8,1.9,1.7,2.5c0.9,0.6,1.9,0.9,2.9,0.9
		c2.8,0.3,5.6-0.7,8.2-1.6c-0.7-0.8-0.4-2-0.3-3c0.2-1.7-0.1-3.4-0.9-4.9c-0.3-0.7-0.8-1.2-1.4-1.7c-1-0.5-2.3-0.6-3.4-0.2
		c-0.8,0.2-1.5,0.6-2,1.2c-0.3,0.4-0.5,0.9-0.6,1.4c-0.2,0.7-0.3,1.3-0.4,2C293.3,128.8,292.3,129,291.5,129.5L291.5,129.5z"/>
	<path class="st0" d="M265.6,115.2c-1.4,0.1-2.6,0.9-3.2,2.2c-0.6,1.6,0.2,3.4,1.3,4.7c1.4,1.4,3.2,2.3,5.2,2.5
		c1.1,0.1,2.2,0,3.2-0.1c0.1,0,0.3,0,0.4-0.1s0.2-0.2,0.2-0.3c0.9-1.8,1.7-3.6,2.3-5.4c0.4-0.9,0.5-1.8,0.4-2.8
		c-0.4-1.6-2-2.7-3.6-2.4c-0.6,0.1-1.2,0.5-1.6,0.9s-0.6,1.7-0.9,1.9C268.7,116.8,266.7,115.2,265.6,115.2L265.6,115.2z"/>
	<path class="st0" d="M295.2,98.2c-0.5-1.3-2.3-1.3-3.7-1c-1.1,0.1-2.2,0.7-3,1.5c-0.8,1.3-0.6,2.9,0.4,4s2.4,1.7,3.8,1.9
		c1.4,0.3,2.9,0.4,4.3,0.7c1.3-1.9,2.3-3.9,3-6.1c0.4-0.8,0.4-1.8,0.3-2.7c-0.2-0.9-1.1-1.6-2-1.5c-0.4,0.1-0.7,0.2-1,0.5
		c-1,0.7-2.2,1.5-2.3,2.7"/>
</g>
</svg>
