<?xml version="1.0" encoding="utf-8"?>
<!-- Generator: Adobe Illustrator 25.1.0, SVG Export Plug-In . SVG Version: 6.00 Build 0)  -->
<svg version="1.1" id="Capa_1" xmlns="http://www.w3.org/2000/svg" xmlns:xlink="http://www.w3.org/1999/xlink" x="0px" y="0px"
	 viewBox="0 0 439.9 121.5" style="enable-background:new 0 0 439.9 121.5;" xml:space="preserve">
<style type="text/css">
	.st0{clip-path:url(#SVGID_2_);}
	.st1{clip-path:url(#SVGID_4_);}
	.st2{clip-path:url(#SVGID_6_);}
	.st3{fill:url(#SVGID_7_);}
</style>
<g>
	<defs>
		<rect id="SVGID_1_" x="16.7" y="36.1" width="406.4" height="49.4"/>
	</defs>
	<clipPath id="SVGID_2_">
		<use xlink:href="#SVGID_1_"  style="overflow:visible;"/>
	</clipPath>
	<g class="st0">
		<g>
			<defs>
				<path id="SVGID_3_" d="M222.8,58.6c-0.1,0.1-0.1,0.2-0.2,0.4c0,0.1-0.1,0.1-0.1,0.2c0,0.1-0.1,0.1-0.1,0.2
					c-0.1,0.2-0.2,0.5-0.3,0.7c0,0.1-0.1,0.2-0.1,0.3c0,0.1-0.1,0.2-0.1,0.3c-0.1,0.2-0.1,0.3-0.2,0.5c-0.2,0.6-0.3,0.9-0.3,0.9
					s0.2-0.3,0.6-0.8c0.1-0.1,0.2-0.3,0.3-0.4c0.1-0.1,0.1-0.1,0.2-0.2c0.1-0.1,0.1-0.2,0.2-0.2c0.1-0.2,0.3-0.3,0.5-0.5
					c0,0,0.1-0.1,0.1-0.1c0,0,0.1-0.1,0.1-0.1c0.1-0.1,0.2-0.2,0.3-0.3c0.8-0.7,1.7-1.5,2.8-2.3c1.1-0.7,2.3-1.4,3.6-2
					c0.1,0,0.2-0.1,0.2-0.1l0.2-0.1l0.5-0.2c0.3-0.1,0.6-0.2,1-0.3c0.3-0.1,0.6-0.2,1-0.3c0.2,0,0.3-0.1,0.5-0.1
					c0.2,0,0.3-0.1,0.5-0.1c1.3-0.3,2.5-0.5,3.5-0.5c0.1,0,0.3,0,0.4,0c0.1,0,0.3,0,0.4,0c0.2,0,0.5,0,0.7,0c0.2,0,0.4,0,0.6,0
					c0.1,0,0.2,0,0.3,0c0.1,0,0.2,0,0.3,0c0.2,0,0.3,0,0.5,0c0.1,0,0.3,0,0.4,0c0.2,0,0.4,0,0.5,0c0.2,0,0.5,0,0.7-0.1
					c0.3,0,0.6-0.1,0.9-0.2c0.2,0,0.3-0.1,0.5-0.1c0.2,0,0.3-0.1,0.5-0.1c0.3-0.1,0.7-0.2,1-0.3c0.2-0.1,0.3-0.1,0.5-0.2
					c0.1,0,0.2-0.1,0.2-0.1c0.1,0,0.2-0.1,0.2-0.1c0.3-0.1,0.6-0.3,0.9-0.5c0.5-0.3,1-0.7,1.1-1.2c0.2-0.5,0-1.1-0.4-1.6
					c-0.2-0.3-0.4-0.6-0.7-0.8c-0.1-0.1-0.2-0.1-0.2-0.2c-0.1-0.1-0.2-0.1-0.2-0.2c-0.2-0.1-0.3-0.2-0.5-0.4
					c-0.4-0.2-0.8-0.4-1.2-0.6c-0.2-0.1-0.4-0.2-0.6-0.2c-0.2-0.1-0.4-0.1-0.6-0.2c-0.4-0.1-0.8-0.2-1.2-0.3c-0.4,0-0.7-0.1-1-0.1
					c-0.2,0-0.4,0-0.7,0.1c-0.2,0-0.3,0.1-0.5,0.1c-0.2,0-0.4,0.1-0.6,0.1c-0.1,0-0.2,0.1-0.4,0.1c-0.1,0-0.3,0.1-0.4,0.1
					c-0.3,0.1-0.5,0.1-0.8,0.2c-0.3,0.1-0.6,0.2-0.9,0.3c-0.2,0-0.3,0.1-0.5,0.2c-0.2,0.1-0.3,0.1-0.5,0.2c-1.3,0.5-2.7,1.2-4,2
					c-0.2,0.1-0.3,0.2-0.5,0.3c-0.2,0.1-0.3,0.2-0.5,0.3c-0.3,0.2-0.7,0.5-1,0.7c-0.3,0.3-0.6,0.5-1,0.8l-0.5,0.4l-0.2,0.2
					c-0.1,0.1-0.2,0.1-0.2,0.2c-1.2,1.1-2.3,2.3-3.1,3.4C224,56.5,223.3,57.6,222.8,58.6z M422.5,63.6c-0.1,0.1-0.3,0.2-0.4,0.4
					c-0.2,0.1-0.3,0.3-0.5,0.4c0,0-0.1,0.1-0.2,0.1c-0.1,0-0.1,0.1-0.2,0.1c-0.1,0.1-0.2,0.2-0.3,0.3c-0.1,0.1-0.2,0.2-0.4,0.3
					c-0.1,0.1-0.3,0.2-0.4,0.3c-0.1,0.1-0.3,0.2-0.4,0.3c-0.2,0.1-0.3,0.2-0.5,0.3c-0.6,0.4-1.4,0.8-2.2,1.2
					c-0.8,0.4-1.7,0.8-2.7,1.2c-1,0.4-2.1,0.7-3.3,1c-1.2,0.3-2.4,0.5-3.7,0.7c-5.2,0.7-11.5,0.4-17.9-1.3c-0.4-0.1-0.8-0.2-1.2-0.3
					c-0.4-0.1-0.8-0.2-1.2-0.4c-0.4-0.1-0.8-0.3-1.2-0.4c-0.4-0.1-0.8-0.3-1.2-0.4c-0.8-0.3-1.6-0.6-2.4-0.9
					c-0.4-0.2-0.8-0.3-1.2-0.5c-0.4-0.2-0.8-0.3-1.2-0.5c-3.3-1.3-6.6-2.8-9.9-4.3c-3.3-1.5-6.7-3.1-10.2-4.5
					c-1.7-0.7-3.5-1.4-5.2-2c-1.8-0.6-3.5-1.2-5.3-1.6c-0.9-0.2-1.8-0.5-2.7-0.7c-0.9-0.2-1.8-0.4-2.7-0.5c-1.8-0.3-3.6-0.6-5.3-0.7
					c-3.5-0.3-7-0.1-10.2,0.4c-1.6,0.3-3.2,0.7-4.7,1.1c-1.5,0.5-2.9,1-4.2,1.7c-2.6,1.3-4.8,2.9-6.6,4.6c-0.9,0.9-1.6,1.7-2.2,2.6
					c-0.6,0.9-1.1,1.7-1.5,2.5c-0.4,0.8-0.7,1.5-0.9,2.1c-0.1,0.3-0.2,0.6-0.3,0.9c0,0.1-0.1,0.3-0.1,0.4c0,0.1-0.1,0.2-0.1,0.3
					c-0.3,1.3-0.4,2.7-0.3,4.2c0,0,0,0-0.1,0c-0.1,0.1-0.2,0.2-0.3,0.3c-0.1,0.1-0.2,0.2-0.4,0.3c-0.1,0.1-0.2,0.2-0.4,0.3
					c-0.3,0.2-0.5,0.3-0.8,0.5c-0.1,0.1-0.3,0.2-0.4,0.2c-0.1,0.1-0.3,0.1-0.4,0.2c-0.1,0-0.1,0.1-0.2,0.1c-0.1,0-0.2,0.1-0.2,0.1
					c-0.2,0.1-0.3,0.1-0.5,0.2c-0.6,0.3-1.3,0.5-2,0.7c-0.7,0.2-1.4,0.4-2.2,0.5c-0.8,0.1-1.5,0.2-2.3,0.1c-0.2,0-0.4,0-0.6,0
					c-0.2,0-0.4,0-0.6,0l-0.1,0l-0.1,0c-0.1,0-0.2,0-0.3,0c-0.1,0-0.2,0-0.3,0c-0.1,0-0.2,0-0.3-0.1c-0.8-0.1-1.5-0.3-2.3-0.6
					c-1.5-0.6-2.8-1.4-4-2.5c-1.2-1.1-2.1-2.4-2.9-3.8c-0.7-1.4-1.2-2.9-1.5-4.4c-0.1-0.7-0.2-1.5-0.2-2.2c0-0.2,0-0.4,0-0.5
					c0-0.2,0-0.3,0-0.5c0-0.3,0.1-0.7,0.1-1c0.1-0.7,0.2-1.3,0.4-1.9c0-0.2,0.1-0.3,0.2-0.4c0.1-0.1,0.1-0.3,0.2-0.4
					c0.1-0.1,0.1-0.3,0.2-0.4c0.1-0.1,0.1-0.3,0.2-0.4c0-0.1,0.1-0.1,0.1-0.2c0-0.1,0.1-0.1,0.1-0.2c0-0.1,0.1-0.1,0.1-0.2
					c0-0.1,0.1-0.1,0.1-0.2c0.1-0.2,0.3-0.4,0.4-0.6c0.3-0.4,0.6-0.7,1-1c0.7-0.6,1.4-1,1.9-1.2c0.3-0.1,0.5-0.2,0.7-0.2
					c0.2,0,0.4,0,0.5,0c0,0,0.1,0,0.1,0c0,0,0.1,0,0.1,0c0,0,0,0,0.1,0c0,0,0,0,0.1,0c0,0,0.1,0,0.1,0c0,0,0.1,0,0.1,0
					c0,0,0,0,0.1,0c0,0,0,0,0.1,0c0,0,0,0,0.1,0c0,0,0,0,0,0c0,0,0,0,0,0c0.1,0,0.2,0.1,0.3,0.1c0,0,0.1,0,0.1,0l0,0l0,0
					c0,0,0,0,0,0c0.1,0,0.1,0.1,0.2,0.1c0.1,0.1,0.2,0.1,0.3,0.3c0.1,0.1,0.2,0.3,0.3,0.5c0.1,0.1,0.1,0.2,0.2,0.3
					c0,0.1,0,0.1,0.1,0.2c0,0.1,0,0.1,0.1,0.2c0.2,0.6,0.2,1.2,0.2,2c0,0.2,0,0.4,0,0.5l0,0.3c0,0.1,0,0.2,0,0.3l0,0.3
					c0,0.1,0,0.2,0,0.3c0,0.2,0,0.3-0.1,0.5c-0.1,0.7-0.2,1.3-0.3,1.9c-0.1,0.6-0.2,1-0.2,1.4c0,0.4,0.1,0.7,0.3,0.9
					c0.2,0.2,0.5,0.2,0.9,0.1c0.4-0.1,0.9-0.4,1.5-0.8c0.5-0.4,1.1-1,1.7-1.7c0.1-0.2,0.3-0.4,0.4-0.6c0.1-0.1,0.1-0.2,0.2-0.3
					c0.1-0.1,0.1-0.2,0.2-0.3c0.1-0.1,0.1-0.2,0.2-0.3l0.2-0.3c0.1-0.2,0.2-0.5,0.3-0.7c0.2-0.5,0.4-1.1,0.5-1.6
					c0.2-0.6,0.2-1.2,0.3-1.9c0-0.2,0-0.3,0-0.5c0-0.2,0-0.3,0-0.5c0-0.3,0-0.7-0.1-1c-0.1-0.7-0.3-1.4-0.6-2.1
					c-0.3-0.7-0.7-1.3-1.2-1.9c-0.2-0.3-0.5-0.6-0.8-0.8c-0.3-0.3-0.5-0.5-0.8-0.7c-1.1-0.8-2.4-1.3-3.5-1.5c-0.1,0-0.3,0-0.5-0.1
					c-0.2,0-0.4,0-0.6,0c-0.1,0-0.2,0-0.3,0c-0.1,0-0.2,0-0.4,0c-0.1,0-0.3,0-0.4,0c-0.1,0-0.3,0-0.4,0c-0.6,0.1-1.2,0.2-1.8,0.4
					c-0.6,0.2-1.2,0.5-1.9,0.8c-1.3,0.7-2.5,1.6-3.6,2.9c-0.6,0.6-1.1,1.3-1.6,2.1c-0.2,0.4-0.5,0.8-0.7,1.2
					c-0.1,0.1-0.1,0.2-0.2,0.3c-0.1,0.1-0.1,0.2-0.1,0.3c0,0.1-0.1,0.2-0.1,0.3c0,0.1-0.1,0.2-0.1,0.3c-0.1,0.2-0.2,0.4-0.2,0.7
					c-0.1,0.2-0.1,0.4-0.2,0.7c-0.1,0.2-0.1,0.5-0.2,0.7c-0.1,0.2-0.1,0.5-0.1,0.7c-0.2,0.9-0.3,1.9-0.3,2.9c0,0.5,0,1,0,1.5
					c0,0.2,0,0.5,0.1,0.7c0,0.2,0.1,0.5,0.1,0.7c0.1,0.5,0.2,0.9,0.3,1.4c0,0,0,0,0,0c-0.2-0.1-0.4-0.2-0.6-0.3
					c-0.2-0.1-0.4-0.2-0.6-0.3c-1.6-0.7-3.6-1.5-5.7-2.3c-2.1-0.8-4.5-1.5-6.9-2.1l-0.5-0.1l-0.5-0.1l-0.9-0.2
					c-0.6-0.1-1.2-0.3-1.8-0.4c-0.6-0.1-1.2-0.2-1.8-0.3c-0.3-0.1-0.6-0.1-0.9-0.1c-0.3,0-0.6-0.1-0.9-0.1c-2.4-0.4-4.7-0.6-6.7-0.7
					c-0.5,0-1-0.1-1.5-0.1c-0.5,0-0.9,0-1.4,0c-0.9,0-1.7,0-2.4,0c-0.4,0-0.7,0-1,0c-0.3,0-0.6,0-0.8,0c-0.5,0-0.8,0.1-1.1,0.1
					c-0.4,0.1-1,0.2-1.5,0.3c-0.5,0.1-1.1,0.3-1.7,0.5c-0.3,0.1-0.6,0.2-0.9,0.3c-0.3,0.1-0.6,0.2-0.9,0.4c-0.6,0.3-1.2,0.5-1.7,0.9
					c-0.6,0.3-1.1,0.6-1.5,0.9c-0.5,0.3-0.9,0.6-1.2,1c-0.6,0.7-1,1.3-0.8,1.8c0.1,0.5,0.7,0.9,1.6,1.1c0.4,0.1,0.9,0.2,1.4,0.3
					c0.5,0.1,1.1,0.1,1.7,0.2c0.6,0,1.2,0.1,1.8,0.1c0.3,0,0.6,0,0.9,0c0.3,0,0.6,0,0.9,0c0.6,0,1.1,0,1.6,0c0.5,0,1-0.1,1.4-0.1
					c0.2,0,0.5-0.1,0.9-0.2c0.2,0,0.5-0.1,0.7-0.1c0.3,0,0.6-0.1,0.9-0.2c0.6-0.1,1.3-0.2,2.1-0.4c0.4-0.1,0.8-0.1,1.3-0.2
					c0.4-0.1,0.9-0.1,1.4-0.2c1.9-0.2,4-0.4,6.3-0.5c0.3,0,0.6,0,0.9,0c0.3,0,0.6,0,0.9,0c0.6,0,1.2,0,1.7,0c0.6,0,1.2,0,1.8,0
					l0.9,0l0.4,0l0.4,0c2.4,0.1,4.7,0.3,6.9,0.6c2.2,0.3,4.2,0.7,5.9,1.1c0.2,0,0.4,0.1,0.6,0.1c0.2,0,0.4,0.1,0.6,0.1
					c0.2,0.1,0.4,0.1,0.6,0.1c0.1,0.2,0.1,0.4,0.2,0.6c0.6,1.9,1.5,3.8,2.7,5.5c1.2,1.7,2.7,3.2,4.3,4.4c1.7,1.2,3.6,2,5.5,2.5
					c1,0.2,1.9,0.3,2.9,0.4c0.1,0,0.2,0,0.4,0c0.1,0,0.2,0,0.4,0c0.1,0,0.2,0,0.4,0l0.2,0l0.2,0c0.2,0,0.5,0,0.7,0
					c0.2,0,0.5,0,0.7-0.1c0.9-0.1,1.8-0.3,2.6-0.5c0.8-0.2,1.6-0.5,2.3-0.8c0.7-0.3,1.4-0.7,2.1-1.1c0.2-0.1,0.3-0.2,0.5-0.3
					c0.1,0,0.2-0.1,0.2-0.1c0.1-0.1,0.2-0.1,0.2-0.2c0.1-0.1,0.3-0.2,0.4-0.3c0.1-0.1,0.3-0.2,0.4-0.3c0.3-0.2,0.5-0.4,0.8-0.6
					c0.1-0.1,0.2-0.2,0.4-0.3c0.1-0.1,0.2-0.2,0.3-0.2c0,0.2,0.1,0.4,0.1,0.5c0.4,2.1,1.2,4.2,2.6,6.2c0.7,1,1.5,1.9,2.5,2.7
					c0.1,0.1,0.2,0.2,0.4,0.3c0.1,0.1,0.2,0.2,0.4,0.3l0.4,0.3l0.2,0.1l0.2,0.1l0.4,0.2c0.1,0.1,0.3,0.1,0.4,0.2
					c0.3,0.2,0.6,0.3,0.9,0.4c0.1,0.1,0.3,0.1,0.5,0.2c0.2,0.1,0.3,0.1,0.5,0.2l0.5,0.1c0.1,0,0.2,0,0.2,0.1l0.2,0l0.5,0.1
					c0.2,0,0.3,0,0.5,0.1c0.3,0,0.6,0.1,1,0.1c0.6,0,1.3,0,1.9-0.1c0.3,0,0.6-0.1,0.9-0.2c0.1,0,0.3-0.1,0.4-0.1
					c0.1,0,0.3-0.1,0.4-0.1c1.1-0.4,2.2-0.9,3.1-1.7c0.1-0.1,0.2-0.2,0.3-0.3c0.1-0.1,0.2-0.2,0.3-0.3c0.2-0.2,0.4-0.4,0.6-0.6
					l0.1-0.1l0.1-0.1l0.1-0.2c0.1-0.1,0.2-0.2,0.2-0.3c0.1-0.1,0.1-0.2,0.2-0.4c0.1-0.1,0.1-0.2,0.2-0.4c0.5-1,0.7-2.1,0.7-3
					c0-0.9-0.2-1.8-0.5-2.5c-0.1-0.4-0.3-0.7-0.5-1c-0.2-0.3-0.4-0.5-0.6-0.8c-0.4-0.4-0.8-0.7-1.2-0.9c-0.4-0.2-0.7-0.2-0.9-0.2
					c-0.2,0-0.4,0.1-0.4,0.2c-0.1,0.1,0,0.3,0,0.5c0.1,0.2,0.2,0.4,0.3,0.7c0.1,0.3,0.2,0.6,0.3,1c0,0.2,0.1,0.4,0.1,0.6
					c0,0.2,0,0.4,0,0.6c0,0.4-0.1,0.9-0.3,1.4c-0.2,0.5-0.4,0.9-0.7,1.2c0,0-0.1,0.1-0.1,0.1c0,0-0.1,0.1-0.1,0.1
					c0,0-0.1,0.1-0.1,0.1l-0.1,0.1l0,0l0,0c-0.1,0.1-0.2,0.1-0.3,0.2c-0.1,0-0.1,0.1-0.2,0.1c-0.1,0-0.1,0.1-0.2,0.1
					c-0.5,0.2-1.1,0.4-1.6,0.4c-0.1,0-0.1,0-0.2,0c-0.1,0-0.1,0-0.2,0c-0.2,0-0.3,0-0.5,0c-0.3,0-0.6-0.1-0.9-0.1
					c-0.1,0-0.3-0.1-0.4-0.1c-0.1,0-0.1,0-0.2-0.1l-0.2-0.1l-0.1,0c0,0-0.1,0-0.1,0c-0.1,0-0.1-0.1-0.2-0.1c-0.1,0-0.1-0.1-0.2-0.1
					c-0.1,0-0.1-0.1-0.2-0.1c-0.1-0.1-0.3-0.2-0.4-0.3c-0.1,0-0.1-0.1-0.2-0.1l-0.2-0.1l-0.1-0.1l-0.1-0.1l-0.2-0.2l-0.2-0.2
					c-0.1-0.1-0.1-0.1-0.2-0.2c-0.4-0.5-0.8-1-1.1-1.6c-0.6-1.1-1-2.4-1.1-3.5c-0.1-1.2,0-2.2,0.1-3c0-0.1,0-0.1,0-0.2
					c0-0.1,0-0.1,0-0.2c0-0.1,0.1-0.3,0.1-0.5c0.1-0.4,0.3-0.8,0.5-1.3c0.2-0.5,0.5-1,0.8-1.5c0.4-0.6,0.8-1.1,1.4-1.8
					c1.1-1.2,2.6-2.5,4.5-3.6c1-0.5,2-1.1,3.2-1.5c1.2-0.4,2.4-0.8,3.7-1.1c2.6-0.6,5.6-0.9,8.7-0.9c1.6,0,3.2,0.1,4.8,0.3
					c0.8,0.1,1.6,0.2,2.5,0.3c0.8,0.1,1.7,0.3,2.5,0.5c1.7,0.3,3.4,0.7,5.1,1.2c1.7,0.5,3.4,1,5.1,1.6c3.4,1.1,6.9,2.4,10.3,3.7
					c3.4,1.3,6.9,2.6,10.3,3.7c0.4,0.1,0.9,0.3,1.3,0.4c0.4,0.1,0.9,0.3,1.3,0.4c0.9,0.3,1.7,0.5,2.6,0.7c0.4,0.1,0.9,0.2,1.3,0.3
					c0.4,0.1,0.9,0.2,1.3,0.3c0.4,0.1,0.9,0.2,1.3,0.3c0.4,0.1,0.8,0.2,1.3,0.3c0.9,0.2,1.7,0.3,2.5,0.4c0.4,0.1,0.8,0.1,1.3,0.2
					c0.4,0.1,0.8,0.1,1.2,0.1c1.7,0.2,3.3,0.2,4.8,0.2c3.1,0,6.1-0.3,8.8-0.9c1.3-0.3,2.6-0.6,3.8-1c1.2-0.4,2.3-0.8,3.3-1.3
					c1-0.4,1.9-0.9,2.7-1.4c0.8-0.5,1.5-1,2.2-1.4c0.2-0.1,0.3-0.2,0.5-0.3c0.1-0.1,0.3-0.2,0.4-0.3c0.1-0.1,0.3-0.2,0.4-0.3
					c0.1-0.1,0.2-0.2,0.4-0.3c0.1-0.1,0.2-0.2,0.3-0.3c0.1,0,0.1-0.1,0.2-0.1c0,0,0.1-0.1,0.1-0.1c0.2-0.2,0.4-0.3,0.5-0.5
					C422.3,63.9,422.4,63.7,422.5,63.6c0.1-0.1,0.2-0.2,0.3-0.2c0.1-0.2,0.2-0.2,0.2-0.2s-0.1,0.1-0.2,0.2
					C422.7,63.4,422.6,63.5,422.5,63.6z M220.6,48.3c1.8-2.7,5.1-7.5,5.3-8.2c0.2-0.9-0.9-3.4-2.9-3.9c-1.1-0.3-2.2,0.1-3.1,0.6
					c-0.9-0.5-2-0.8-3.1-0.6c-2,0.5-3.2,3-2.9,3.9c0.2,0.7,3.5,5.5,5.3,8.2c0.1,1,0.2,1.7,0.2,1.7s0.2-0.3,0.5-0.7
					c0.3,0.5,0.5,0.7,0.5,0.7S220.5,49.4,220.6,48.3z M211.7,51.7l-0.2-0.2l-0.5-0.4c-0.3-0.3-0.6-0.5-1-0.8c-0.3-0.2-0.7-0.5-1-0.7
					c-0.2-0.1-0.3-0.2-0.5-0.3c-0.2-0.1-0.3-0.2-0.5-0.3c-1.4-0.8-2.8-1.5-4-2c-0.2-0.1-0.3-0.1-0.5-0.2c-0.2-0.1-0.3-0.1-0.5-0.2
					c-0.3-0.1-0.6-0.2-0.9-0.3c-0.3-0.1-0.6-0.2-0.8-0.2c-0.1,0-0.3-0.1-0.4-0.1c-0.1,0-0.2-0.1-0.4-0.1c-0.2-0.1-0.5-0.1-0.6-0.1
					c-0.2,0-0.4-0.1-0.5-0.1c-0.3,0-0.6-0.1-0.7-0.1c-0.3,0-0.7,0-1,0.1c-0.4,0.1-0.8,0.1-1.2,0.3c-0.2,0.1-0.4,0.1-0.6,0.2
					c-0.2,0.1-0.4,0.2-0.6,0.2c-0.4,0.2-0.8,0.4-1.2,0.6c-0.2,0.1-0.4,0.2-0.5,0.4c-0.1,0.1-0.2,0.1-0.2,0.2
					c-0.1,0.1-0.2,0.1-0.2,0.2c-0.3,0.3-0.5,0.5-0.7,0.8c-0.4,0.6-0.5,1.1-0.4,1.6c0.1,0.5,0.6,0.9,1.1,1.2c0.3,0.2,0.6,0.3,0.9,0.5
					c0.1,0,0.2,0.1,0.2,0.1c0.1,0,0.2,0.1,0.2,0.1c0.2,0.1,0.3,0.1,0.5,0.2c0.3,0.1,0.7,0.2,1,0.3c0.2,0,0.3,0.1,0.5,0.1
					c0.2,0,0.3,0.1,0.5,0.1c0.3,0.1,0.6,0.2,0.9,0.2c0.3,0.1,0.5,0.1,0.7,0.1c0.1,0,0.3,0,0.5,0c0.1,0,0.2,0,0.4,0
					c0.1,0,0.3,0,0.5,0c0.1,0,0.2,0,0.3,0c0.1,0,0.2,0,0.3,0c0.2,0,0.4,0,0.6,0c0.2,0,0.5,0,0.7,0c0.1,0,0.2,0,0.4,0
					c0.1,0,0.3,0,0.4,0c1.1,0.1,2.3,0.2,3.5,0.5c0.2,0,0.3,0.1,0.5,0.1c0.2,0,0.3,0.1,0.5,0.1c0.3,0.1,0.6,0.2,1,0.3
					c0.3,0.1,0.6,0.2,1,0.3l0.5,0.2l0.2,0.1c0.1,0,0.2,0.1,0.2,0.1c1.3,0.6,2.5,1.2,3.6,2c1.1,0.7,2,1.5,2.8,2.3
					c0.1,0.1,0.2,0.2,0.3,0.3c0,0,0.1,0.1,0.1,0.1c0,0,0.1,0.1,0.1,0.1c0.2,0.2,0.3,0.3,0.5,0.5c0.1,0.1,0.1,0.2,0.2,0.2
					c0.1,0.1,0.1,0.2,0.2,0.2c0.1,0.1,0.2,0.3,0.3,0.4c0.4,0.5,0.6,0.8,0.6,0.8s-0.1-0.3-0.3-0.9c-0.1-0.1-0.1-0.3-0.2-0.5
					c0-0.1-0.1-0.2-0.1-0.3c0-0.1-0.1-0.2-0.1-0.3c-0.1-0.2-0.2-0.4-0.3-0.7c0-0.1-0.1-0.1-0.1-0.2c0-0.1-0.1-0.1-0.1-0.2
					c-0.1-0.1-0.1-0.2-0.2-0.4c-0.5-1-1.2-2.1-2.1-3.3c-0.9-1.2-1.9-2.3-3.1-3.4C211.8,51.8,211.8,51.8,211.7,51.7z M18.2,64.5
					c-0.2-0.2-0.4-0.3-0.5-0.5c-0.2-0.1-0.3-0.3-0.4-0.4c-0.1-0.1-0.2-0.2-0.3-0.3c-0.1-0.2-0.2-0.2-0.2-0.2s0.1,0.1,0.2,0.2
					c0.1,0.1,0.2,0.2,0.3,0.3c0.1,0.1,0.2,0.2,0.4,0.4c0.2,0.1,0.3,0.3,0.5,0.4c0,0,0.1,0.1,0.2,0.1c0.1,0,0.1,0.1,0.2,0.1
					c0.1,0.1,0.2,0.2,0.3,0.3c0.1,0.1,0.2,0.2,0.4,0.3c0.1,0.1,0.3,0.2,0.4,0.3c0.1,0.1,0.3,0.2,0.4,0.3c0.2,0.1,0.3,0.2,0.5,0.3
					c0.6,0.4,1.4,0.8,2.2,1.2c0.8,0.4,1.7,0.8,2.7,1.2c1,0.4,2.1,0.7,3.3,1c1.2,0.3,2.4,0.5,3.7,0.7c5.2,0.7,11.5,0.4,17.9-1.3
					c0.4-0.1,0.8-0.2,1.2-0.3c0.4-0.1,0.8-0.2,1.2-0.4c0.4-0.1,0.8-0.3,1.2-0.4c0.4-0.1,0.8-0.3,1.2-0.4c0.8-0.3,1.6-0.6,2.4-0.9
					c0.4-0.2,0.8-0.3,1.2-0.5c0.4-0.2,0.8-0.3,1.2-0.5c3.3-1.3,6.6-2.8,9.9-4.3c3.3-1.5,6.7-3.1,10.2-4.5c1.7-0.7,3.5-1.4,5.2-2
					c1.8-0.6,3.5-1.2,5.3-1.6c0.9-0.2,1.8-0.5,2.7-0.7c0.9-0.2,1.8-0.4,2.7-0.5c1.8-0.3,3.6-0.6,5.3-0.7c3.5-0.3,7-0.1,10.2,0.4
					c1.6,0.3,3.2,0.7,4.7,1.1c1.5,0.5,2.9,1,4.2,1.7c2.6,1.3,4.8,2.9,6.6,4.6c0.9,0.9,1.6,1.7,2.2,2.6c0.6,0.9,1.1,1.7,1.5,2.5
					c0.4,0.8,0.7,1.5,0.9,2.1c0.1,0.3,0.2,0.6,0.3,0.9c0,0.1,0.1,0.3,0.1,0.4c0,0.1,0.1,0.2,0.1,0.3c0.3,1.3,0.4,2.7,0.3,4.2
					c0,0,0,0,0.1,0c0.1,0.1,0.2,0.2,0.3,0.3c0.1,0.1,0.2,0.2,0.4,0.3c0.1,0.1,0.2,0.2,0.4,0.3c0.3,0.2,0.5,0.3,0.8,0.5
					c0.1,0.1,0.3,0.2,0.4,0.2c0.1,0.1,0.3,0.1,0.4,0.2c0.1,0,0.1,0.1,0.2,0.1c0.1,0,0.2,0.1,0.2,0.1c0.2,0.1,0.3,0.1,0.5,0.2
					c0.6,0.3,1.3,0.5,2,0.7c0.7,0.2,1.4,0.4,2.2,0.5c0.8,0.1,1.5,0.2,2.3,0.1c0.2,0,0.4,0,0.6,0c0.2,0,0.4,0,0.6,0l0.1,0l0.1,0
					c0.1,0,0.2,0,0.3,0c0.1,0,0.2,0,0.3,0c0.1,0,0.2,0,0.3-0.1c0.8-0.1,1.5-0.3,2.3-0.6c1.5-0.6,2.8-1.4,4-2.5
					c1.2-1.1,2.1-2.4,2.9-3.8c0.7-1.4,1.2-2.9,1.5-4.4c0.1-0.7,0.2-1.5,0.2-2.2c0-0.2,0-0.4,0-0.5c0-0.2,0-0.3,0-0.5
					c0-0.3-0.1-0.7-0.1-1c-0.1-0.7-0.2-1.3-0.4-1.9c0-0.2-0.1-0.3-0.2-0.4c-0.1-0.1-0.1-0.3-0.2-0.4c-0.1-0.1-0.1-0.3-0.2-0.4
					c-0.1-0.1-0.1-0.3-0.2-0.4c0-0.1-0.1-0.1-0.1-0.2c0-0.1-0.1-0.1-0.1-0.2c0-0.1-0.1-0.1-0.1-0.2c0-0.1-0.1-0.1-0.1-0.2
					c-0.1-0.2-0.3-0.4-0.4-0.6c-0.3-0.4-0.6-0.7-1-1c-0.7-0.6-1.4-1-1.9-1.2c-0.3-0.1-0.5-0.2-0.7-0.2c-0.2,0-0.4,0-0.5,0
					c0,0-0.1,0-0.1,0c0,0-0.1,0-0.1,0c0,0,0,0-0.1,0c0,0,0,0-0.1,0c0,0-0.1,0-0.1,0c0,0-0.1,0-0.1,0c0,0,0,0-0.1,0c0,0,0,0-0.1,0
					c0,0,0,0-0.1,0c0,0,0,0,0,0c0,0,0,0,0,0c-0.1,0-0.2,0.1-0.3,0.1c0,0-0.1,0-0.1,0l0,0l0,0c0,0,0,0,0,0c-0.1,0-0.1,0.1-0.2,0.1
					c-0.1,0.1-0.2,0.1-0.3,0.3c-0.1,0.1-0.2,0.3-0.3,0.5c-0.1,0.1-0.1,0.2-0.2,0.3c0,0.1,0,0.1-0.1,0.2c0,0.1,0,0.1-0.1,0.2
					c-0.2,0.6-0.2,1.2-0.2,2c0,0.2,0,0.4,0,0.5l0,0.3c0,0.1,0,0.2,0,0.3l0,0.3c0,0.1,0,0.2,0,0.3c0,0.2,0,0.3,0.1,0.5
					c0.1,0.7,0.2,1.3,0.3,1.9c0.1,0.6,0.2,1,0.2,1.4c0,0.4-0.1,0.7-0.3,0.9c-0.2,0.2-0.5,0.2-0.9,0.1c-0.4-0.1-0.9-0.4-1.5-0.8
					c-0.5-0.4-1.1-1-1.7-1.7c-0.1-0.2-0.3-0.4-0.4-0.6c-0.1-0.1-0.1-0.2-0.2-0.3c-0.1-0.1-0.1-0.2-0.2-0.3c-0.1-0.1-0.1-0.2-0.2-0.3
					l-0.2-0.3c-0.1-0.2-0.2-0.5-0.3-0.7c-0.2-0.5-0.4-1.1-0.5-1.6c-0.2-0.6-0.2-1.2-0.3-1.9c0-0.2,0-0.3,0-0.5c0-0.2,0-0.3,0-0.5
					c0-0.3,0-0.7,0.1-1c0.1-0.7,0.3-1.4,0.6-2.1c0.3-0.7,0.7-1.3,1.2-1.9c0.2-0.3,0.5-0.6,0.8-0.8c0.3-0.3,0.5-0.5,0.8-0.7
					c1.1-0.8,2.4-1.3,3.5-1.5c0.1,0,0.3,0,0.5-0.1c0.2,0,0.4,0,0.6,0c0.1,0,0.2,0,0.3,0c0.1,0,0.2,0,0.4,0c0.1,0,0.3,0,0.4,0
					c0.1,0,0.3,0,0.4,0c0.6,0.1,1.2,0.2,1.8,0.4c0.6,0.2,1.2,0.5,1.9,0.8c1.3,0.7,2.5,1.6,3.6,2.9c0.6,0.6,1.1,1.3,1.6,2.1
					c0.2,0.4,0.5,0.8,0.7,1.2c0.1,0.1,0.1,0.2,0.2,0.3c0.1,0.1,0.1,0.2,0.1,0.3c0,0.1,0.1,0.2,0.1,0.3c0,0.1,0.1,0.2,0.1,0.3
					c0.1,0.2,0.2,0.4,0.2,0.7c0.1,0.2,0.1,0.4,0.2,0.7c0.1,0.2,0.1,0.5,0.2,0.7c0.1,0.2,0.1,0.5,0.1,0.7c0.2,0.9,0.3,1.9,0.3,2.9
					c0,0.5,0,1,0,1.5c0,0.2,0,0.5-0.1,0.7c0,0.2-0.1,0.5-0.1,0.7c-0.1,0.5-0.2,0.9-0.3,1.4c0,0,0,0,0,0c0.2-0.1,0.4-0.2,0.6-0.3
					c0.2-0.1,0.4-0.2,0.6-0.3c1.6-0.7,3.6-1.5,5.7-2.3c2.1-0.8,4.5-1.5,6.9-2.1l0.5-0.1l0.5-0.1l0.9-0.2c0.6-0.1,1.2-0.3,1.8-0.4
					c0.6-0.1,1.2-0.2,1.8-0.3c0.3-0.1,0.6-0.1,0.9-0.1c0.3,0,0.6-0.1,0.9-0.1c2.4-0.4,4.7-0.6,6.7-0.7c0.5,0,1-0.1,1.5-0.1
					c0.5,0,0.9,0,1.4,0c0.9,0,1.7,0,2.4,0c0.4,0,0.7,0,1,0c0.3,0,0.6,0,0.8,0c0.5,0,0.8,0.1,1.1,0.1c0.4,0.1,1,0.2,1.5,0.3
					c0.5,0.1,1.1,0.3,1.7,0.5c0.3,0.1,0.6,0.2,0.9,0.3c0.3,0.1,0.6,0.2,0.9,0.4c0.6,0.3,1.2,0.5,1.7,0.9c0.6,0.3,1.1,0.6,1.5,0.9
					c0.5,0.3,0.9,0.6,1.2,1c0.6,0.7,1,1.3,0.8,1.8c-0.1,0.5-0.7,0.9-1.6,1.1c-0.4,0.1-0.9,0.2-1.4,0.3c-0.5,0.1-1.1,0.1-1.7,0.2
					c-0.6,0-1.2,0.1-1.8,0.1c-0.3,0-0.6,0-0.9,0c-0.3,0-0.6,0-0.9,0c-0.6,0-1.1,0-1.6,0c-0.5,0-1-0.1-1.4-0.1
					c-0.2,0-0.5-0.1-0.9-0.2c-0.2,0-0.5-0.1-0.7-0.1c-0.3,0-0.6-0.1-0.9-0.2c-0.6-0.1-1.3-0.2-2.1-0.4c-0.4-0.1-0.8-0.1-1.3-0.2
					c-0.4-0.1-0.9-0.1-1.4-0.2c-1.9-0.2-4-0.4-6.3-0.5c-0.3,0-0.6,0-0.9,0c-0.3,0-0.6,0-0.9,0c-0.6,0-1.2,0-1.7,0
					c-0.6,0-1.2,0-1.8,0l-0.9,0l-0.4,0l-0.4,0c-2.4,0.1-4.7,0.3-6.9,0.6c-2.2,0.3-4.2,0.7-5.9,1.1c-0.2,0-0.4,0.1-0.6,0.1
					c-0.2,0-0.4,0.1-0.6,0.1c-0.2,0.1-0.4,0.1-0.6,0.1c-0.1,0.2-0.1,0.4-0.2,0.6c-0.6,1.9-1.5,3.8-2.7,5.5c-1.2,1.7-2.7,3.2-4.3,4.4
					c-1.7,1.2-3.6,2-5.5,2.5c-1,0.2-1.9,0.3-2.9,0.4c-0.1,0-0.2,0-0.4,0c-0.1,0-0.2,0-0.4,0c-0.1,0-0.2,0-0.4,0l-0.2,0l-0.2,0
					c-0.2,0-0.5,0-0.7,0c-0.2,0-0.5,0-0.7-0.1c-0.9-0.1-1.8-0.3-2.6-0.5c-0.8-0.2-1.6-0.5-2.3-0.8c-0.7-0.3-1.4-0.7-2.1-1.1
					c-0.2-0.1-0.3-0.2-0.5-0.3c-0.1,0-0.2-0.1-0.2-0.1c-0.1-0.1-0.2-0.1-0.2-0.2c-0.1-0.1-0.3-0.2-0.4-0.3c-0.1-0.1-0.3-0.2-0.4-0.3
					c-0.3-0.2-0.5-0.4-0.8-0.6c-0.1-0.1-0.2-0.2-0.4-0.3c-0.1-0.1-0.2-0.2-0.3-0.2c0,0.2-0.1,0.4-0.1,0.5c-0.4,2.1-1.2,4.2-2.6,6.2
					c-0.7,1-1.5,1.9-2.5,2.7c-0.1,0.1-0.2,0.2-0.4,0.3c-0.1,0.1-0.2,0.2-0.4,0.3l-0.4,0.3l-0.2,0.1l-0.2,0.1l-0.4,0.2
					c-0.1,0.1-0.3,0.1-0.4,0.2c-0.3,0.2-0.6,0.3-0.9,0.4c-0.1,0.1-0.3,0.1-0.5,0.2c-0.2,0.1-0.3,0.1-0.5,0.2l-0.5,0.1
					c-0.1,0-0.2,0-0.2,0.1l-0.2,0l-0.5,0.1c-0.2,0-0.3,0-0.5,0.1c-0.3,0-0.6,0.1-1,0.1c-0.6,0-1.3,0-1.9-0.1c-0.3,0-0.6-0.1-0.9-0.2
					c-0.1,0-0.3-0.1-0.4-0.1c-0.1,0-0.3-0.1-0.4-0.1c-1.1-0.4-2.2-0.9-3.1-1.7c-0.1-0.1-0.2-0.2-0.3-0.3c-0.1-0.1-0.2-0.2-0.3-0.3
					c-0.2-0.2-0.4-0.4-0.6-0.6l-0.1-0.1l-0.1-0.1l-0.1-0.2c-0.1-0.1-0.2-0.2-0.2-0.3c-0.1-0.1-0.1-0.2-0.2-0.4
					c-0.1-0.1-0.1-0.2-0.2-0.4c-0.5-1-0.7-2.1-0.7-3c0-0.9,0.2-1.8,0.5-2.5c0.1-0.4,0.3-0.7,0.5-1c0.2-0.3,0.4-0.5,0.6-0.8
					c0.4-0.4,0.8-0.7,1.2-0.9c0.4-0.2,0.7-0.2,0.9-0.2c0.2,0,0.4,0.1,0.4,0.2c0.1,0.1,0,0.3,0,0.5c-0.1,0.2-0.2,0.4-0.3,0.7
					c-0.1,0.3-0.2,0.6-0.3,1c0,0.2-0.1,0.4-0.1,0.6c0,0.2,0,0.4,0,0.6c0,0.4,0.1,0.9,0.3,1.4c0.2,0.5,0.4,0.9,0.7,1.2
					c0,0,0.1,0.1,0.1,0.1c0,0,0.1,0.1,0.1,0.1c0,0,0.1,0.1,0.1,0.1l0.1,0.1l0,0l0,0c0.1,0.1,0.2,0.1,0.3,0.2c0.1,0,0.1,0.1,0.2,0.1
					c0.1,0,0.1,0.1,0.2,0.1c0.5,0.2,1.1,0.4,1.6,0.4c0.1,0,0.1,0,0.2,0c0.1,0,0.1,0,0.2,0c0.2,0,0.3,0,0.5,0c0.3,0,0.6-0.1,0.9-0.1
					c0.1,0,0.3-0.1,0.4-0.1c0.1,0,0.1,0,0.2-0.1l0.2-0.1l0.1,0c0,0,0.1,0,0.1,0c0.1,0,0.1-0.1,0.2-0.1c0.1,0,0.1-0.1,0.2-0.1
					c0.1,0,0.1-0.1,0.2-0.1c0.1-0.1,0.3-0.2,0.4-0.3c0.1,0,0.1-0.1,0.2-0.1l0.2-0.1l0.1-0.1l0.1-0.1l0.2-0.2l0.2-0.2
					c0.1-0.1,0.1-0.1,0.2-0.2c0.4-0.5,0.8-1,1.1-1.6c0.6-1.1,1-2.4,1.1-3.5c0.1-1.2,0-2.2-0.1-3c0-0.1,0-0.1,0-0.2
					c0-0.1,0-0.1,0-0.2c0-0.1-0.1-0.3-0.1-0.5c-0.1-0.4-0.3-0.8-0.5-1.3c-0.2-0.5-0.5-1-0.8-1.5c-0.4-0.6-0.8-1.1-1.4-1.8
					c-1.1-1.2-2.6-2.5-4.5-3.6c-1-0.5-2-1.1-3.2-1.5c-1.2-0.4-2.4-0.8-3.7-1.1c-2.6-0.6-5.6-0.9-8.7-0.9c-1.6,0-3.2,0.1-4.8,0.3
					c-0.8,0.1-1.6,0.2-2.5,0.3c-0.8,0.1-1.7,0.3-2.5,0.5c-1.7,0.3-3.4,0.7-5.1,1.2c-1.7,0.5-3.4,1-5.1,1.6
					c-3.4,1.1-6.9,2.4-10.3,3.7c-3.4,1.3-6.9,2.6-10.3,3.7c-0.4,0.1-0.9,0.3-1.3,0.4c-0.4,0.1-0.9,0.3-1.3,0.4
					c-0.9,0.3-1.7,0.5-2.6,0.7c-0.4,0.1-0.9,0.2-1.3,0.3c-0.4,0.1-0.9,0.2-1.3,0.3c-0.4,0.1-0.9,0.2-1.3,0.3
					c-0.4,0.1-0.8,0.2-1.3,0.3c-0.8,0.2-1.7,0.3-2.5,0.4c-0.4,0.1-0.8,0.1-1.3,0.2C46.8,71.9,46.4,72,46,72
					c-1.7,0.2-3.3,0.2-4.8,0.2c-3.1,0-6.1-0.3-8.8-0.9c-1.3-0.3-2.6-0.6-3.8-1c-1.2-0.4-2.3-0.8-3.3-1.3c-1-0.4-1.9-0.9-2.7-1.4
					c-0.8-0.5-1.5-1-2.2-1.4c-0.2-0.1-0.3-0.2-0.5-0.3c-0.1-0.1-0.3-0.2-0.4-0.3c-0.1-0.1-0.3-0.2-0.4-0.3c-0.1-0.1-0.2-0.2-0.4-0.3
					c-0.1-0.1-0.2-0.2-0.3-0.3c-0.1,0-0.1-0.1-0.2-0.1C18.3,64.6,18.2,64.5,18.2,64.5z"/>
			</defs>
			<clipPath id="SVGID_4_">
				<use xlink:href="#SVGID_3_"  style="overflow:visible;"/>
			</clipPath>
			<g class="st1">
				<g>
					<defs>
						<path id="SVGID_5_" d="M222.8,58.6c-0.1,0.1-0.1,0.2-0.2,0.4c0,0.1-0.1,0.1-0.1,0.2c0,0.1-0.1,0.1-0.1,0.2
							c-0.1,0.2-0.2,0.5-0.3,0.7c0,0.1-0.1,0.2-0.1,0.3c0,0.1-0.1,0.2-0.1,0.3c-0.1,0.2-0.1,0.3-0.2,0.5c-0.2,0.6-0.3,0.9-0.3,0.9
							s0.2-0.3,0.6-0.8c0.1-0.1,0.2-0.3,0.3-0.4c0.1-0.1,0.1-0.1,0.2-0.2c0.1-0.1,0.1-0.2,0.2-0.2c0.1-0.2,0.3-0.3,0.5-0.5
							c0,0,0.1-0.1,0.1-0.1c0,0,0.1-0.1,0.1-0.1c0.1-0.1,0.2-0.2,0.3-0.3c0.8-0.7,1.7-1.5,2.8-2.3c1.1-0.7,2.3-1.4,3.6-2
							c0.1,0,0.2-0.1,0.2-0.1l0.2-0.1l0.5-0.2c0.3-0.1,0.6-0.2,1-0.3c0.3-0.1,0.6-0.2,1-0.3c0.2,0,0.3-0.1,0.5-0.1
							c0.2,0,0.3-0.1,0.5-0.1c1.3-0.3,2.5-0.5,3.5-0.5c0.1,0,0.3,0,0.4,0c0.1,0,0.3,0,0.4,0c0.2,0,0.5,0,0.7,0c0.2,0,0.4,0,0.6,0
							c0.1,0,0.2,0,0.3,0c0.1,0,0.2,0,0.3,0c0.2,0,0.3,0,0.5,0c0.1,0,0.3,0,0.4,0c0.2,0,0.4,0,0.5,0c0.2,0,0.5,0,0.7-0.1
							c0.3,0,0.6-0.1,0.9-0.2c0.2,0,0.3-0.1,0.5-0.1c0.2,0,0.3-0.1,0.5-0.1c0.3-0.1,0.7-0.2,1-0.3c0.2-0.1,0.3-0.1,0.5-0.2
							c0.1,0,0.2-0.1,0.2-0.1c0.1,0,0.2-0.1,0.2-0.1c0.3-0.1,0.6-0.3,0.9-0.5c0.5-0.3,1-0.7,1.1-1.2c0.2-0.5,0-1.1-0.4-1.6
							c-0.2-0.3-0.4-0.6-0.7-0.8c-0.1-0.1-0.2-0.1-0.2-0.2c-0.1-0.1-0.2-0.1-0.2-0.2c-0.2-0.1-0.3-0.2-0.5-0.4
							c-0.4-0.2-0.8-0.4-1.2-0.6c-0.2-0.1-0.4-0.2-0.6-0.2c-0.2-0.1-0.4-0.1-0.6-0.2c-0.4-0.1-0.8-0.2-1.2-0.3c-0.4,0-0.7-0.1-1-0.1
							c-0.2,0-0.4,0-0.7,0.1c-0.2,0-0.3,0.1-0.5,0.1c-0.2,0-0.4,0.1-0.6,0.1c-0.1,0-0.2,0.1-0.4,0.1c-0.1,0-0.3,0.1-0.4,0.1
							c-0.3,0.1-0.5,0.1-0.8,0.2c-0.3,0.1-0.6,0.2-0.9,0.3c-0.2,0-0.3,0.1-0.5,0.2c-0.2,0.1-0.3,0.1-0.5,0.2c-1.3,0.5-2.7,1.2-4,2
							c-0.2,0.1-0.3,0.2-0.5,0.3c-0.2,0.1-0.3,0.2-0.5,0.3c-0.3,0.2-0.7,0.5-1,0.7c-0.3,0.3-0.6,0.5-1,0.8l-0.5,0.4l-0.2,0.2
							c-0.1,0.1-0.2,0.1-0.2,0.2c-1.2,1.1-2.3,2.3-3.1,3.4C224,56.5,223.3,57.6,222.8,58.6z M422.5,63.6c-0.1,0.1-0.3,0.2-0.4,0.4
							c-0.2,0.1-0.3,0.3-0.5,0.4c0,0-0.1,0.1-0.2,0.1c-0.1,0-0.1,0.1-0.2,0.1c-0.1,0.1-0.2,0.2-0.3,0.3c-0.1,0.1-0.2,0.2-0.4,0.3
							c-0.1,0.1-0.3,0.2-0.4,0.3c-0.1,0.1-0.3,0.2-0.4,0.3c-0.2,0.1-0.3,0.2-0.5,0.3c-0.6,0.4-1.4,0.8-2.2,1.2
							c-0.8,0.4-1.7,0.8-2.7,1.2c-1,0.4-2.1,0.7-3.3,1c-1.2,0.3-2.4,0.5-3.7,0.7c-5.2,0.7-11.5,0.4-17.9-1.3
							c-0.4-0.1-0.8-0.2-1.2-0.3c-0.4-0.1-0.8-0.2-1.2-0.4c-0.4-0.1-0.8-0.3-1.2-0.4c-0.4-0.1-0.8-0.3-1.2-0.4
							c-0.8-0.3-1.6-0.6-2.4-0.9c-0.4-0.2-0.8-0.3-1.2-0.5c-0.4-0.2-0.8-0.3-1.2-0.5c-3.3-1.3-6.6-2.8-9.9-4.3
							c-3.3-1.5-6.7-3.1-10.2-4.5c-1.7-0.7-3.5-1.4-5.2-2c-1.8-0.6-3.5-1.2-5.3-1.6c-0.9-0.2-1.8-0.5-2.7-0.7
							c-0.9-0.2-1.8-0.4-2.7-0.5c-1.8-0.3-3.6-0.6-5.3-0.7c-3.5-0.3-7-0.1-10.2,0.4c-1.6,0.3-3.2,0.7-4.7,1.1
							c-1.5,0.5-2.9,1-4.2,1.7c-2.6,1.3-4.8,2.9-6.6,4.6c-0.9,0.9-1.6,1.7-2.2,2.6c-0.6,0.9-1.1,1.7-1.5,2.5
							c-0.4,0.8-0.7,1.5-0.9,2.1c-0.1,0.3-0.2,0.6-0.3,0.9c0,0.1-0.1,0.3-0.1,0.4c0,0.1-0.1,0.2-0.1,0.3c-0.3,1.3-0.4,2.7-0.3,4.2
							c0,0,0,0-0.1,0c-0.1,0.1-0.2,0.2-0.3,0.3c-0.1,0.1-0.2,0.2-0.4,0.3c-0.1,0.1-0.2,0.2-0.4,0.3c-0.3,0.2-0.5,0.3-0.8,0.5
							c-0.1,0.1-0.3,0.2-0.4,0.2c-0.1,0.1-0.3,0.1-0.4,0.2c-0.1,0-0.1,0.1-0.2,0.1c-0.1,0-0.2,0.1-0.2,0.1c-0.2,0.1-0.3,0.1-0.5,0.2
							c-0.6,0.3-1.3,0.5-2,0.7c-0.7,0.2-1.4,0.4-2.2,0.5c-0.8,0.1-1.5,0.2-2.3,0.1c-0.2,0-0.4,0-0.6,0c-0.2,0-0.4,0-0.6,0l-0.1,0
							l-0.1,0c-0.1,0-0.2,0-0.3,0c-0.1,0-0.2,0-0.3,0c-0.1,0-0.2,0-0.3-0.1c-0.8-0.1-1.5-0.3-2.3-0.6c-1.5-0.6-2.8-1.4-4-2.5
							c-1.2-1.1-2.1-2.4-2.9-3.8c-0.7-1.4-1.2-2.9-1.5-4.4c-0.1-0.7-0.2-1.5-0.2-2.2c0-0.2,0-0.4,0-0.5c0-0.2,0-0.3,0-0.5
							c0-0.3,0.1-0.7,0.1-1c0.1-0.7,0.2-1.3,0.4-1.9c0-0.2,0.1-0.3,0.2-0.4c0.1-0.1,0.1-0.3,0.2-0.4c0.1-0.1,0.1-0.3,0.2-0.4
							c0.1-0.1,0.1-0.3,0.2-0.4c0-0.1,0.1-0.1,0.1-0.2c0-0.1,0.1-0.1,0.1-0.2c0-0.1,0.1-0.1,0.1-0.2c0-0.1,0.1-0.1,0.1-0.2
							c0.1-0.2,0.3-0.4,0.4-0.6c0.3-0.4,0.6-0.7,1-1c0.7-0.6,1.4-1,1.9-1.2c0.3-0.1,0.5-0.2,0.7-0.2c0.2,0,0.4,0,0.5,0
							c0,0,0.1,0,0.1,0c0,0,0.1,0,0.1,0c0,0,0,0,0.1,0c0,0,0,0,0.1,0c0,0,0.1,0,0.1,0c0,0,0.1,0,0.1,0c0,0,0,0,0.1,0c0,0,0,0,0.1,0
							c0,0,0,0,0.1,0c0,0,0,0,0,0c0,0,0,0,0,0c0.1,0,0.2,0.1,0.3,0.1c0,0,0.1,0,0.1,0l0,0l0,0c0,0,0,0,0,0c0.1,0,0.1,0.1,0.2,0.1
							c0.1,0.1,0.2,0.1,0.3,0.3c0.1,0.1,0.2,0.3,0.3,0.5c0.1,0.1,0.1,0.2,0.2,0.3c0,0.1,0,0.1,0.1,0.2c0,0.1,0,0.1,0.1,0.2
							c0.2,0.6,0.2,1.2,0.2,2c0,0.2,0,0.4,0,0.5l0,0.3c0,0.1,0,0.2,0,0.3l0,0.3c0,0.1,0,0.2,0,0.3c0,0.2,0,0.3-0.1,0.5
							c-0.1,0.7-0.2,1.3-0.3,1.9c-0.1,0.6-0.2,1-0.2,1.4c0,0.4,0.1,0.7,0.3,0.9c0.2,0.2,0.5,0.2,0.9,0.1c0.4-0.1,0.9-0.4,1.5-0.8
							c0.5-0.4,1.1-1,1.7-1.7c0.1-0.2,0.3-0.4,0.4-0.6c0.1-0.1,0.1-0.2,0.2-0.3c0.1-0.1,0.1-0.2,0.2-0.3c0.1-0.1,0.1-0.2,0.2-0.3
							l0.2-0.3c0.1-0.2,0.2-0.5,0.3-0.7c0.2-0.5,0.4-1.1,0.5-1.6c0.2-0.6,0.2-1.2,0.3-1.9c0-0.2,0-0.3,0-0.5c0-0.2,0-0.3,0-0.5
							c0-0.3,0-0.7-0.1-1c-0.1-0.7-0.3-1.4-0.6-2.1c-0.3-0.7-0.7-1.3-1.2-1.9c-0.2-0.3-0.5-0.6-0.8-0.8c-0.3-0.3-0.5-0.5-0.8-0.7
							c-1.1-0.8-2.4-1.3-3.5-1.5c-0.1,0-0.3,0-0.5-0.1c-0.2,0-0.4,0-0.6,0c-0.1,0-0.2,0-0.3,0c-0.1,0-0.2,0-0.4,0
							c-0.1,0-0.3,0-0.4,0c-0.1,0-0.3,0-0.4,0c-0.6,0.1-1.2,0.2-1.8,0.4c-0.6,0.2-1.2,0.5-1.9,0.8c-1.3,0.7-2.5,1.6-3.6,2.9
							c-0.6,0.6-1.1,1.3-1.6,2.1c-0.2,0.4-0.5,0.8-0.7,1.2c-0.1,0.1-0.1,0.2-0.2,0.3c-0.1,0.1-0.1,0.2-0.1,0.3
							c0,0.1-0.1,0.2-0.1,0.3c0,0.1-0.1,0.2-0.1,0.3c-0.1,0.2-0.2,0.4-0.2,0.7c-0.1,0.2-0.1,0.4-0.2,0.7c-0.1,0.2-0.1,0.5-0.2,0.7
							c-0.1,0.2-0.1,0.5-0.1,0.7c-0.2,0.9-0.3,1.9-0.3,2.9c0,0.5,0,1,0,1.5c0,0.2,0,0.5,0.1,0.7c0,0.2,0.1,0.5,0.1,0.7
							c0.1,0.5,0.2,0.9,0.3,1.4c0,0,0,0,0,0c-0.2-0.1-0.4-0.2-0.6-0.3c-0.2-0.1-0.4-0.2-0.6-0.3c-1.6-0.7-3.6-1.5-5.7-2.3
							c-2.1-0.8-4.5-1.5-6.9-2.1l-0.5-0.1l-0.5-0.1l-0.9-0.2c-0.6-0.1-1.2-0.3-1.8-0.4c-0.6-0.1-1.2-0.2-1.8-0.3
							c-0.3-0.1-0.6-0.1-0.9-0.1c-0.3,0-0.6-0.1-0.9-0.1c-2.4-0.4-4.7-0.6-6.7-0.7c-0.5,0-1-0.1-1.5-0.1c-0.5,0-0.9,0-1.4,0
							c-0.9,0-1.7,0-2.4,0c-0.4,0-0.7,0-1,0c-0.3,0-0.6,0-0.8,0c-0.5,0-0.8,0.1-1.1,0.1c-0.4,0.1-1,0.2-1.5,0.3
							c-0.5,0.1-1.1,0.3-1.7,0.5c-0.3,0.1-0.6,0.2-0.9,0.3c-0.3,0.1-0.6,0.2-0.9,0.4c-0.6,0.3-1.2,0.5-1.7,0.9
							c-0.6,0.3-1.1,0.6-1.5,0.9c-0.5,0.3-0.9,0.6-1.2,1c-0.6,0.7-1,1.3-0.8,1.8c0.1,0.5,0.7,0.9,1.6,1.1c0.4,0.1,0.9,0.2,1.4,0.3
							c0.5,0.1,1.1,0.1,1.7,0.2c0.6,0,1.2,0.1,1.8,0.1c0.3,0,0.6,0,0.9,0c0.3,0,0.6,0,0.9,0c0.6,0,1.1,0,1.6,0c0.5,0,1-0.1,1.4-0.1
							c0.2,0,0.5-0.1,0.9-0.2c0.2,0,0.5-0.1,0.7-0.1c0.3,0,0.6-0.1,0.9-0.2c0.6-0.1,1.3-0.2,2.1-0.4c0.4-0.1,0.8-0.1,1.3-0.2
							c0.4-0.1,0.9-0.1,1.4-0.2c1.9-0.2,4-0.4,6.3-0.5c0.3,0,0.6,0,0.9,0c0.3,0,0.6,0,0.9,0c0.6,0,1.2,0,1.7,0c0.6,0,1.2,0,1.8,0
							l0.9,0l0.4,0l0.4,0c2.4,0.1,4.7,0.3,6.9,0.6c2.2,0.3,4.2,0.7,5.9,1.1c0.2,0,0.4,0.1,0.6,0.1c0.2,0,0.4,0.1,0.6,0.1
							c0.2,0.1,0.4,0.1,0.6,0.1c0.1,0.2,0.1,0.4,0.2,0.6c0.6,1.9,1.5,3.8,2.7,5.5c1.2,1.7,2.7,3.2,4.3,4.4c1.7,1.2,3.6,2,5.5,2.5
							c1,0.2,1.9,0.3,2.9,0.4c0.1,0,0.2,0,0.4,0c0.1,0,0.2,0,0.4,0c0.1,0,0.2,0,0.4,0l0.2,0l0.2,0c0.2,0,0.5,0,0.7,0
							c0.2,0,0.5,0,0.7-0.1c0.9-0.1,1.8-0.3,2.6-0.5c0.8-0.2,1.6-0.5,2.3-0.8c0.7-0.3,1.4-0.7,2.1-1.1c0.2-0.1,0.3-0.2,0.5-0.3
							c0.1,0,0.2-0.1,0.2-0.1c0.1-0.1,0.2-0.1,0.2-0.2c0.1-0.1,0.3-0.2,0.4-0.3c0.1-0.1,0.3-0.2,0.4-0.3c0.3-0.2,0.5-0.4,0.8-0.6
							c0.1-0.1,0.2-0.2,0.4-0.3c0.1-0.1,0.2-0.2,0.3-0.2c0,0.2,0.1,0.4,0.1,0.5c0.4,2.1,1.2,4.2,2.6,6.2c0.7,1,1.5,1.9,2.5,2.7
							c0.1,0.1,0.2,0.2,0.4,0.3c0.1,0.1,0.2,0.2,0.4,0.3l0.4,0.3l0.2,0.1l0.2,0.1l0.4,0.2c0.1,0.1,0.3,0.1,0.4,0.2
							c0.3,0.2,0.6,0.3,0.9,0.4c0.1,0.1,0.3,0.1,0.5,0.2c0.2,0.1,0.3,0.1,0.5,0.2l0.5,0.1c0.1,0,0.2,0,0.2,0.1l0.2,0l0.5,0.1
							c0.2,0,0.3,0,0.5,0.1c0.3,0,0.6,0.1,1,0.1c0.6,0,1.3,0,1.9-0.1c0.3,0,0.6-0.1,0.9-0.2c0.1,0,0.3-0.1,0.4-0.1
							c0.1,0,0.3-0.1,0.4-0.1c1.1-0.4,2.2-0.9,3.1-1.7c0.1-0.1,0.2-0.2,0.3-0.3c0.1-0.1,0.2-0.2,0.3-0.3c0.2-0.2,0.4-0.4,0.6-0.6
							l0.1-0.1l0.1-0.1l0.1-0.2c0.1-0.1,0.2-0.2,0.2-0.3c0.1-0.1,0.1-0.2,0.2-0.4c0.1-0.1,0.1-0.2,0.2-0.4c0.5-1,0.7-2.1,0.7-3
							c0-0.9-0.2-1.8-0.5-2.5c-0.1-0.4-0.3-0.7-0.5-1c-0.2-0.3-0.4-0.5-0.6-0.8c-0.4-0.4-0.8-0.7-1.2-0.9c-0.4-0.2-0.7-0.2-0.9-0.2
							c-0.2,0-0.4,0.1-0.4,0.2c-0.1,0.1,0,0.3,0,0.5c0.1,0.2,0.2,0.4,0.3,0.7c0.1,0.3,0.2,0.6,0.3,1c0,0.2,0.1,0.4,0.1,0.6
							c0,0.2,0,0.4,0,0.6c0,0.4-0.1,0.9-0.3,1.4c-0.2,0.5-0.4,0.9-0.7,1.2c0,0-0.1,0.1-0.1,0.1c0,0-0.1,0.1-0.1,0.1
							c0,0-0.1,0.1-0.1,0.1l-0.1,0.1l0,0l0,0c-0.1,0.1-0.2,0.1-0.3,0.2c-0.1,0-0.1,0.1-0.2,0.1c-0.1,0-0.1,0.1-0.2,0.1
							c-0.5,0.2-1.1,0.4-1.6,0.4c-0.1,0-0.1,0-0.2,0c-0.1,0-0.1,0-0.2,0c-0.2,0-0.3,0-0.5,0c-0.3,0-0.6-0.1-0.9-0.1
							c-0.1,0-0.3-0.1-0.4-0.1c-0.1,0-0.1,0-0.2-0.1l-0.2-0.1l-0.1,0c0,0-0.1,0-0.1,0c-0.1,0-0.1-0.1-0.2-0.1
							c-0.1,0-0.1-0.1-0.2-0.1c-0.1,0-0.1-0.1-0.2-0.1c-0.1-0.1-0.3-0.2-0.4-0.3c-0.1,0-0.1-0.1-0.2-0.1l-0.2-0.1l-0.1-0.1l-0.1-0.1
							l-0.2-0.2l-0.2-0.2c-0.1-0.1-0.1-0.1-0.2-0.2c-0.4-0.5-0.8-1-1.1-1.6c-0.6-1.1-1-2.4-1.1-3.5c-0.1-1.2,0-2.2,0.1-3
							c0-0.1,0-0.1,0-0.2c0-0.1,0-0.1,0-0.2c0-0.1,0.1-0.3,0.1-0.5c0.1-0.4,0.3-0.8,0.5-1.3c0.2-0.5,0.5-1,0.8-1.5
							c0.4-0.6,0.8-1.1,1.4-1.8c1.1-1.2,2.6-2.5,4.5-3.6c1-0.5,2-1.1,3.2-1.5c1.2-0.4,2.4-0.8,3.7-1.1c2.6-0.6,5.6-0.9,8.7-0.9
							c1.6,0,3.2,0.1,4.8,0.3c0.8,0.1,1.6,0.2,2.5,0.3c0.8,0.1,1.7,0.3,2.5,0.5c1.7,0.3,3.4,0.7,5.1,1.2c1.7,0.5,3.4,1,5.1,1.6
							c3.4,1.1,6.9,2.4,10.3,3.7c3.4,1.3,6.9,2.6,10.3,3.7c0.4,0.1,0.9,0.3,1.3,0.4c0.4,0.1,0.9,0.3,1.3,0.4
							c0.9,0.3,1.7,0.5,2.6,0.7c0.4,0.1,0.9,0.2,1.3,0.3c0.4,0.1,0.9,0.2,1.3,0.3c0.4,0.1,0.9,0.2,1.3,0.3c0.4,0.1,0.8,0.2,1.3,0.3
							c0.9,0.2,1.7,0.3,2.5,0.4c0.4,0.1,0.8,0.1,1.3,0.2c0.4,0.1,0.8,0.1,1.2,0.1c1.7,0.2,3.3,0.2,4.8,0.2c3.1,0,6.1-0.3,8.8-0.9
							c1.3-0.3,2.6-0.6,3.8-1c1.2-0.4,2.3-0.8,3.3-1.3c1-0.4,1.9-0.9,2.7-1.4c0.8-0.5,1.5-1,2.2-1.4c0.2-0.1,0.3-0.2,0.5-0.3
							c0.1-0.1,0.3-0.2,0.4-0.3c0.1-0.1,0.3-0.2,0.4-0.3c0.1-0.1,0.2-0.2,0.4-0.3c0.1-0.1,0.2-0.2,0.3-0.3c0.1,0,0.1-0.1,0.2-0.1
							c0,0,0.1-0.1,0.1-0.1c0.2-0.2,0.4-0.3,0.5-0.5C422.3,63.9,422.4,63.7,422.5,63.6c0.1-0.1,0.2-0.2,0.3-0.2
							c0.1-0.2,0.2-0.2,0.2-0.2s-0.1,0.1-0.2,0.2C422.7,63.4,422.6,63.5,422.5,63.6z M220.6,48.3c1.8-2.7,5.1-7.5,5.3-8.2
							c0.2-0.9-0.9-3.4-2.9-3.9c-1.1-0.3-2.2,0.1-3.1,0.6c-0.9-0.5-2-0.8-3.1-0.6c-2,0.5-3.2,3-2.9,3.9c0.2,0.7,3.5,5.5,5.3,8.2
							c0.1,1,0.2,1.7,0.2,1.7s0.2-0.3,0.5-0.7c0.3,0.5,0.5,0.7,0.5,0.7S220.5,49.4,220.6,48.3z M211.7,51.7l-0.2-0.2l-0.5-0.4
							c-0.3-0.3-0.6-0.5-1-0.8c-0.3-0.2-0.7-0.5-1-0.7c-0.2-0.1-0.3-0.2-0.5-0.3c-0.2-0.1-0.3-0.2-0.5-0.3c-1.4-0.8-2.8-1.5-4-2
							c-0.2-0.1-0.3-0.1-0.5-0.2c-0.2-0.1-0.3-0.1-0.5-0.2c-0.3-0.1-0.6-0.2-0.9-0.3c-0.3-0.1-0.6-0.2-0.8-0.2
							c-0.1,0-0.3-0.1-0.4-0.1c-0.1,0-0.2-0.1-0.4-0.1c-0.2-0.1-0.5-0.1-0.6-0.1c-0.2,0-0.4-0.1-0.5-0.1c-0.3,0-0.6-0.1-0.7-0.1
							c-0.3,0-0.7,0-1,0.1c-0.4,0.1-0.8,0.1-1.2,0.3c-0.2,0.1-0.4,0.1-0.6,0.2c-0.2,0.1-0.4,0.2-0.6,0.2c-0.4,0.2-0.8,0.4-1.2,0.6
							c-0.2,0.1-0.4,0.2-0.5,0.4c-0.1,0.1-0.2,0.1-0.2,0.2c-0.1,0.1-0.2,0.1-0.2,0.2c-0.3,0.3-0.5,0.5-0.7,0.8
							c-0.4,0.6-0.5,1.1-0.4,1.6c0.1,0.5,0.6,0.9,1.1,1.2c0.3,0.2,0.6,0.3,0.9,0.5c0.1,0,0.2,0.1,0.2,0.1c0.1,0,0.2,0.1,0.2,0.1
							c0.2,0.1,0.3,0.1,0.5,0.2c0.3,0.1,0.7,0.2,1,0.3c0.2,0,0.3,0.1,0.5,0.1c0.2,0,0.3,0.1,0.5,0.1c0.3,0.1,0.6,0.2,0.9,0.2
							c0.3,0.1,0.5,0.1,0.7,0.1c0.1,0,0.3,0,0.5,0c0.1,0,0.2,0,0.4,0c0.1,0,0.3,0,0.5,0c0.1,0,0.2,0,0.3,0c0.1,0,0.2,0,0.3,0
							c0.2,0,0.4,0,0.6,0c0.2,0,0.5,0,0.7,0c0.1,0,0.2,0,0.4,0c0.1,0,0.3,0,0.4,0c1.1,0.1,2.3,0.2,3.5,0.5c0.2,0,0.3,0.1,0.5,0.1
							c0.2,0,0.3,0.1,0.5,0.1c0.3,0.1,0.6,0.2,1,0.3c0.3,0.1,0.6,0.2,1,0.3l0.5,0.2l0.2,0.1c0.1,0,0.2,0.1,0.2,0.1
							c1.3,0.6,2.5,1.2,3.6,2c1.1,0.7,2,1.5,2.8,2.3c0.1,0.1,0.2,0.2,0.3,0.3c0,0,0.1,0.1,0.1,0.1c0,0,0.1,0.1,0.1,0.1
							c0.2,0.2,0.3,0.3,0.5,0.5c0.1,0.1,0.1,0.2,0.2,0.2c0.1,0.1,0.1,0.2,0.2,0.2c0.1,0.1,0.2,0.3,0.3,0.4c0.4,0.5,0.6,0.8,0.6,0.8
							s-0.1-0.3-0.3-0.9c-0.1-0.1-0.1-0.3-0.2-0.5c0-0.1-0.1-0.2-0.1-0.3c0-0.1-0.1-0.2-0.1-0.3c-0.1-0.2-0.2-0.4-0.3-0.7
							c0-0.1-0.1-0.1-0.1-0.2c0-0.1-0.1-0.1-0.1-0.2c-0.1-0.1-0.1-0.2-0.2-0.4c-0.5-1-1.2-2.1-2.1-3.3c-0.9-1.2-1.9-2.3-3.1-3.4
							C211.8,51.8,211.8,51.8,211.7,51.7z M18.2,64.5c-0.2-0.2-0.4-0.3-0.5-0.5c-0.2-0.1-0.3-0.3-0.4-0.4c-0.1-0.1-0.2-0.2-0.3-0.3
							c-0.1-0.2-0.2-0.2-0.2-0.2s0.1,0.1,0.2,0.2c0.1,0.1,0.2,0.2,0.3,0.3c0.1,0.1,0.2,0.2,0.4,0.4c0.2,0.1,0.3,0.3,0.5,0.4
							c0,0,0.1,0.1,0.2,0.1c0.1,0,0.1,0.1,0.2,0.1c0.1,0.1,0.2,0.2,0.3,0.3c0.1,0.1,0.2,0.2,0.4,0.3c0.1,0.1,0.3,0.2,0.4,0.3
							c0.1,0.1,0.3,0.2,0.4,0.3c0.2,0.1,0.3,0.2,0.5,0.3c0.6,0.4,1.4,0.8,2.2,1.2c0.8,0.4,1.7,0.8,2.7,1.2c1,0.4,2.1,0.7,3.3,1
							c1.2,0.3,2.4,0.5,3.7,0.7c5.2,0.7,11.5,0.4,17.9-1.3c0.4-0.1,0.8-0.2,1.2-0.3c0.4-0.1,0.8-0.2,1.2-0.4
							c0.4-0.1,0.8-0.3,1.2-0.4c0.4-0.1,0.8-0.3,1.2-0.4c0.8-0.3,1.6-0.6,2.4-0.9c0.4-0.2,0.8-0.3,1.2-0.5c0.4-0.2,0.8-0.3,1.2-0.5
							c3.3-1.3,6.6-2.8,9.9-4.3c3.3-1.5,6.7-3.1,10.2-4.5c1.7-0.7,3.5-1.4,5.2-2c1.8-0.6,3.5-1.2,5.3-1.6c0.9-0.2,1.8-0.5,2.7-0.7
							c0.9-0.2,1.8-0.4,2.7-0.5c1.8-0.3,3.6-0.6,5.3-0.7c3.5-0.3,7-0.1,10.2,0.4c1.6,0.3,3.2,0.7,4.7,1.1c1.5,0.5,2.9,1,4.2,1.7
							c2.6,1.3,4.8,2.9,6.6,4.6c0.9,0.9,1.6,1.7,2.2,2.6c0.6,0.9,1.1,1.7,1.5,2.5c0.4,0.8,0.7,1.5,0.9,2.1c0.1,0.3,0.2,0.6,0.3,0.9
							c0,0.1,0.1,0.3,0.1,0.4c0,0.1,0.1,0.2,0.1,0.3c0.3,1.3,0.4,2.7,0.3,4.2c0,0,0,0,0.1,0c0.1,0.1,0.2,0.2,0.3,0.3
							c0.1,0.1,0.2,0.2,0.4,0.3c0.1,0.1,0.2,0.2,0.4,0.3c0.3,0.2,0.5,0.3,0.8,0.5c0.1,0.1,0.3,0.2,0.4,0.2c0.1,0.1,0.3,0.1,0.4,0.2
							c0.1,0,0.1,0.1,0.2,0.1c0.1,0,0.2,0.1,0.2,0.1c0.2,0.1,0.3,0.1,0.5,0.2c0.6,0.3,1.3,0.5,2,0.7c0.7,0.2,1.4,0.4,2.2,0.5
							c0.8,0.1,1.5,0.2,2.3,0.1c0.2,0,0.4,0,0.6,0c0.2,0,0.4,0,0.6,0l0.1,0l0.1,0c0.1,0,0.2,0,0.3,0c0.1,0,0.2,0,0.3,0
							c0.1,0,0.2,0,0.3-0.1c0.8-0.1,1.5-0.3,2.3-0.6c1.5-0.6,2.8-1.4,4-2.5c1.2-1.1,2.1-2.4,2.9-3.8c0.7-1.4,1.2-2.9,1.5-4.4
							c0.1-0.7,0.2-1.5,0.2-2.2c0-0.2,0-0.4,0-0.5c0-0.2,0-0.3,0-0.5c0-0.3-0.1-0.7-0.1-1c-0.1-0.7-0.2-1.3-0.4-1.9
							c0-0.2-0.1-0.3-0.2-0.4c-0.1-0.1-0.1-0.3-0.2-0.4c-0.1-0.1-0.1-0.3-0.2-0.4c-0.1-0.1-0.1-0.3-0.2-0.4c0-0.1-0.1-0.1-0.1-0.2
							c0-0.1-0.1-0.1-0.1-0.2c0-0.1-0.1-0.1-0.1-0.2c0-0.1-0.1-0.1-0.1-0.2c-0.1-0.2-0.3-0.4-0.4-0.6c-0.3-0.4-0.6-0.7-1-1
							c-0.7-0.6-1.4-1-1.9-1.2c-0.3-0.1-0.5-0.2-0.7-0.2c-0.2,0-0.4,0-0.5,0c0,0-0.1,0-0.1,0c0,0-0.1,0-0.1,0c0,0,0,0-0.1,0
							c0,0,0,0-0.1,0c0,0-0.1,0-0.1,0c0,0-0.1,0-0.1,0c0,0,0,0-0.1,0c0,0,0,0-0.1,0c0,0,0,0-0.1,0c0,0,0,0,0,0c0,0,0,0,0,0
							c-0.1,0-0.2,0.1-0.3,0.1c0,0-0.1,0-0.1,0l0,0l0,0c0,0,0,0,0,0c-0.1,0-0.1,0.1-0.2,0.1c-0.1,0.1-0.2,0.1-0.3,0.3
							c-0.1,0.1-0.2,0.3-0.3,0.5c-0.1,0.1-0.1,0.2-0.2,0.3c0,0.1,0,0.1-0.1,0.2c0,0.1,0,0.1-0.1,0.2c-0.2,0.6-0.2,1.2-0.2,2
							c0,0.2,0,0.4,0,0.5l0,0.3c0,0.1,0,0.2,0,0.3l0,0.3c0,0.1,0,0.2,0,0.3c0,0.2,0,0.3,0.1,0.5c0.1,0.7,0.2,1.3,0.3,1.9
							c0.1,0.6,0.2,1,0.2,1.4c0,0.4-0.1,0.7-0.3,0.9c-0.2,0.2-0.5,0.2-0.9,0.1c-0.4-0.1-0.9-0.4-1.5-0.8c-0.5-0.4-1.1-1-1.7-1.7
							c-0.1-0.2-0.3-0.4-0.4-0.6c-0.1-0.1-0.1-0.2-0.2-0.3c-0.1-0.1-0.1-0.2-0.2-0.3c-0.1-0.1-0.1-0.2-0.2-0.3l-0.2-0.3
							c-0.1-0.2-0.2-0.5-0.3-0.7c-0.2-0.5-0.4-1.1-0.5-1.6c-0.2-0.6-0.2-1.2-0.3-1.9c0-0.2,0-0.3,0-0.5c0-0.2,0-0.3,0-0.5
							c0-0.3,0-0.7,0.1-1c0.1-0.7,0.3-1.4,0.6-2.1c0.3-0.7,0.7-1.3,1.2-1.9c0.2-0.3,0.5-0.6,0.8-0.8c0.3-0.3,0.5-0.5,0.8-0.7
							c1.1-0.8,2.4-1.3,3.5-1.5c0.1,0,0.3,0,0.5-0.1c0.2,0,0.4,0,0.6,0c0.1,0,0.2,0,0.3,0c0.1,0,0.2,0,0.4,0c0.1,0,0.3,0,0.4,0
							c0.1,0,0.3,0,0.4,0c0.6,0.1,1.2,0.2,1.8,0.4c0.6,0.2,1.2,0.5,1.9,0.8c1.3,0.7,2.5,1.6,3.6,2.9c0.6,0.6,1.1,1.3,1.6,2.1
							c0.2,0.4,0.5,0.8,0.7,1.2c0.1,0.1,0.1,0.2,0.2,0.3c0.1,0.1,0.1,0.2,0.1,0.3c0,0.1,0.1,0.2,0.1,0.3c0,0.1,0.1,0.2,0.1,0.3
							c0.1,0.2,0.2,0.4,0.2,0.7c0.1,0.2,0.1,0.4,0.2,0.7c0.1,0.2,0.1,0.5,0.2,0.7c0.1,0.2,0.1,0.5,0.1,0.7c0.2,0.9,0.3,1.9,0.3,2.9
							c0,0.5,0,1,0,1.5c0,0.2,0,0.5-0.1,0.7c0,0.2-0.1,0.5-0.1,0.7c-0.1,0.5-0.2,0.9-0.3,1.4c0,0,0,0,0,0c0.2-0.1,0.4-0.2,0.6-0.3
							c0.2-0.1,0.4-0.2,0.6-0.3c1.6-0.7,3.6-1.5,5.7-2.3c2.1-0.8,4.5-1.5,6.9-2.1l0.5-0.1l0.5-0.1l0.9-0.2c0.6-0.1,1.2-0.3,1.8-0.4
							c0.6-0.1,1.2-0.2,1.8-0.3c0.3-0.1,0.6-0.1,0.9-0.1c0.3,0,0.6-0.1,0.9-0.1c2.4-0.4,4.7-0.6,6.7-0.7c0.5,0,1-0.1,1.5-0.1
							c0.5,0,0.9,0,1.4,0c0.9,0,1.7,0,2.4,0c0.4,0,0.7,0,1,0c0.3,0,0.6,0,0.8,0c0.5,0,0.8,0.1,1.1,0.1c0.4,0.1,1,0.2,1.5,0.3
							c0.5,0.1,1.1,0.3,1.7,0.5c0.3,0.1,0.6,0.2,0.9,0.3c0.3,0.1,0.6,0.2,0.9,0.4c0.6,0.3,1.2,0.5,1.7,0.9c0.6,0.3,1.1,0.6,1.5,0.9
							c0.5,0.3,0.9,0.6,1.2,1c0.6,0.7,1,1.3,0.8,1.8c-0.1,0.5-0.7,0.9-1.6,1.1c-0.4,0.1-0.9,0.2-1.4,0.3c-0.5,0.1-1.1,0.1-1.7,0.2
							c-0.6,0-1.2,0.1-1.8,0.1c-0.3,0-0.6,0-0.9,0c-0.3,0-0.6,0-0.9,0c-0.6,0-1.1,0-1.6,0c-0.5,0-1-0.1-1.4-0.1
							c-0.2,0-0.5-0.1-0.9-0.2c-0.2,0-0.5-0.1-0.7-0.1c-0.3,0-0.6-0.1-0.9-0.2c-0.6-0.1-1.3-0.2-2.1-0.4c-0.4-0.1-0.8-0.1-1.3-0.2
							c-0.4-0.1-0.9-0.1-1.4-0.2c-1.9-0.2-4-0.4-6.3-0.5c-0.3,0-0.6,0-0.9,0c-0.3,0-0.6,0-0.9,0c-0.6,0-1.2,0-1.7,0
							c-0.6,0-1.2,0-1.8,0l-0.9,0l-0.4,0l-0.4,0c-2.4,0.1-4.7,0.3-6.9,0.6c-2.2,0.3-4.2,0.7-5.9,1.1c-0.2,0-0.4,0.1-0.6,0.1
							c-0.2,0-0.4,0.1-0.6,0.1c-0.2,0.1-0.4,0.1-0.6,0.1c-0.1,0.2-0.1,0.4-0.2,0.6c-0.6,1.9-1.5,3.8-2.7,5.5
							c-1.2,1.7-2.7,3.2-4.3,4.4c-1.7,1.2-3.6,2-5.5,2.5c-1,0.2-1.9,0.3-2.9,0.4c-0.1,0-0.2,0-0.4,0c-0.1,0-0.2,0-0.4,0
							c-0.1,0-0.2,0-0.4,0l-0.2,0l-0.2,0c-0.2,0-0.5,0-0.7,0c-0.2,0-0.5,0-0.7-0.1c-0.9-0.1-1.8-0.3-2.6-0.5
							c-0.8-0.2-1.6-0.5-2.3-0.8c-0.7-0.3-1.4-0.7-2.1-1.1c-0.2-0.1-0.3-0.2-0.5-0.3c-0.1,0-0.2-0.1-0.2-0.1
							c-0.1-0.1-0.2-0.1-0.2-0.2c-0.1-0.1-0.3-0.2-0.4-0.3c-0.1-0.1-0.3-0.2-0.4-0.3c-0.3-0.2-0.5-0.4-0.8-0.6
							c-0.1-0.1-0.2-0.2-0.4-0.3c-0.1-0.1-0.2-0.2-0.3-0.2c0,0.2-0.1,0.4-0.1,0.5c-0.4,2.1-1.2,4.2-2.6,6.2c-0.7,1-1.5,1.9-2.5,2.7
							c-0.1,0.1-0.2,0.2-0.4,0.3c-0.1,0.1-0.2,0.2-0.4,0.3l-0.4,0.3l-0.2,0.1l-0.2,0.1l-0.4,0.2c-0.1,0.1-0.3,0.1-0.4,0.2
							c-0.3,0.2-0.6,0.3-0.9,0.4c-0.1,0.1-0.3,0.1-0.5,0.2c-0.2,0.1-0.3,0.1-0.5,0.2l-0.5,0.1c-0.1,0-0.2,0-0.2,0.1l-0.2,0l-0.5,0.1
							c-0.2,0-0.3,0-0.5,0.1c-0.3,0-0.6,0.1-1,0.1c-0.6,0-1.3,0-1.9-0.1c-0.3,0-0.6-0.1-0.9-0.2c-0.1,0-0.3-0.1-0.4-0.1
							c-0.1,0-0.3-0.1-0.4-0.1c-1.1-0.4-2.2-0.9-3.1-1.7c-0.1-0.1-0.2-0.2-0.3-0.3c-0.1-0.1-0.2-0.2-0.3-0.3
							c-0.2-0.2-0.4-0.4-0.6-0.6l-0.1-0.1l-0.1-0.1l-0.1-0.2c-0.1-0.1-0.2-0.2-0.2-0.3c-0.1-0.1-0.1-0.2-0.2-0.4
							c-0.1-0.1-0.1-0.2-0.2-0.4c-0.5-1-0.7-2.1-0.7-3c0-0.9,0.2-1.8,0.5-2.5c0.1-0.4,0.3-0.7,0.5-1c0.2-0.3,0.4-0.5,0.6-0.8
							c0.4-0.4,0.8-0.7,1.2-0.9c0.4-0.2,0.7-0.2,0.9-0.2c0.2,0,0.4,0.1,0.4,0.2c0.1,0.1,0,0.3,0,0.5c-0.1,0.2-0.2,0.4-0.3,0.7
							c-0.1,0.3-0.2,0.6-0.3,1c0,0.2-0.1,0.4-0.1,0.6c0,0.2,0,0.4,0,0.6c0,0.4,0.1,0.9,0.3,1.4c0.2,0.5,0.4,0.9,0.7,1.2
							c0,0,0.1,0.1,0.1,0.1c0,0,0.1,0.1,0.1,0.1c0,0,0.1,0.1,0.1,0.1l0.1,0.1l0,0l0,0c0.1,0.1,0.2,0.1,0.3,0.2
							c0.1,0,0.1,0.1,0.2,0.1c0.1,0,0.1,0.1,0.2,0.1c0.5,0.2,1.1,0.4,1.6,0.4c0.1,0,0.1,0,0.2,0c0.1,0,0.1,0,0.2,0
							c0.2,0,0.3,0,0.5,0c0.3,0,0.6-0.1,0.9-0.1c0.1,0,0.3-0.1,0.4-0.1c0.1,0,0.1,0,0.2-0.1l0.2-0.1l0.1,0c0,0,0.1,0,0.1,0
							c0.1,0,0.1-0.1,0.2-0.1c0.1,0,0.1-0.1,0.2-0.1c0.1,0,0.1-0.1,0.2-0.1c0.1-0.1,0.3-0.2,0.4-0.3c0.1,0,0.1-0.1,0.2-0.1l0.2-0.1
							l0.1-0.1l0.1-0.1l0.2-0.2l0.2-0.2c0.1-0.1,0.1-0.1,0.2-0.2c0.4-0.5,0.8-1,1.1-1.6c0.6-1.1,1-2.4,1.1-3.5c0.1-1.2,0-2.2-0.1-3
							c0-0.1,0-0.1,0-0.2c0-0.1,0-0.1,0-0.2c0-0.1-0.1-0.3-0.1-0.5c-0.1-0.4-0.3-0.8-0.5-1.3c-0.2-0.5-0.5-1-0.8-1.5
							c-0.4-0.6-0.8-1.1-1.4-1.8c-1.1-1.2-2.6-2.5-4.5-3.6c-1-0.5-2-1.1-3.2-1.5c-1.2-0.4-2.4-0.8-3.7-1.1c-2.6-0.6-5.6-0.9-8.7-0.9
							c-1.6,0-3.2,0.1-4.8,0.3c-0.8,0.1-1.6,0.2-2.5,0.3c-0.8,0.1-1.7,0.3-2.5,0.5c-1.7,0.3-3.4,0.7-5.1,1.2c-1.7,0.5-3.4,1-5.1,1.6
							c-3.4,1.1-6.9,2.4-10.3,3.7c-3.4,1.3-6.9,2.6-10.3,3.7c-0.4,0.1-0.9,0.3-1.3,0.4c-0.4,0.1-0.9,0.3-1.3,0.4
							c-0.9,0.3-1.7,0.5-2.6,0.7c-0.4,0.1-0.9,0.2-1.3,0.3c-0.4,0.1-0.9,0.2-1.3,0.3c-0.4,0.1-0.9,0.2-1.3,0.3
							c-0.4,0.1-0.8,0.2-1.3,0.3c-0.8,0.2-1.7,0.3-2.5,0.4c-0.4,0.1-0.8,0.1-1.3,0.2C46.8,71.9,46.4,72,46,72
							c-1.7,0.2-3.3,0.2-4.8,0.2c-3.1,0-6.1-0.3-8.8-0.9c-1.3-0.3-2.6-0.6-3.8-1c-1.2-0.4-2.3-0.8-3.3-1.3c-1-0.4-1.9-0.9-2.7-1.4
							c-0.8-0.5-1.5-1-2.2-1.4c-0.2-0.1-0.3-0.2-0.5-0.3c-0.1-0.1-0.3-0.2-0.4-0.3c-0.1-0.1-0.3-0.2-0.4-0.3
							c-0.1-0.1-0.2-0.2-0.4-0.3c-0.1-0.1-0.2-0.2-0.3-0.3c-0.1,0-0.1-0.1-0.2-0.1C18.3,64.6,18.2,64.5,18.2,64.5"/>
					</defs>
					<clipPath id="SVGID_6_">
						<use xlink:href="#SVGID_5_"  style="overflow:visible;"/>
					</clipPath>
					<g class="st2">
						
							<linearGradient id="SVGID_7_" gradientUnits="userSpaceOnUse" x1="2413.2939" y1="2536.2681" x2="2413.394" y2="2536.2681" gradientTransform="matrix(4060.78 0 0 -4060.78 -9799839 10299287)">
							<stop  offset="0" style="stop-color:#B0881D"/>
							<stop  offset="3.906250e-03" style="stop-color:#B1891D"/>
							<stop  offset="7.812500e-03" style="stop-color:#B28A1D"/>
							<stop  offset="1.171870e-02" style="stop-color:#B38C1E"/>
							<stop  offset="1.562500e-02" style="stop-color:#B48E1E"/>
							<stop  offset="1.953120e-02" style="stop-color:#B48F20"/>
							<stop  offset="2.343750e-02" style="stop-color:#B59121"/>
							<stop  offset="2.734370e-02" style="stop-color:#B69222"/>
							<stop  offset="3.125000e-02" style="stop-color:#B79423"/>
							<stop  offset="3.515620e-02" style="stop-color:#B99525"/>
							<stop  offset="3.906250e-02" style="stop-color:#BA9726"/>
							<stop  offset="4.296870e-02" style="stop-color:#BB9827"/>
							<stop  offset="4.687500e-02" style="stop-color:#BB9928"/>
							<stop  offset="5.078120e-02" style="stop-color:#BD9B29"/>
							<stop  offset="5.468750e-02" style="stop-color:#BE9D2A"/>
							<stop  offset="5.859370e-02" style="stop-color:#BF9F2B"/>
							<stop  offset="6.250000e-02" style="stop-color:#C0A02C"/>
							<stop  offset="6.640620e-02" style="stop-color:#C1A22D"/>
							<stop  offset="7.031250e-02" style="stop-color:#C2A42E"/>
							<stop  offset="7.421870e-02" style="stop-color:#C3A52F"/>
							<stop  offset="7.812500e-02" style="stop-color:#C4A62F"/>
							<stop  offset="8.203121e-02" style="stop-color:#C5A830"/>
							<stop  offset="8.593750e-02" style="stop-color:#C6A931"/>
							<stop  offset="8.984371e-02" style="stop-color:#C7AB32"/>
							<stop  offset="9.375000e-02" style="stop-color:#C7AC32"/>
							<stop  offset="9.765621e-02" style="stop-color:#C8AD33"/>
							<stop  offset="0.1016" style="stop-color:#C9AF33"/>
							<stop  offset="0.1055" style="stop-color:#CAB134"/>
							<stop  offset="0.1094" style="stop-color:#CBB235"/>
							<stop  offset="0.1133" style="stop-color:#CCB436"/>
							<stop  offset="0.1172" style="stop-color:#CDB636"/>
							<stop  offset="0.1211" style="stop-color:#CEB737"/>
							<stop  offset="0.125" style="stop-color:#CFB937"/>
							<stop  offset="0.1289" style="stop-color:#D0BA38"/>
							<stop  offset="0.1328" style="stop-color:#D0BB38"/>
							<stop  offset="0.1367" style="stop-color:#D2BD39"/>
							<stop  offset="0.1406" style="stop-color:#D3BE39"/>
							<stop  offset="0.1445" style="stop-color:#D4C03A"/>
							<stop  offset="0.1484" style="stop-color:#D5C23B"/>
							<stop  offset="0.1523" style="stop-color:#D6C33C"/>
							<stop  offset="0.1562" style="stop-color:#D7C53C"/>
							<stop  offset="0.1602" style="stop-color:#D8C63D"/>
							<stop  offset="0.1641" style="stop-color:#D9C83D"/>
							<stop  offset="0.168" style="stop-color:#DAC93E"/>
							<stop  offset="0.1719" style="stop-color:#DBCB3F"/>
							<stop  offset="0.1758" style="stop-color:#DDCD40"/>
							<stop  offset="0.1797" style="stop-color:#DECF42"/>
							<stop  offset="0.1836" style="stop-color:#DFD142"/>
							<stop  offset="0.1875" style="stop-color:#E0D343"/>
							<stop  offset="0.1914" style="stop-color:#E1D544"/>
							<stop  offset="0.1953" style="stop-color:#E2D645"/>
							<stop  offset="0.1992" style="stop-color:#E2D846"/>
							<stop  offset="0.2031" style="stop-color:#E3D947"/>
							<stop  offset="0.207" style="stop-color:#E4DB48"/>
							<stop  offset="0.2109" style="stop-color:#E5DD49"/>
							<stop  offset="0.2148" style="stop-color:#E7DE4A"/>
							<stop  offset="0.2188" style="stop-color:#E8DF4A"/>
							<stop  offset="0.2227" style="stop-color:#E9E14B"/>
							<stop  offset="0.2266" style="stop-color:#EAE34C"/>
							<stop  offset="0.2305" style="stop-color:#EBE44D"/>
							<stop  offset="0.2344" style="stop-color:#EBE64D"/>
							<stop  offset="0.2383" style="stop-color:#ECE74E"/>
							<stop  offset="0.2422" style="stop-color:#EDE94F"/>
							<stop  offset="0.2461" style="stop-color:#EEEA50"/>
							<stop  offset="0.25" style="stop-color:#EFEC50"/>
							<stop  offset="0.2539" style="stop-color:#F0ED51"/>
							<stop  offset="0.2578" style="stop-color:#F1EE52"/>
							<stop  offset="0.2617" style="stop-color:#F2EF53"/>
							<stop  offset="0.2656" style="stop-color:#F3F154"/>
							<stop  offset="0.2695" style="stop-color:#F4F255"/>
							<stop  offset="0.2734" style="stop-color:#F5F356"/>
							<stop  offset="0.2773" style="stop-color:#F4F255"/>
							<stop  offset="0.2812" style="stop-color:#F2F055"/>
							<stop  offset="0.2852" style="stop-color:#F1EF54"/>
							<stop  offset="0.2891" style="stop-color:#F0EE53"/>
							<stop  offset="0.293" style="stop-color:#EFEC53"/>
							<stop  offset="0.2969" style="stop-color:#EEEA52"/>
							<stop  offset="0.3008" style="stop-color:#EDE951"/>
							<stop  offset="0.3047" style="stop-color:#EBE750"/>
							<stop  offset="0.3086" style="stop-color:#EAE64F"/>
							<stop  offset="0.3125" style="stop-color:#EAE54E"/>
							<stop  offset="0.3164" style="stop-color:#E9E34E"/>
							<stop  offset="0.3203" style="stop-color:#E8E24D"/>
							<stop  offset="0.3242" style="stop-color:#E6E04C"/>
							<stop  offset="0.3281" style="stop-color:#E5DE4C"/>
							<stop  offset="0.332" style="stop-color:#E4DC4B"/>
							<stop  offset="0.3359" style="stop-color:#E3DB4B"/>
							<stop  offset="0.3398" style="stop-color:#E2D94A"/>
							<stop  offset="0.3438" style="stop-color:#E1D84A"/>
							<stop  offset="0.3477" style="stop-color:#E0D649"/>
							<stop  offset="0.3516" style="stop-color:#DED449"/>
							<stop  offset="0.3555" style="stop-color:#DED349"/>
							<stop  offset="0.3594" style="stop-color:#DDD148"/>
							<stop  offset="0.3633" style="stop-color:#DBCF47"/>
							<stop  offset="0.3672" style="stop-color:#D9CC47"/>
							<stop  offset="0.3711" style="stop-color:#D8CB46"/>
							<stop  offset="0.375" style="stop-color:#D7C945"/>
							<stop  offset="0.3789" style="stop-color:#D6C745"/>
							<stop  offset="0.3828" style="stop-color:#D4C545"/>
							<stop  offset="0.3867" style="stop-color:#D4C445"/>
							<stop  offset="0.3906" style="stop-color:#D3C345"/>
							<stop  offset="0.3945" style="stop-color:#D1C144"/>
							<stop  offset="0.3984" style="stop-color:#D0BF43"/>
							<stop  offset="0.4023" style="stop-color:#CFBE42"/>
							<stop  offset="0.4062" style="stop-color:#CEBC42"/>
							<stop  offset="0.4102" style="stop-color:#CDBA41"/>
							<stop  offset="0.4141" style="stop-color:#CBB940"/>
							<stop  offset="0.418" style="stop-color:#CAB73F"/>
							<stop  offset="0.4219" style="stop-color:#C9B53F"/>
							<stop  offset="0.4258" style="stop-color:#C8B43E"/>
							<stop  offset="0.4297" style="stop-color:#C8B33D"/>
							<stop  offset="0.4336" style="stop-color:#C6B13C"/>
							<stop  offset="0.4375" style="stop-color:#C5AF3C"/>
							<stop  offset="0.4414" style="stop-color:#C4AE3B"/>
							<stop  offset="0.4453" style="stop-color:#C3AC3B"/>
							<stop  offset="0.4492" style="stop-color:#C2AB3A"/>
							<stop  offset="0.4531" style="stop-color:#C2AA3A"/>
							<stop  offset="0.457" style="stop-color:#C1A839"/>
							<stop  offset="0.4609" style="stop-color:#C0A639"/>
							<stop  offset="0.4648" style="stop-color:#BEA539"/>
							<stop  offset="0.4688" style="stop-color:#BDA438"/>
							<stop  offset="0.4727" style="stop-color:#BBA137"/>
							<stop  offset="0.4766" style="stop-color:#BA9F36"/>
							<stop  offset="0.4805" style="stop-color:#B99E36"/>
							<stop  offset="0.4844" style="stop-color:#B89C35"/>
							<stop  offset="0.4883" style="stop-color:#B79A35"/>
							<stop  offset="0.4922" style="stop-color:#B69934"/>
							<stop  offset="0.4961" style="stop-color:#B59734"/>
							<stop  offset="0.5" style="stop-color:#B49633"/>
							<stop  offset="0.5039" style="stop-color:#B29433"/>
							<stop  offset="0.5078" style="stop-color:#B19234"/>
							<stop  offset="0.5117" style="stop-color:#B09133"/>
							<stop  offset="0.5156" style="stop-color:#AF8F32"/>
							<stop  offset="0.5195" style="stop-color:#AD8E32"/>
							<stop  offset="0.5234" style="stop-color:#AC8C31"/>
							<stop  offset="0.5273" style="stop-color:#AB8A30"/>
							<stop  offset="0.5312" style="stop-color:#AA8930"/>
							<stop  offset="0.5352" style="stop-color:#A9872F"/>
							<stop  offset="0.5391" style="stop-color:#A8862E"/>
							<stop  offset="0.543" style="stop-color:#A7842D"/>
							<stop  offset="0.5469" style="stop-color:#A6822D"/>
							<stop  offset="0.5508" style="stop-color:#A5812C"/>
							<stop  offset="0.5547" style="stop-color:#A47F2B"/>
							<stop  offset="0.5586" style="stop-color:#A27D2A"/>
							<stop  offset="0.5625" style="stop-color:#A17B29"/>
							<stop  offset="0.5664" style="stop-color:#A07A29"/>
							<stop  offset="0.5703" style="stop-color:#9F7828"/>
							<stop  offset="0.5742" style="stop-color:#9E7628"/>
							<stop  offset="0.5781" style="stop-color:#9D7527"/>
							<stop  offset="0.582" style="stop-color:#9C7327"/>
							<stop  offset="0.5859" style="stop-color:#9B7126"/>
							<stop  offset="0.5898" style="stop-color:#997026"/>
							<stop  offset="0.5938" style="stop-color:#986E25"/>
							<stop  offset="0.5977" style="stop-color:#976C25"/>
							<stop  offset="0.6016" style="stop-color:#966B24"/>
							<stop  offset="0.6055" style="stop-color:#956924"/>
							<stop  offset="0.6094" style="stop-color:#946823"/>
							<stop  offset="0.6133" style="stop-color:#936623"/>
							<stop  offset="0.6172" style="stop-color:#916523"/>
							<stop  offset="0.6211" style="stop-color:#906322"/>
							<stop  offset="0.625" style="stop-color:#8F6121"/>
							<stop  offset="0.6289" style="stop-color:#8E6021"/>
							<stop  offset="0.6328" style="stop-color:#8D5E20"/>
							<stop  offset="0.6367" style="stop-color:#8C5D1F"/>
							<stop  offset="0.6406" style="stop-color:#8A5B1F"/>
							<stop  offset="0.6445" style="stop-color:#89591E"/>
							<stop  offset="0.6484" style="stop-color:#88581E"/>
							<stop  offset="0.6523" style="stop-color:#87561D"/>
							<stop  offset="0.6562" style="stop-color:#86551D"/>
							<stop  offset="0.6602" style="stop-color:#86541D"/>
							<stop  offset="0.6641" style="stop-color:#85531D"/>
							<stop  offset="0.668" style="stop-color:#86551D"/>
							<stop  offset="0.6719" style="stop-color:#88561D"/>
							<stop  offset="0.6758" style="stop-color:#89581D"/>
							<stop  offset="0.6797" style="stop-color:#8A591D"/>
							<stop  offset="0.6836" style="stop-color:#8B5B1E"/>
							<stop  offset="0.6875" style="stop-color:#8D5C1E"/>
							<stop  offset="0.6914" style="stop-color:#8E5E1E"/>
							<stop  offset="0.6953" style="stop-color:#8F5F1F"/>
							<stop  offset="0.6992" style="stop-color:#906120"/>
							<stop  offset="0.7031" style="stop-color:#916321"/>
							<stop  offset="0.707" style="stop-color:#936421"/>
							<stop  offset="0.7109" style="stop-color:#946621"/>
							<stop  offset="0.7148" style="stop-color:#956722"/>
							<stop  offset="0.7188" style="stop-color:#976922"/>
							<stop  offset="0.7227" style="stop-color:#986B22"/>
							<stop  offset="0.7266" style="stop-color:#996C22"/>
							<stop  offset="0.7305" style="stop-color:#9A6E23"/>
							<stop  offset="0.7344" style="stop-color:#9C6F23"/>
							<stop  offset="0.7383" style="stop-color:#9D7123"/>
							<stop  offset="0.7422" style="stop-color:#9E7324"/>
							<stop  offset="0.7461" style="stop-color:#9F7424"/>
							<stop  offset="0.75" style="stop-color:#A17624"/>
							<stop  offset="0.7539" style="stop-color:#A27825"/>
							<stop  offset="0.7578" style="stop-color:#A37926"/>
							<stop  offset="0.7617" style="stop-color:#A57B26"/>
							<stop  offset="0.7656" style="stop-color:#A67D27"/>
							<stop  offset="0.7695" style="stop-color:#A77E28"/>
							<stop  offset="0.7734" style="stop-color:#A88029"/>
							<stop  offset="0.7773" style="stop-color:#AA822A"/>
							<stop  offset="0.7812" style="stop-color:#AB832A"/>
							<stop  offset="0.7852" style="stop-color:#AD852B"/>
							<stop  offset="0.7891" style="stop-color:#AE872B"/>
							<stop  offset="0.793" style="stop-color:#AF882B"/>
							<stop  offset="0.7969" style="stop-color:#B08A2B"/>
							<stop  offset="0.8008" style="stop-color:#B18B2B"/>
							<stop  offset="0.8047" style="stop-color:#B28D2B"/>
							<stop  offset="0.8086" style="stop-color:#B38F2C"/>
							<stop  offset="0.8125" style="stop-color:#B4902C"/>
							<stop  offset="0.8164" style="stop-color:#B6922C"/>
							<stop  offset="0.8203" style="stop-color:#B7932C"/>
							<stop  offset="0.8242" style="stop-color:#B9952D"/>
							<stop  offset="0.8281" style="stop-color:#BA972D"/>
							<stop  offset="0.832" style="stop-color:#BB982E"/>
							<stop  offset="0.8359" style="stop-color:#BC992E"/>
							<stop  offset="0.8398" style="stop-color:#BE9B2F"/>
							<stop  offset="0.8438" style="stop-color:#BF9C2F"/>
							<stop  offset="0.8477" style="stop-color:#C09E30"/>
							<stop  offset="0.8516" style="stop-color:#C1A031"/>
							<stop  offset="0.8555" style="stop-color:#C3A232"/>
							<stop  offset="0.8594" style="stop-color:#C5A432"/>
							<stop  offset="0.8633" style="stop-color:#C6A533"/>
							<stop  offset="0.8672" style="stop-color:#C6A634"/>
							<stop  offset="0.8711" style="stop-color:#C8A835"/>
							<stop  offset="0.875" style="stop-color:#C9AA35"/>
							<stop  offset="0.8789" style="stop-color:#CAAB36"/>
							<stop  offset="0.8828" style="stop-color:#CBAC36"/>
							<stop  offset="0.8867" style="stop-color:#CCAE36"/>
							<stop  offset="0.8906" style="stop-color:#CEB037"/>
							<stop  offset="0.8945" style="stop-color:#CFB137"/>
							<stop  offset="0.8984" style="stop-color:#D0B237"/>
							<stop  offset="0.9023" style="stop-color:#D2B437"/>
							<stop  offset="0.9062" style="stop-color:#D3B637"/>
							<stop  offset="0.9102" style="stop-color:#D4B737"/>
							<stop  offset="0.9141" style="stop-color:#D5B938"/>
							<stop  offset="0.918" style="stop-color:#D6BA38"/>
							<stop  offset="0.9219" style="stop-color:#D8BC38"/>
							<stop  offset="0.9258" style="stop-color:#D9BE38"/>
							<stop  offset="0.9297" style="stop-color:#DAC039"/>
							<stop  offset="0.9336" style="stop-color:#DCC13A"/>
							<stop  offset="0.9375" style="stop-color:#DDC23A"/>
							<stop  offset="0.9414" style="stop-color:#DAC039"/>
							<stop  offset="0.9453" style="stop-color:#D7BE38"/>
							<stop  offset="0.9492" style="stop-color:#CAB236"/>
							<stop  offset="0.9531" style="stop-color:#BEA734"/>
							<stop  offset="0.957" style="stop-color:#AF9A31"/>
							<stop  offset="0.9609" style="stop-color:#A28E2F"/>
							<stop  offset="0.9648" style="stop-color:#94812C"/>
							<stop  offset="0.9688" style="stop-color:#877529"/>
							<stop  offset="0.9727" style="stop-color:#7A6726"/>
							<stop  offset="0.9766" style="stop-color:#6D5B23"/>
							<stop  offset="0.9805" style="stop-color:#614F21"/>
							<stop  offset="0.9844" style="stop-color:#55431E"/>
							<stop  offset="0.9883" style="stop-color:#48371D"/>
							<stop  offset="0.9922" style="stop-color:#3B2C1A"/>
							<stop  offset="0.9961" style="stop-color:#302318"/>
							<stop  offset="1" style="stop-color:#251B15"/>
						</linearGradient>
						<path class="st3" d="M16.8,35.9v49.5H423V35.9H16.8z"/>
					</g>
				</g>
			</g>
		</g>
	</g>
</g>
</svg>
