<?xml version="1.0" encoding="utf-8"?>
<!-- Generator: Adobe Illustrator 25.1.0, SVG Export Plug-In . SVG Version: 6.00 Build 0)  -->
<svg version="1.1" id="Layer_1" xmlns="http://www.w3.org/2000/svg" xmlns:xlink="http://www.w3.org/1999/xlink" x="0px" y="0px"
	 viewBox="0 0 461.7 79.2" style="enable-background:new 0 0 461.7 79.2;" xml:space="preserve">
<style type="text/css">
	.st0{fill-rule:evenodd;clip-rule:evenodd;fill:url(#SVGID_1_);}
	.st1{fill:url(#SVGID_2_);}
	.st2{fill:url(#SVGID_3_);}
	.st3{fill:url(#SVGID_4_);}
	.st4{fill-rule:evenodd;clip-rule:evenodd;fill:url(#SVGID_5_);}
	.st5{fill-rule:evenodd;clip-rule:evenodd;fill:url(#SVGID_6_);}
	.st6{fill:url(#SVGID_7_);}
	.st7{fill-rule:evenodd;clip-rule:evenodd;fill:url(#SVGID_8_);}
	.st8{fill-rule:evenodd;clip-rule:evenodd;fill:url(#SVGID_9_);}
	.st9{fill:url(#SVGID_10_);}
	.st10{fill:url(#SVGID_11_);}
	.st11{fill:url(#SVGID_12_);}
	.st12{fill-rule:evenodd;clip-rule:evenodd;fill:url(#SVGID_13_);}
	.st13{fill-rule:evenodd;clip-rule:evenodd;fill:url(#SVGID_14_);}
	.st14{fill:url(#SVGID_15_);}
	.st15{fill-rule:evenodd;clip-rule:evenodd;fill:url(#SVGID_16_);}
	.st16{fill:url(#SVGID_17_);}
	.st17{fill:url(#SVGID_18_);}
</style>
<g>
	<linearGradient id="SVGID_1_" gradientUnits="userSpaceOnUse" x1="267.157" y1="60.4928" x2="267.157" y2="21.0442">
		<stop  offset="0" style="stop-color:#FF8700"/>
		<stop  offset="1" style="stop-color:#FFDB05"/>
	</linearGradient>
	<path class="st0" d="M256.3,31.5c4.7,1.9,10.5,5.3,14.6,8.2c2.2,1.5,4.2,3.1,6.5,4.3c5.4,2.7,10.5,4.3,16.2,1.1
		c6.8-3.9,11.5-16.8,1.4-22.2c-2-1.1-3.2-0.6-5.2,0.2c-0.2,0.1-0.5,0.2-0.7,0.2c-0.5,0-0.8-0.7-0.6-1.2c1.1-2.4,7-0.1,8.5,0.7
		c7,4,6.9,14.8,2,19.9c-14.2,15-29.6-0.5-40.7-8v0c-8.1-5.5-17.7-3.9-22.3,1.6c-2.5,3-3.2,8-1.5,11.9c1.4,3.5,4.3,6.5,7.7,7.5
		c6.3,1.7,11.8-2.3,11.9-8c0-2.5-0.4-6.3-3.6-8c-2-1.1-5.9-1.7-6.7,1.3c-0.3,1.1,0.5,2.5,1.6,2.5c0.6,0,1.2-0.4,1.8-0.4
		c0.7-0.1,1.4,0.3,1.8,0.8c0.4,0.6,0.4,1.4,0.1,2c-0.9,1.7-4.2,1.7-5.6,0.7c-1.5-1.1-2.3-3.3-1.9-5.3c0.3-1.6,1.3-2.9,2.7-3.6
		c1.9-0.9,5.3-0.9,7.9,0.5c3.9,2.1,6.4,7.4,4.9,12.9c-1.8,6.8-7.2,10.6-15.6,8.4c-4.1-1.1-7.6-5.7-8.9-10.6
		c-1.3-4.9-1-10.2,2.1-13.8C240.5,28.5,248.5,28.3,256.3,31.5z"/>
	<linearGradient id="SVGID_2_" gradientUnits="userSpaceOnUse" x1="287.047" y1="70.2408" x2="287.047" y2="47.2334">
		<stop  offset="0" style="stop-color:#FF8700"/>
		<stop  offset="1" style="stop-color:#FFDB05"/>
	</linearGradient>
	<path class="st1" d="M293.2,67.4c0.6,0.4,0.2,0.7,0,0.5c-2.1-1.6-3-0.2-3.1,0.4c0,1.7,1.9,2.3,3.4,1.2c1.1-0.7,2-1.9,2.4-3.8
		c0.7-2.9-0.2-15.2-16.8-17.9c-0.3,0-0.4-0.1-0.7-0.1c-0.6-0.1-0.9-0.5,0-0.4c0.2,0,0.5,0,0.7,0.1c2.9,0.6,14,2.8,16.6,13.3
		c0.7,2.7,0.8,5.6-1,8c-2.7,3.1-5.1,1.1-4.9-0.4C290.2,66.9,292,66.4,293.2,67.4z"/>
	<linearGradient id="SVGID_3_" gradientUnits="userSpaceOnUse" x1="267.03" y1="50.2611" x2="267.03" y2="41.7463">
		<stop  offset="0" style="stop-color:#FF8700"/>
		<stop  offset="1" style="stop-color:#FFDB05"/>
	</linearGradient>
	<path class="st2" d="M268.8,41.7c1.5,1.5,2.5,4.1,1.8,6c-0.4,1.1-1.8,2.2-3.1,2.5c-1.3,0.3-2.5-0.3-3.3-1.1
		c-2.2-2.4-0.5-5.6,2.5-5.3c0.5,0,1.1,0.3,1.2,0.8c0.1,0.4-0.4,1.1-0.9,1.1s-0.7-0.7-1.1-0.9c-0.4-0.3-1.1,0-1.4,0.4
		c-0.7,0.9-0.8,2.2-0.2,3.1c1.5,2.5,5,1,5.8-0.7c0.7-1.7-0.3-4.2-1.8-5.6L268.8,41.7z"/>
	<linearGradient id="SVGID_4_" gradientUnits="userSpaceOnUse" x1="291.1515" y1="47.1932" x2="291.1515" y2="38.429">
		<stop  offset="0" style="stop-color:#FF8700"/>
		<stop  offset="1" style="stop-color:#FFDB05"/>
	</linearGradient>
	<path class="st3" d="M289.9,47.2c2.1-0.4,4.3-2,4.8-4c0.3-1.2-0.3-2.9-1.2-3.8c-0.9-1-2.3-1.1-3.3-0.9c-3.2,0.8-3.6,4.3-0.8,5.8
		c0.4,0.2,1.1,0.4,1.4,0c0.3-0.4,0.3-1.1-0.2-1.4c-0.4-0.2-0.9,0.2-1.4,0.1c-0.5,0-0.8-0.6-0.9-1.1c-0.1-1.1,0.5-2.2,1.5-2.7
		c2.6-1.2,4.7,1.9,4.4,3.8c-0.3,1.8-2.6,3.3-4.6,3.7L289.9,47.2z"/>
	<linearGradient id="SVGID_5_" gradientUnits="userSpaceOnUse" x1="301.9746" y1="56.0639" x2="301.9746" y2="38.0872">
		<stop  offset="0" style="stop-color:#FF8700"/>
		<stop  offset="1" style="stop-color:#FFDB05"/>
	</linearGradient>
	<path class="st4" d="M293.2,55.1c6.5,2.5,17,0,18.5-7.6c0.6-3.2,0-7.6-3.3-9.1c-1.5-0.7-4-0.5-4.7,1.5c-0.5,1.4,1.1,3.3,2.7,2.4
		c2.2-1.3,0.9-3.6-1.2-3.4c6.6-1.4,7.3,7.3,4.8,11.5c-3,5-13.4,6.8-17.9,3.5L293.2,55.1z"/>
	<linearGradient id="SVGID_6_" gradientUnits="userSpaceOnUse" x1="320.2015" y1="62.8563" x2="320.2015" y2="32.4996">
		<stop  offset="0" style="stop-color:#FF8700"/>
		<stop  offset="1" style="stop-color:#FFDB05"/>
	</linearGradient>
	<path class="st5" d="M299.1,40.5c10.3-9.2,31.5-12.2,39.7,0.7c3.4,5.4,5.6,14.1,0.5,19.2c-2.3,2.4-7.1,3.8-9.8,0.6
		c-2-2.3-0.4-6.9,3.3-6.3c4.9,0.8,4.3,6,0.2,7.2c13.2-2.2,8.2-18.8,0.6-24.7c-9.1-7-29.7-2.9-35.6,6.3L299.1,40.5z"/>
	<linearGradient id="SVGID_7_" gradientUnits="userSpaceOnUse" x1="379.8773" y1="62.8069" x2="379.8773" y2="27.1543">
		<stop  offset="0" style="stop-color:#FF8700"/>
		<stop  offset="1" style="stop-color:#FFDB05"/>
	</linearGradient>
	<path class="st6" d="M417.3,38.9c2.3,0.7,2.1-0.7,1.4-1c-8.2-2.3-6.4-7.5-4.8-9c4.3-3.3,9.8,0.4,9.9,6.6c0.3,4-1.2,9.1-5.4,13.7
		c-6.4,7.6-40.2,29.1-79.9-9.4c-0.6-0.6-1-0.9-1.6-1.4c-1.5-1.4-2.5-1.8-0.5,0.5c0.5,0.6,1.1,1.2,1.6,1.7c7.3,6.5,34,31.9,66.8,18.3
		c8.5-3.5,16.3-8.6,19.1-18.1c2.9-13.3-6.8-15.6-10.5-12.2C410.1,31.9,412.5,37.7,417.3,38.9z"/>
	<linearGradient id="SVGID_8_" gradientUnits="userSpaceOnUse" x1="433.3455" y1="63.3102" x2="433.3455" y2="42.3239">
		<stop  offset="0" style="stop-color:#FF8700"/>
		<stop  offset="1" style="stop-color:#FFDB05"/>
	</linearGradient>
	<path class="st7" d="M417.7,49.5c6.8-7.2,21.7-10.7,28.4-2c2.8,3.6,4.9,9.7,1.6,13.7c-1.5,1.8-4.8,3.1-6.9,1
		c-1.5-1.5-0.7-4.9,2-4.7c3.5,0.3,3.5,4,0.6,5.1c9.3-2.4,4.7-14-1.1-17.7c-6.9-4.5-21.4-0.2-25,6.8L417.7,49.5z"/>
	<linearGradient id="SVGID_9_" gradientUnits="userSpaceOnUse" x1="194.5136" y1="60.4928" x2="194.5136" y2="21.0442">
		<stop  offset="0" style="stop-color:#FF8700"/>
		<stop  offset="1" style="stop-color:#FFDB05"/>
	</linearGradient>
	<path class="st8" d="M205.4,31.5c-4.7,1.9-10.5,5.3-14.6,8.2c-2.2,1.5-4.2,3.1-6.5,4.3c-5.4,2.7-10.5,4.3-16.2,1.1
		c-6.8-3.9-11.5-16.8-1.4-22.2c2-1.1,3.2-0.6,5.2,0.2c0.2,0.1,0.5,0.2,0.7,0.2c0.5,0,0.8-0.7,0.6-1.2c-1.1-2.4-7-0.1-8.5,0.7
		c-7,4-6.9,14.8-2,19.9c14.2,15,29.6-0.5,40.7-8v0c8.1-5.5,17.7-3.9,22.3,1.6c2.5,3,3.2,8,1.5,11.9c-1.4,3.5-4.3,6.5-7.7,7.5
		c-6.3,1.7-11.8-2.3-11.9-8c0-2.5,0.4-6.3,3.6-8c2-1.1,5.9-1.7,6.7,1.3c0.3,1.1-0.5,2.5-1.6,2.5c-0.6,0-1.2-0.4-1.8-0.4
		c-0.7-0.1-1.4,0.3-1.8,0.8c-0.4,0.6-0.4,1.4-0.1,2c0.9,1.7,4.2,1.7,5.6,0.7c1.5-1.1,2.3-3.3,1.9-5.3c-0.3-1.6-1.3-2.9-2.7-3.6
		c-1.9-0.9-5.3-0.9-7.9,0.5c-3.9,2.1-6.4,7.4-4.9,12.9c1.8,6.8,7.2,10.6,15.6,8.4c4.1-1.1,7.6-5.7,8.9-10.6c1.3-4.9,1-10.2-2.1-13.8
		C221.2,28.5,213.2,28.3,205.4,31.5z"/>
	<linearGradient id="SVGID_10_" gradientUnits="userSpaceOnUse" x1="174.5798" y1="70.2408" x2="174.5798" y2="47.2334">
		<stop  offset="0" style="stop-color:#FF8700"/>
		<stop  offset="1" style="stop-color:#FFDB05"/>
	</linearGradient>
	<path class="st9" d="M168.4,67.4c-0.6,0.4-0.2,0.7,0,0.5c2.1-1.6,3-0.2,3.1,0.4c0,1.7-1.9,2.3-3.4,1.2c-1.1-0.7-2-1.9-2.4-3.8
		c-0.7-2.9,0.2-15.2,16.8-17.9c0.3,0,0.4-0.1,0.7-0.1c0.6-0.1,0.9-0.5,0-0.4c-0.2,0-0.5,0-0.7,0.1c-2.9,0.6-14,2.8-16.6,13.3
		c-0.7,2.7-0.8,5.6,1,8c2.7,3.1,5.1,1.1,4.9-0.4C171.5,66.9,169.6,66.4,168.4,67.4z"/>
	<linearGradient id="SVGID_11_" gradientUnits="userSpaceOnUse" x1="194.5967" y1="50.2611" x2="194.5967" y2="41.7463">
		<stop  offset="0" style="stop-color:#FF8700"/>
		<stop  offset="1" style="stop-color:#FFDB05"/>
	</linearGradient>
	<path class="st10" d="M192.8,41.7c-1.5,1.5-2.5,4.1-1.8,6c0.4,1.1,1.8,2.2,3.1,2.5c1.3,0.3,2.5-0.3,3.3-1.1
		c2.2-2.4,0.5-5.6-2.5-5.3c-0.5,0-1.1,0.3-1.2,0.8c-0.1,0.4,0.4,1.1,0.9,1.1s0.7-0.7,1.1-0.9c0.4-0.3,1.1,0,1.4,0.4
		c0.7,0.9,0.8,2.2,0.2,3.1c-1.5,2.5-5,1-5.8-0.7c-0.7-1.7,0.3-4.2,1.8-5.6L192.8,41.7z"/>
	<linearGradient id="SVGID_12_" gradientUnits="userSpaceOnUse" x1="170.4752" y1="47.1932" x2="170.4752" y2="38.429">
		<stop  offset="0" style="stop-color:#FF8700"/>
		<stop  offset="1" style="stop-color:#FFDB05"/>
	</linearGradient>
	<path class="st11" d="M171.7,47.2c-2.1-0.4-4.3-2-4.8-4c-0.3-1.2,0.3-2.9,1.2-3.8c0.9-1,2.3-1.1,3.3-0.9c3.2,0.8,3.6,4.3,0.8,5.8
		c-0.4,0.2-1.1,0.4-1.4,0c-0.3-0.4-0.3-1.1,0.2-1.4c0.4-0.2,0.9,0.2,1.4,0.1c0.5,0,0.8-0.6,0.9-1.1c0.1-1.1-0.5-2.2-1.5-2.7
		c-2.6-1.2-4.7,1.9-4.4,3.8c0.3,1.8,2.6,3.3,4.6,3.7L171.7,47.2z"/>
	<linearGradient id="SVGID_13_" gradientUnits="userSpaceOnUse" x1="159.652" y1="56.0639" x2="159.652" y2="38.0872">
		<stop  offset="0" style="stop-color:#FF8700"/>
		<stop  offset="1" style="stop-color:#FFDB05"/>
	</linearGradient>
	<path class="st12" d="M168.5,55.1c-6.5,2.5-17,0-18.5-7.6c-0.6-3.2,0-7.6,3.3-9.1c1.5-0.7,4-0.5,4.7,1.5c0.5,1.4-1.1,3.3-2.7,2.4
		c-2.2-1.3-0.9-3.6,1.2-3.4c-6.6-1.4-7.3,7.3-4.8,11.5c3,5,13.4,6.8,17.9,3.5L168.5,55.1z"/>
	<linearGradient id="SVGID_14_" gradientUnits="userSpaceOnUse" x1="141.4692" y1="62.8563" x2="141.4692" y2="32.4996">
		<stop  offset="0" style="stop-color:#FF8700"/>
		<stop  offset="1" style="stop-color:#FFDB05"/>
	</linearGradient>
	<path class="st13" d="M162.5,40.5c-10.3-9.2-31.5-12.2-39.7,0.7c-3.4,5.4-5.6,14.1-0.5,19.2c2.3,2.4,7.1,3.8,9.8,0.6
		c2-2.3,0.4-6.9-3.3-6.3c-4.9,0.8-4.3,6-0.2,7.2c-13.2-2.2-8.2-18.8-0.6-24.7c9.1-7,29.7-2.9,35.6,6.3L162.5,40.5z"/>
	<linearGradient id="SVGID_15_" gradientUnits="userSpaceOnUse" x1="81.7933" y1="62.8069" x2="81.7933" y2="27.1543">
		<stop  offset="0" style="stop-color:#FF8700"/>
		<stop  offset="1" style="stop-color:#FFDB05"/>
	</linearGradient>
	<path class="st14" d="M44.4,38.9c-2.3,0.7-2.1-0.7-1.4-1c8.2-2.3,6.4-7.5,4.8-9c-4.3-3.3-9.8,0.4-9.9,6.6c-0.3,4,1.2,9.1,5.4,13.7
		c6.4,7.6,40.2,29.1,79.9-9.4c0.6-0.6,1-0.9,1.6-1.4c1.5-1.4,2.5-1.8,0.5,0.5c-0.5,0.6-1.1,1.2-1.6,1.7c-7.3,6.5-34,31.9-66.8,18.3
		c-8.5-3.5-16.3-8.6-19.1-18.1c-2.9-13.3,6.8-15.6,10.5-12.2C51.6,31.9,49.1,37.7,44.4,38.9z"/>
	<linearGradient id="SVGID_16_" gradientUnits="userSpaceOnUse" x1="28.3252" y1="63.3102" x2="28.3252" y2="42.3239">
		<stop  offset="0" style="stop-color:#FF8700"/>
		<stop  offset="1" style="stop-color:#FFDB05"/>
	</linearGradient>
	<path class="st15" d="M43.9,49.5c-6.8-7.2-21.7-10.7-28.4-2c-2.8,3.6-4.9,9.7-1.6,13.7c1.5,1.8,4.8,3.1,6.9,1
		c1.5-1.5,0.7-4.9-2-4.7c-3.5,0.3-3.5,4-0.6,5.1c-9.3-2.4-4.7-14,1.1-17.7c6.9-4.5,21.4-0.2,25,6.8L43.9,49.5z"/>
	<g>
		<linearGradient id="SVGID_17_" gradientUnits="userSpaceOnUse" x1="230.7639" y1="9.0643" x2="230.7639" y2="8.9764">
			<stop  offset="0" style="stop-color:#FF8700"/>
			<stop  offset="1" style="stop-color:#FFDB05"/>
		</linearGradient>
		<path class="st16" d="M230.7,9C230.7,9,230.7,9,230.7,9C230.8,9,230.8,9,230.7,9z"/>
		<linearGradient id="SVGID_18_" gradientUnits="userSpaceOnUse" x1="230.7997" y1="32.9608" x2="230.7997" y2="9.0203">
			<stop  offset="0" style="stop-color:#FF8700"/>
			<stop  offset="1" style="stop-color:#FFDB05"/>
		</linearGradient>
		<path class="st17" d="M236,21c-1.8-6.3-4.9-11.3-5.2-11.9c-0.2,0.7-3.6,5.8-5.2,11.9c-1.6,6.4,2.3,12,5.2,12
			C233.6,33,237.8,27.3,236,21z M230.7,32.3c-2.2,0-5.1-4.2-3.9-9c1.2-4.7,3.8-8.5,3.9-9c0,0,0,0,0,0s0,0,0,0c0.2,0.5,2.5,4.3,3.9,9
			C236.1,28.1,232.9,32.3,230.7,32.3z"/>
	</g>
</g>
</svg>
