<svg id="Layer_1" data-name="Layer 1" xmlns="http://www.w3.org/2000/svg" viewBox="0 0 449.73 348.6"><defs><style>.cls-1,.cls-10,.cls-15,.cls-17,.cls-18,.cls-19,.cls-22,.cls-23,.cls-24,.cls-25,.cls-30,.cls-31,.cls-5,.cls-8{fill:none;}.cls-1,.cls-10,.cls-17,.cls-18,.cls-21,.cls-8{stroke:#505c7b;}.cls-1,.cls-10,.cls-15,.cls-17,.cls-18,.cls-19,.cls-22,.cls-23,.cls-24,.cls-25,.cls-31,.cls-5,.cls-8{stroke-linecap:round;stroke-linejoin:round;}.cls-1,.cls-13,.cls-18,.cls-27,.cls-6,.cls-7,.cls-9{opacity:0.25;}.cls-1,.cls-11,.cls-13,.cls-15,.cls-16,.cls-17,.cls-18,.cls-21,.cls-22,.cls-24,.cls-25,.cls-27,.cls-28,.cls-29,.cls-31,.cls-4,.cls-6,.cls-7,.cls-8{isolation:isolate;}.cls-2{fill:#fcc9a1;}.cls-3{fill:#2c2f53;}.cls-4,.cls-7{fill:#63cdf6;}.cls-11,.cls-14,.cls-15,.cls-16,.cls-17,.cls-21,.cls-22,.cls-24,.cls-28,.cls-31,.cls-4,.cls-8{opacity:0.5;}.cls-30,.cls-5{stroke:#2c2f53;}.cls-16,.cls-20,.cls-21,.cls-6{fill:#505c7b;}.cls-18,.cls-24,.cls-8{stroke-width:2.39px;}.cls-11,.cls-13{fill:#f06082;}.cls-12{fill:#0d1536;}.cls-15,.cls-19{stroke:#54c3e5;}.cls-21,.cls-30{stroke-miterlimit:10;}.cls-22,.cls-23,.cls-24,.cls-25,.cls-31{stroke:#f06082;}.cls-22{stroke-width:3.58px;}.cls-25{opacity:0.75;}.cls-26{fill:#fff;}.cls-27,.cls-28{fill:#54c3e5;}.cls-29{fill:#dc6437;opacity:0.3;}</style></defs><path class="cls-1" d="M372.56,235.21c-1.43-1-1.75-1.13-1.79-2.36s.77-40.35.77-40.35" transform="translate(-18.99 -35.71)"/><path class="cls-1" d="M402,234.68c4.51-13.67,7.84-23.17,11.32-45.49" transform="translate(-18.99 -35.71)"/><path class="cls-1" d="M371.34,202.13c6.2,1.16,41.05,1.16,41.05,1.16" transform="translate(-18.99 -35.71)"/><path class="cls-1" d="M372.92,210.76c1.48.42,38.16-.23,38.16-.23" transform="translate(-18.99 -35.71)"/><path class="cls-1" d="M372.92,217.85c1.36,1,1.69,1.08,7.31,1s24.87-.52,24.87-.52" transform="translate(-18.99 -35.71)"/><path class="cls-1" d="M372.56,225.82c1.41.54,28,.4,32.54,0" transform="translate(-18.99 -35.71)"/><path class="cls-1" d="M372.17,230.8c1.25.13,2.29.85,14.77,1.12s15,0,15,0" transform="translate(-18.99 -35.71)"/><path class="cls-1" d="M406.81,196.53c-1.38,16.69-6.13,37.14-6.13,37.14" transform="translate(-18.99 -35.71)"/><path class="cls-1" d="M400.68,198c-.44,9.79-4.31,35.72-4.31,35.72" transform="translate(-18.99 -35.71)"/><path class="cls-1" d="M394.25,198.75c-.88,7.45-4.09,34.92-4.09,34.92" transform="translate(-18.99 -35.71)"/><path class="cls-1" d="M388.05,196.53C387.46,205.76,385,234,385,234" transform="translate(-18.99 -35.71)"/><path class="cls-1" d="M382.49,196.52c-1.1,19-3.51,37.15-3.51,37.15" transform="translate(-18.99 -35.71)"/><path class="cls-1" d="M377.45,196.31c-.73,9.31-2.89,37.36-2.89,37.36" transform="translate(-18.99 -35.71)"/><path class="cls-2" d="M262.43,137.77c5.44,3.24,11.12,7.39,12.95,9.64s5.32,5.91,6.5,6.21,2.78-.67,5.8,2.06,10.64,6.15,18.32,7.87,20.11,6.27,20.11,6.27,2.89,6.38,4.48,7.27a12.17,12.17,0,0,0,5.39,1c1.35,0,3.49-1.78,3.49-1.78s.41,1.54.94,1.78,2.19-1.6,2.19-1.6-.05,4.12,1.18,3.19a16.22,16.22,0,0,0,1.84-1.57s.29,2.46,1.12,2.16,4.31-3.84,5.67-4.55,1.78-1,.54-4.61-3.25-8.4-4.08-8.81-13.47,2.07-15.26,1.83-9.1-5.91-13.72-9.34-21.4-15.25-25-17a27.26,27.26,0,0,1-7.57-4.79c-3.07-2.6-8-7.45-8-7.45S268.34,131.86,262.43,137.77Z" transform="translate(-18.99 -35.71)"/><path class="cls-3" d="M278.63,49c-2.18,2.37-3.86-.61-3.91-4.87,0-.56-1.61-2.61-3.06-3.57s-4.67-.45-4.67-.45c-1.66-4.11-6.93-4.92-10.09-4.21a9.61,9.61,0,0,0-5.07,3.21c-4.26-.2-9,.75-11.09,4.12s-1.66,9.78-1.66,9.78c-5.51.4-4.32,5.22,1.56,9.48L243.4,64l27.77-6.13C274.65,58.12,279.48,56.5,278.63,49Z" transform="translate(-18.99 -35.71)"/><path class="cls-2" d="M272.61,55.91a176.86,176.86,0,0,1-5.28,22.55c-.11.17-.82.92-1.75,1.88a68.13,68.13,0,0,1-5.29,5.08,14.65,14.65,0,0,1-1.48.06s-1.33,3.28-2.47,5.56a1.3,1.3,0,0,0-.08.17,15.4,15.4,0,0,0-.79,6c-8.68-7-19.55-9.3-19.55-9.3,2-1.61,5.16-8.83,6.3-12.65s.74-5,.74-5c-5.15.67-6.23-5.73-5.08-7.73s4.21,0,4.21,0a19.77,19.77,0,0,0,1.34-6c7.16-.07,11.11-3.49,13.12-6.89s-.72-6.76-.72-6.76c6.35-1.54,4.6,4.82,8.21,8.83C267.08,55,272.61,55.91,272.61,55.91Z" transform="translate(-18.99 -35.71)"/><path class="cls-3" d="M258.82,85.49s-1.33,3.28-2.47,5.55a1.42,1.42,0,0,0-.08.18c-3-1.77-8.3-4.94-8.57-5.94s-1.18-5-1.77-7.57c3.37,3.76,6.74,7.15,7.68,7.46A29.41,29.41,0,0,0,258.82,85.49Z" transform="translate(-18.99 -35.71)"/><path class="cls-2" d="M251.54,157.59c-.26-1.75.06-3.35.64-3.15s9,2.43,9.61,2.86a2.46,2.46,0,0,1,.64,3c-.58,1.27,0,1.81.69,2.49s.05,1.75-.42,2.13a1.64,1.64,0,0,0-.27,2c.42.74-.21,1.64-.58,2.17s.42,2.29-.27,2.93-7.8-.8-9-1.17-1-2.5-.26-2.44l5.94.42-7.07-4.2c-.73-.42-.31-2.65-.31-2.65a2.29,2.29,0,0,1-1.43-1c-.53-.85-.48-3.93,0-3.93A12.1,12.1,0,0,1,251.54,157.59Z" transform="translate(-18.99 -35.71)"/><path class="cls-2" d="M302.19,241.08c1.57,2.28,2.89,6.37,2.37,9.38s-5.25,21.43-5.25,21.43l-2.45-.67-.64,2.69-1.63-.57c-.24,4.55-5.39,21.22-6.38,22.31l3.87,1.73-1.69,4.48,1.45.75-3.92,9.66-10.36.23S275,302,274.24,299.57c0,0,3-13.45,5.15-21.14a141.94,141.94,0,0,1,5.67-15.94l-6-6.15S292.85,243.11,302.19,241.08Z" transform="translate(-18.99 -35.71)"/><path class="cls-4" d="M251.92,226.77c1.2,4.38,3.74,13.59,5.35,19.6-7.38-7.41-15-15.11-17.93-18.26C244.07,227.71,248.26,227.25,251.92,226.77Z" transform="translate(-18.99 -35.71)"/><path class="cls-4" d="M304.56,241.39l-.28,1.61c-3.14-1.23-9.87,2.47-19.86,10.23s-10.11,10.23-10.11,10.23L260.84,250l-6.07-23.58a129.4,129.4,0,0,0,16.39-3.16s10.48,1.32,12.53,1.86,7.58,1.8,7.58,1.8C296.76,232,304.56,241.39,304.56,241.39Z" transform="translate(-18.99 -35.71)"/><path class="cls-2" d="M298.38,217.35h12.29s-2.61,3.78-5.4,14.77-2.17,20.6-9.62,41a127.62,127.62,0,0,0,13.82,4.67s5.12-11.37,7.63-17.27,8.53-20.11,11.07-25.51,10.3-25.87,11.05-28.36-.93-11.4-1.62-12.47-8.2-7.23-19.43-7.53C318.17,186.61,307.51,196.06,298.38,217.35Z" transform="translate(-18.99 -35.71)"/><path class="cls-5" d="M302.38,248.06a133.47,133.47,0,0,1-5.44,21.38" transform="translate(-18.99 -35.71)"/><path class="cls-6" d="M226.24,218.38a91.55,91.55,0,0,1,7.61,11.55s35.83-2.68,41.79-6.12c0,0-34.78-3.9-38.66-4.66A74.59,74.59,0,0,0,226.24,218.38Z" transform="translate(-18.99 -35.71)"/><path class="cls-7" d="M266.27,332.93c.23-.06,5.39-.1,5.39-.1s1.61,8.56,7.23,11.22,9.38,1.67,9.38,1.67,5,8.45,4.89,10.75-.87,4.31-1.33,4.26-19.55-9.43-23.63-11.68-7-4.88-7.24-5.52S263.15,335.41,266.27,332.93Z" transform="translate(-18.99 -35.71)"/><path class="cls-8" d="M397.37,314.82a5.83,5.83,0,0,0-.87,2.56" transform="translate(-18.99 -35.71)"/><g class="cls-9"><path class="cls-10" d="M58,120.13a70.48,70.48,0,0,1,5.44,18.35" transform="translate(-18.99 -35.71)"/><path class="cls-10" d="M58.73,125.54c2.62,9.57,3.16,15,3.27,17.55" transform="translate(-18.99 -35.71)"/><path class="cls-10" d="M55.89,120c2.14,10.59,3,15.43,2.84,20.11" transform="translate(-18.99 -35.71)"/><path class="cls-10" d="M35.61,95.72A39.14,39.14,0,0,0,28.67,92" transform="translate(-18.99 -35.71)"/><path class="cls-10" d="M42.7,90.92c6.75,9.17,9.34,12.94,9.34,12.94" transform="translate(-18.99 -35.71)"/><path class="cls-10" d="M43.63,99a22.45,22.45,0,0,1,6.17,4.87" transform="translate(-18.99 -35.71)"/></g><path class="cls-6" d="M300.48,336.05a15.47,15.47,0,0,1-30.15-1.54l5.66.28,18.83,1Z" transform="translate(-18.99 -35.71)"/><path class="cls-2" d="M174.9,244.42c3.92,6.46,9.52,12.94,11.08,17.21,0,0-.61,17.27-.69,25s6,33.16,7.58,39.87,4,30.74,8.28,38.91c0,0,5.66,1.51,9.59,0s6.71-3.17,6.4-3.43-4.14-8.89-4.14-8.89-2.52,1.22-6.19-4.71-12.74-17.26-11.12-21,6.94-10.86,6.94-10.86l5.06-37.6v-21c0-3.49-4-12.7-4-12.7S188.47,247,174.9,244.42Z" transform="translate(-18.99 -35.71)"/><path class="cls-2" d="M233.62,231.77c3,3.26,1.52,14.38.7,16.82s-3.81,9.91-6.07,18.1-8,25.8-10.11,32.66-8,23.81-7.9,25.27S218.58,345,218.58,345c-8.08-2.66-10.15,3.13-10.15,3.13-4.65-2.53-8.84-10.57-9.84-12.2s-.13-4,.13-8.42-1-6.4-1-6.4c8-15.84,5.9-35.11,6.73-42.45s4.65-16.32,5.73-19.57a59.29,59.29,0,0,0,1.81-7.7s-2.27-5-3.61-7.54a63.74,63.74,0,0,0,11.32-7.52C224.09,232.35,227.73,231.55,233.62,231.77Z" transform="translate(-18.99 -35.71)"/><path class="cls-5" d="M200.14,315.44c5.12-14.52,3.6-30.32,4.33-36.81a47.23,47.23,0,0,1,1.64-7.71" transform="translate(-18.99 -35.71)"/><g class="cls-9"><path class="cls-10" d="M172.54,252.6a69,69,0,0,0-43.15,39.75,1.39,1.39,0,0,1-1.8.78h0a1.39,1.39,0,0,1-.81-1.81v0a71.5,71.5,0,0,1,33.51-36.76" transform="translate(-18.99 -35.71)"/><path class="cls-10" d="M203.26,247.38a71.6,71.6,0,0,1,9,1.89" transform="translate(-18.99 -35.71)"/><path class="cls-10" d="M212.89,252.42a66.49,66.49,0,0,0-8.48-2" transform="translate(-18.99 -35.71)"/><path class="cls-10" d="M229.88,256.93a71.62,71.62,0,0,1,12.22,9.36" transform="translate(-18.99 -35.71)"/><path class="cls-10" d="M240.14,268.37a69.11,69.11,0,0,0-11.24-8.69" transform="translate(-18.99 -35.71)"/><path class="cls-10" d="M244.51,268.72a70.73,70.73,0,0,1,19.71,47.77,1.41,1.41,0,0,1-1.38,1.44h0a1.4,1.4,0,0,1-1.4-1.37,68.21,68.21,0,0,0-18.84-45.77" transform="translate(-18.99 -35.71)"/></g><path class="cls-11" d="M112.23,248c1.65,13.74,13.63,16.49,19.87,16.31,14.66-.41,23.52-8.83,37.59-9.77,6.26-.41,13.07-.72,13.07-.72l-6.4-9.16c-10.63-1.79-24.6-6.25-36.87-7.94C123.71,234.59,110.83,236.41,112.23,248Z" transform="translate(-18.99 -35.71)"/><path class="cls-2" d="M206.57,119.06c2.25,5,5.34,15.43,5.34,15.43l4.67-15.63S210.05,118.27,206.57,119.06Z" transform="translate(-18.99 -35.71)"/><path class="cls-2" d="M169.57,143.09s-2.3-11.55-3-14.59a60,60,0,0,1-1.11-6.81,65.62,65.62,0,0,0-10.14.66c-4,.75-6.81,1.25-15.33,3s-26.66,3-28.66,2.44S98.11,123,93,122.27a118.38,118.38,0,0,1-22.45-6.36,57.87,57.87,0,0,1-3.83-5.38c-1.32-2.24-3.76-2.31-5-2.7a34.31,34.31,0,0,1-7.39-4.43c-1.06-1.14-1.45,1.65-1.45,1.65s-4.23-1.06-4.89-.4-.46,3.43,0,3.63a10.44,10.44,0,0,0,1.65.4s-2.76,2.11-2.07,2.9,3.06,1.19,3.06,1.19-2.7,2.38-.92,3a14.15,14.15,0,0,0,2.84.81s-1.52,1.65-.72,2.24,4.42,3.88,6.87,4.24a26.34,26.34,0,0,0,6.6-.42s18.23,9.84,24,12.08,15.06,5.82,16.65,6.94,3,1.45,8.91.79,30,.07,37.71-.25C164.25,141.75,163.76,141.63,169.57,143.09Z" transform="translate(-18.99 -35.71)"/><path class="cls-12" d="M179,84.14l-11.91,7s1,1.5-1,3.28-12,6.29-15.19,9.82-6.72,8.1-2,10.45,14.87-1.66,16.16-2.49c0,0-1.24,3.17,1.88,3.74s11.85-3.38,13.1-4.26S179,84.14,179,84.14Z" transform="translate(-18.99 -35.71)"/><path class="cls-10" d="M168.71,113.53c5.06-1.56,8.27-6.09,6.49-14" transform="translate(-18.99 -35.71)"/><path class="cls-12" d="M200.87,79.16c2.21,6.38,3.85,8.29,5.77,10.37s4.9,5,2.33,9.75-6.64,7.89-6.6,9.31a11.47,11.47,0,0,0-4.25,1.41c-2.35,1.29-4.43,1.07-5.41,0s2.84-27.73,2.84-27.73Z" transform="translate(-18.99 -35.71)"/><path class="cls-10" d="M199.05,85.28s2.43,6.64,7,8.59c6.2,2.66,7.84,10.73,2.88,12.32" transform="translate(-18.99 -35.71)"/><path class="cls-10" d="M199.45,89.8c1.2,4,2.82,6,4.47,8.48,4.12,6.15-3.32,8.1-1.55,10.32" transform="translate(-18.99 -35.71)"/><path class="cls-2" d="M202.46,133.36c-1.28,1.87-11.37,7.89-11.37,7.89a41.76,41.76,0,0,0-14.31-4c-1.67-3.44-2.72-12.14-2.19-15.44,0,0,4.92-1.62,5-3.25s-1.55-15.66-2-17.46c0,0-6.87.11-8-4.45s3.62-4.48,4.94-2.87A21.21,21.21,0,0,0,177,90.47c.09-.56-.36-3.93.42-5.29l17-11.17,5.44-3.56h0c.21.3,4.72,6.7.25,12.65l-.12.15s.82,7.28,1.15,9.71a15.92,15.92,0,0,1-2.22,11.53c-.42.63-.81,1.18-1.17,1.66-2.25,3-3.37,3.07-3.37,3.07s.13,3.3.26,5.53c0,.81.1,1.5.14,1.8.31,2.31,1.53,4.81,3.51,4.37l1.25-.28s1,2.72,2.14,6.44S203.18,132.3,202.46,133.36Z" transform="translate(-18.99 -35.71)"/><path class="cls-13" d="M112.23,248c-.75-6.23,6.56-11.87,21.89-10.6s39.73,9.85,54.72,9.93,22-1.31,29.55-8.07,13.88-6.75,19.36-4.56c0,0-5.77-11.37-6.64-13.13s-9.11-10.27-14.54-16.42a129.88,129.88,0,0,1-9-11.39l-4.35.44s.43-34.26,9.27-61.63c0,0-2.78-11.37-5.08-13.72l-9.14,2.06s3.57,9.38,3.39,11.15S191,139.89,191,139.89s-9-3.63-13.57-3.63c0,0-2.84-9.21-1.51-14.84a10.15,10.15,0,0,1-3.09.55c-1.35-.06-8.6-.31-8.6-.31a33.87,33.87,0,0,0,1.09,7.15c1,3.45,2.49,12.78,2.84,14.6,0,0-1.51,9.69-1.51,11.93s1.88,7.88,3,11,3.21,10.18,2.78,12.9S161.82,187,157.15,194a102.14,102.14,0,0,0-8.73,16.72c-1.94,4.36-7.38,9.14-17.56,14.78S110.81,239.29,112.23,248Z" transform="translate(-18.99 -35.71)"/><path class="cls-5" d="M242.1,62.53c.44,5,.87,7.78.87,7.73" transform="translate(-18.99 -35.71)"/><path class="cls-5" d="M258.82,85.49a29.41,29.41,0,0,1-5.21-.32c-.93-.31-4.31-3.7-7.67-7.46-.65-.72-1.29-1.45-1.92-2.18" transform="translate(-18.99 -35.71)"/><path class="cls-10" d="M238.08,60.36c1.34-2.25,3.4-2.61,5.35-3.85,4.77-3,10.85-6.82,9-14.74" transform="translate(-18.99 -35.71)"/><path class="cls-10" d="M251.83,39.15a24.67,24.67,0,0,1,4,3.71" transform="translate(-18.99 -35.71)"/><path class="cls-10" d="M239.08,53.05c2.77.46,3,1.82,2.2,2.52C240.27,56.42,239.08,55.23,239.08,53.05Z" transform="translate(-18.99 -35.71)"/><path class="cls-10" d="M267,40.15a25.2,25.2,0,0,1,1.88,7.69c.21,2.55.11,3.33.92,4.51s2.14,2.58,4,2,1.93-2.17.88-2.78-2.15,1.06-2,4.37" transform="translate(-18.99 -35.71)"/><path class="cls-10" d="M272.61,54.46c1.79,1.37,4.08.35,5.1-1.48a8.42,8.42,0,0,0,.92-3.94" transform="translate(-18.99 -35.71)"/><path class="cls-3" d="M255.35,75.11c-.11-1.42-1.33-2.23-1.68-2S253.78,74.38,255.35,75.11Z" transform="translate(-18.99 -35.71)"/><path class="cls-5" d="M254.32,74.06a7.6,7.6,0,0,0,7.29,1.88" transform="translate(-18.99 -35.71)"/><path class="cls-3" d="M260.81,71.52c-.78-1.67-1.89-1.4-2-1.13C258.6,71,260.27,71.18,260.81,71.52Z" transform="translate(-18.99 -35.71)"/><path class="cls-5" d="M259.81,70.72c.85.55,1.26,1.18,1.56,1.25a4.45,4.45,0,0,0,1.41,0,10.26,10.26,0,0,0,1.53-1.66" transform="translate(-18.99 -35.71)"/><path class="cls-3" d="M250.8,57c1.38-.66,7.51-.71,7.87-.62s.13-1.88-.31-2.28S253.31,54.67,250.8,57Z" transform="translate(-18.99 -35.71)"/><path class="cls-3" d="M264.83,57.78c2.3-.25,4.49.29,5.18,1.28a2.13,2.13,0,0,0-1.46-2.59C267.22,55.91,266,56.42,264.83,57.78Z" transform="translate(-18.99 -35.71)"/><path class="cls-5" d="M266.13,57a12.53,12.53,0,0,0-3.38,4.4c-.36.73.23,6.62,0,10.58" transform="translate(-18.99 -35.71)"/><g class="cls-14"><path class="cls-10" d="M250.28,61.31a5.51,5.51,0,1,0,9.9,3.34,6.82,6.82,0,0,0-.07-.9" transform="translate(-18.99 -35.71)"/><path class="cls-10" d="M259.33,61.71a5.5,5.5,0,0,0-7.6-1.72l-.09,0" transform="translate(-18.99 -35.71)"/><path class="cls-10" d="M272.88,61a5.51,5.51,0,0,0-7.23-1.17" transform="translate(-18.99 -35.71)"/><path class="cls-10" d="M264.24,61.08a5.51,5.51,0,1,0,9.38,1.07" transform="translate(-18.99 -35.71)"/></g><path class="cls-5" d="M265.89,63.8a5,5,0,0,0,1.36-.43" transform="translate(-18.99 -35.71)"/><path class="cls-3" d="M265.59,62.85a1,1,0,1,1-.95.95A1,1,0,0,1,265.59,62.85Z" transform="translate(-18.99 -35.71)"/><path class="cls-5" d="M254.08,63.29a4.78,4.78,0,0,0,1.4-.39" transform="translate(-18.99 -35.71)"/><path class="cls-3" d="M252.81,63.23a1,1,0,1,1,.92,1A1,1,0,0,1,252.81,63.23Z" transform="translate(-18.99 -35.71)"/><path class="cls-5" d="M254.74,77.5a4.27,4.27,0,0,0,2.7.73" transform="translate(-18.99 -35.71)"/><path class="cls-7" d="M259.79,141.91a117,117,0,0,1,21.4-15.36s-6.18-7.75-12-14.71-9.27-13.48-15.47-17.52-15.92-8.56-19.1-6.23a54.74,54.74,0,0,0-13.76,17.09c-4.26,8.71-9,23.13-11.67,33a248.23,248.23,0,0,0-7.48,57.86,68.52,68.52,0,0,0,15-2.68c6.75-2.23,26.67-10.68,43.18-10l-1.76-12.67s-3.86-.84-3.93-1.21,6.14,0,6.14,0-7.52-5.39-8-5.93-.18-2.41-.18-2.41-1.55-.22-1.75-1-.16-1.69.07-1.69,2.63.7,2.63.7-.47-3.16,0-3.21a46.73,46.73,0,0,1,4.8,1.43A104.79,104.79,0,0,1,259.79,141.91Z" transform="translate(-18.99 -35.71)"/><path class="cls-15" d="M242,123.29c4.59,7,15.27,20.49,15.27,20.49l2.49-1.87" transform="translate(-18.99 -35.71)"/><path class="cls-15" d="M248.83,154.44a21.32,21.32,0,0,0-6.09-3.43" transform="translate(-18.99 -35.71)"/><path class="cls-15" d="M240.39,155.68a26.17,26.17,0,0,1,7,1.13" transform="translate(-18.99 -35.71)"/><path class="cls-5" d="M251.54,157.59c3.74,1.4,8.25,3,8.25,3" transform="translate(-18.99 -35.71)"/><path class="cls-5" d="M250.91,162c2.74.82,8.88,3.69,8.88,3.69" transform="translate(-18.99 -35.71)"/><path class="cls-16" d="M340,175.68c-3.66,0-5.82.43-6.89,0s-1.75-1.7-1.82-3.68,1-2.93,2.38-2.95,8.93,0,8.93,0a10.58,10.58,0,0,1,1.14,2.31C343.63,171.6,340,175.68,340,175.68Z" transform="translate(-18.99 -35.71)"/><path class="cls-1" d="M352.88,173.89a61.15,61.15,0,0,1,10-1.06c5.23-.07,7.93,2.33,6.48,4.81s-5.41,6.3-15.46,11.29" transform="translate(-18.99 -35.71)"/><path class="cls-1" d="M355,192.44s9.26-4.61,15.28-9.64,5-10,1.28-12.08-14.94-1.25-19.64-.6" transform="translate(-18.99 -35.71)"/><path class="cls-6" d="M355,188.39c1,.44,1.79,4.33,1.71,4.73s-7.57,3.78-8.41,3.54-2.31-4.57-1.63-5.08S353.9,187.9,355,188.39Z" transform="translate(-18.99 -35.71)"/><path class="cls-17" d="M356,217.1c-4.24-12.17-7.74-22.27-7.74-22.27" transform="translate(-18.99 -35.71)"/><path class="cls-17" d="M352.88,194.14c.9,2.48,3.84,10.86,7.57,21.57" transform="translate(-18.99 -35.71)"/><path class="cls-17" d="M362.05,220.31c8.27,23.74,19.31,55.51,21.58,61.77,3.49,9.65,6.58,17.93,12.64,25.35s8.06,12,4.61,10.93c-1.88-.6-11.53-13.74-14.77-19.2s-12.64-32.79-16-41.84c-1.69-4.61-7.35-20.78-12.48-35.52" transform="translate(-18.99 -35.71)"/><path class="cls-16" d="M367.89,209c-.17-2-1.38-2-2-1.69s-.14,6.35-.17,7.7c0,1.17-1.76,1.49-4,1.72a15.06,15.06,0,0,0-.8-1.95c-.25-.24-3.05.53-5.8,1.72-.3.13,1.39,5.55,1.92,6s6-1.51,6.08-1.72a18.74,18.74,0,0,0-.7-2.16c1.48-.09,3.72-.33,4.47-.84C368.55,216.66,368.06,211,367.89,209Z" transform="translate(-18.99 -35.71)"/><path class="cls-17" d="M310.48,275.53a31.43,31.43,0,0,0,2.3-2.46c9.71-11.53,27.52-39.63,44.05-47.25" transform="translate(-18.99 -35.71)"/><path class="cls-17" d="M272,286.42c1.71.12,3.49.18,5.29.18" transform="translate(-18.99 -35.71)"/><path class="cls-17" d="M309,283.92c1.06-.67,2.09-1.39,3.1-2.16,16.21-12.51,23.85-39.3,48.55-52.13" transform="translate(-18.99 -35.71)"/><path class="cls-17" d="M273.56,291.9c.79,0,1.61,0,2.46,0" transform="translate(-18.99 -35.71)"/><path class="cls-1" d="M321.31,298.42a274.71,274.71,0,0,0,10.12-25.61c2.58-7.36,17.68-31.34,30.72-38.13" transform="translate(-18.99 -35.71)"/><path class="cls-18" d="M300,321.17a40.31,40.31,0,0,0,17.14-14.84" transform="translate(-18.99 -35.71)"/><path class="cls-18" d="M323.41,305.73a57.77,57.77,0,0,0,5.84-11.32c7.94-21.12,18-44.73,34.86-54.13" transform="translate(-18.99 -35.71)"/><path class="cls-18" d="M302.47,325.27c4-1.06,12.68-7.83,19.62-17.62" transform="translate(-18.99 -35.71)"/><path class="cls-4" d="M206.06,194.14c1.49,4.66,4.9,7.33,8.63,11.59s12.57,13.75,12.57,13.75,51.15,6,55.42,6.92,13.74,3.25,13.74,3.25-.74-4.89,7.14-18.88,14.6-23.89,19.71-23.79c0,0-14.6-1.06-26.53-1.7s-36.88-1.86-36.88-1.86c-2.34-.91-4.05-1.5-4.05-1.5s-12.24.22-22.79,4.27A182.35,182.35,0,0,1,206.06,194.14Z" transform="translate(-18.99 -35.71)"/><path class="cls-5" d="M310.67,217.35c1.55-2.86,4.4-8.48,4.6-9.79" transform="translate(-18.99 -35.71)"/><path class="cls-19" d="M296.43,229.64c.95,1.11,5.4-.91,10.67-7" transform="translate(-18.99 -35.71)"/><path class="cls-19" d="M283.08,225.82c3.3-9.76,15.62-34.29,22.57-40" transform="translate(-18.99 -35.71)"/><path class="cls-5" d="M285.06,262.49a18.72,18.72,0,0,0,2-6.87" transform="translate(-18.99 -35.71)"/><path class="cls-19" d="M274.31,263.43c.42.69,3.46.56,6.8-.94" transform="translate(-18.99 -35.71)"/><path class="cls-7" d="M311.47,277.22c-4.67-1.92-13.78-4.36-16-5.66s-2.23.57-2.51,1.75-3.15,14.75-6.81,23.26c0,0,6.48,2.47,16.33,5.24s20.21,6.42,20.77,6-.22-6.08-1.12-8.11-4.34-4.39-6.54-5.46-2.08-.67-3.71-3.77-3-5.42-2.88-6.51S311.42,278.57,311.47,277.22Z" transform="translate(-18.99 -35.71)"/><g class="cls-14"><path class="cls-19" d="M311.61,289.93a2.32,2.32,0,0,0-2.46,1.21" transform="translate(-18.99 -35.71)"/><path class="cls-19" d="M306.21,289a4.67,4.67,0,0,1,4-1.73" transform="translate(-18.99 -35.71)"/><path class="cls-19" d="M309.48,285.75c1.72-2.67,7.52-6.16,9.14-4.82C320.53,282.52,313.39,285,309.48,285.75Z" transform="translate(-18.99 -35.71)"/><path class="cls-19" d="M310,286.94c2.38.63,6.74.55,6.78-1s-3.58-1.2-3.58-1.2" transform="translate(-18.99 -35.71)"/><path class="cls-19" d="M287.25,293.78a123,123,0,0,0,17.43,6.46c5.21,1.25,12.75,3.13,18.73,5.74" transform="translate(-18.99 -35.71)"/></g><path class="cls-6" d="M290.13,296.5c-.89,2.45-2.29,6.36-2.29,6.36s6.87,3,13.39,5.18,8.24,2.27,8.24,2.27l3.22-6.38S293.31,298.42,290.13,296.5Z" transform="translate(-18.99 -35.71)"/><path class="cls-16" d="M288.86,330.9C293.39,324,300.27,306,300.27,306a25.46,25.46,0,0,1-4.64-1.68,183.1,183.1,0,0,1-11,24.51,4.35,4.35,0,1,0,4.8,3.84,4.29,4.29,0,0,0-.6-1.76Z" transform="translate(-18.99 -35.71)"/><path class="cls-17" d="M211.63,331.49l58.7,3,5.66.29,18.83,1,5.66.29,3.51.18s.47-2.76-.29-9.45-8-13.74-13.15-15.61" transform="translate(-18.99 -35.71)"/><path class="cls-17" d="M213.25,310.86s68.94-.61,73.33-.55" transform="translate(-18.99 -35.71)"/><path class="cls-6" d="M294.82,335.76a10,10,0,0,1-18.83-1Z" transform="translate(-18.99 -35.71)"/><path class="cls-15" d="M260.57,341.12c9.07,7.63,22.72,13.84,32.17,18" transform="translate(-18.99 -35.71)"/><path class="cls-6" d="M271,349.44c-.91,1.73-3,6.3-3,6.3l19.76,9.64s2.69-5.8,2.85-6.24C290.66,359.14,273.6,351,271,349.44Z" transform="translate(-18.99 -35.71)"/><path class="cls-16" d="M273.15,356.77c2.38,1.07,3.5,1.61,3.5,1.61l8.93-21.55a5,5,0,0,1-3.56-1.72Z" transform="translate(-18.99 -35.71)"/><path class="cls-18" d="M255.81,226.88c2.5,8.9,22.79,83.42,22.79,83.42" transform="translate(-18.99 -35.71)"/><path class="cls-18" d="M256.71,250.7c-3.76-13.68-6.33-22.9-6.33-22.9" transform="translate(-18.99 -35.71)"/><path class="cls-18" d="M272.81,310.59c-5.06-19.35-10.69-40.13-15.05-56" transform="translate(-18.99 -35.71)"/><path class="cls-1" d="M217.14,297.08c4.45-3.67,40.63-42.51,40.63-42.51" transform="translate(-18.99 -35.71)"/><line class="cls-18" x1="214.63" y1="208.71" x2="228.66" y2="224.66"/><line class="cls-18" x1="215.33" y1="203.57" x2="231.95" y2="221.15"/><g class="cls-9"><path class="cls-10" d="M370.2,257.48a68.52,68.52,0,0,0-35.48,71.25,1.41,1.41,0,0,1-2.78.48v0a71.43,71.43,0,0,1,37.28-74.39" transform="translate(-18.99 -35.71)"/><path class="cls-10" d="M373.35,252.76a71.17,71.17,0,0,1,29-6.12A72.36,72.36,0,0,1,416.12,248a1.41,1.41,0,0,1-.54,2.76,69,69,0,0,0-13.22-1.27,67.81,67.81,0,0,0-28.05,6" transform="translate(-18.99 -35.71)"/></g><g id="rueda2"><path class="cls-8" d="M396.59,319.05a5.86,5.86,0,1,0,4.62-6.88,5.48,5.48,0,0,0-1.13.35" transform="translate(-18.99 -35.71)"/><g class="cls-14"><path class="cls-20" d="M449.27,271a66.51,66.51,0,0,0-75.11-13.19l1.93,5.36A60.72,60.72,0,1,1,342,324.45l-5.6.62A66.36,66.36,0,1,0,449.27,271ZM341.61,317.93a60.79,60.79,0,0,1,32.08-53.54L371.8,259A66.55,66.55,0,0,0,336,317.93q0,3.13.29,6.23l5.6-.62C341.7,321.69,341.61,319.82,341.61,317.93Z" transform="translate(-18.99 -35.71)"/></g><path class="cls-18" d="M439.87,334.58c-2.56,1.75-14.81,17.14-12.59,16.55S438.7,338,439.87,334.58Z" transform="translate(-18.99 -35.71)"/><path class="cls-18" d="M430.59,359.06c10.82-7.41,23.09-22,21.15-45.58" transform="translate(-18.99 -35.71)"/><path class="cls-18" d="M365.27,348.13c7.72,6,10,7.8,10.15,9.17s-1.13,3.86-3.71,2.9-8.3-7-9.56-8.61C360.67,349.73,362.75,346.18,365.27,348.13Z" transform="translate(-18.99 -35.71)"/></g><line class="cls-17" x1="313.75" y1="288.37" x2="380.34" y2="281.37"/><line class="cls-17" x1="313.75" y1="290.21" x2="382.58" y2="282.8"/><path class="cls-21" d="M399,236.66H402a1,1,0,0,0,.27-2,1.22,1.22,0,0,0-.27,0H372.58a1,1,0,0,0,0,2h24.3l4.41,78.86a6.31,6.31,0,0,1,.61,3c1.36.13,1.49.35,1.49-2.52C403.4,313.32,399.57,245.88,399,236.66Z" transform="translate(-18.99 -35.71)"/><path class="cls-6" d="M396.07,191.62s-2.47,3.9-.92,5.06c-8.49,0-18.1-.16-23.49-.86V190l17-.11c-.74.61-1.29,1.18-1.07,2,.56,2,5.84-1.88,6.63-1.43-.22.18-4.29,4.17-3.87,4.59C391,195.6,396.07,191.62,396.07,191.62Z" transform="translate(-18.99 -35.71)"/><path class="cls-6" d="M413.21,189.7l-1.12,6.73s-7.69.2-16.37.23c1.59-.46,2.55-3.63,2.55-3.63s3.6,2.75,4.13,1.57c.31-.7-3.43-2.44-3.62-2.52.25,0,5.86.87,6-1.52,0-.42-.14-.54-.34-.81Z" transform="translate(-18.99 -35.71)"/><path class="cls-11" d="M410.43,180.91s7.66-2.33,6.23-4.28-5.92,1.71-6.27,2.17c.25-.55,2.64-6.71.71-6.77-2.08-.07-2.61,6.1-2.57,6.36s-2.12-9.67-4.06-6.89,2,8.7,2,8.7-5.78-1.43-5.8,1,5.86,1.74,5.86,1.74c-.91,1.11-2.73,6.24-.58,7s3-6.48,3-6.48c.2,1.75,1.63,5.71,3.46,4.48s-2-5-2-5,5.58,2.4,5.91.71S414.45,180.53,410.43,180.91ZM408.55,182a1.23,1.23,0,1,1,1.22-1.23,1.23,1.23,0,0,1-1.22,1.23Z" transform="translate(-18.99 -35.71)"/><g class="cls-9"><path class="cls-10" d="M411.85,174.48a12.49,12.49,0,0,1,8.86-7.15,19.72,19.72,0,0,1,3.26-.58s-2,5-3.72,6.45-4.14,3-4.14,3" transform="translate(-18.99 -35.71)"/><path class="cls-10" d="M411.53,177.2a25.32,25.32,0,0,1,8.43-8.3" transform="translate(-18.99 -35.71)"/><line class="cls-10" x1="393.79" y1="139.61" x2="396.22" y2="139.39"/><line class="cls-10" x1="400.11" y1="136.13" x2="397.21" y2="136.13"/></g><g class="cls-14"><path class="cls-10" d="M415.73,183.83c4.1-1.4,10.47-1,11.25-.78,0,0-.62,7.2-11.5,9" transform="translate(-18.99 -35.71)"/><path class="cls-10" d="M412.49,189.71c1.83-2.83,9.05-5.26,12.25-5.57" transform="translate(-18.99 -35.71)"/><path class="cls-10" d="M419.51,186.39a14.39,14.39,0,0,1,4.24.36" transform="translate(-18.99 -35.71)"/><path class="cls-10" d="M414.85,187.61a34.87,34.87,0,0,0,5.11,2.56" transform="translate(-18.99 -35.71)"/><path class="cls-10" d="M417.27,186.34a14.31,14.31,0,0,1,2.89-2.82" transform="translate(-18.99 -35.71)"/></g><g class="cls-9"><path class="cls-10" d="M393,181.12c.75-3,4.94-6.77,8.16-7.92s3.82-.88,3.82-.88,2.08,6.79-6.29,10.73" transform="translate(-18.99 -35.71)"/><path class="cls-10" d="M394.87,183.52a44.87,44.87,0,0,1,8.28-8.31" transform="translate(-18.99 -35.71)"/><path class="cls-10" d="M400.35,174.89c-.13,1.39-.12,2.78-.12,2.78" transform="translate(-18.99 -35.71)"/><path class="cls-10" d="M397.12,176.89c-.07,1.77,0,2.86,0,2.86" transform="translate(-18.99 -35.71)"/><path class="cls-10" d="M398.82,179a19.54,19.54,0,0,0,3,.5" transform="translate(-18.99 -35.71)"/></g><g class="cls-14"><path class="cls-10" d="M389.14,188.34c-4-.92-6.08-.64-8.4,3s-4.42,6.15-4.38,6.59,8.73,1,13.19-4.16" transform="translate(-18.99 -35.71)"/><path class="cls-10" d="M377.45,198.23c2.66-1.29,7.77-6.44,9.74-6.92" transform="translate(-18.99 -35.71)"/><path class="cls-10" d="M384.35,193.06a12.93,12.93,0,0,1-.42,2.89" transform="translate(-18.99 -35.71)"/><path class="cls-10" d="M385.88,192a24.09,24.09,0,0,0-4.21-.42" transform="translate(-18.99 -35.71)"/><path class="cls-10" d="M379.2,193.69a18,18,0,0,1,3.44-.18" transform="translate(-18.99 -35.71)"/></g><g class="cls-14"><path class="cls-10" d="M379.2,191.54c-3.33,1.36-10.24,1.9-12.32-1.83,0,0,2.19-3.39,11.14-3.13" transform="translate(-18.99 -35.71)"/><path class="cls-10" d="M367.73,189.85A89.41,89.41,0,0,1,379,190" transform="translate(-18.99 -35.71)"/><path class="cls-10" d="M375,187.6a9.55,9.55,0,0,1,2.62,2.22" transform="translate(-18.99 -35.71)"/><path class="cls-10" d="M374.1,189.72a12.16,12.16,0,0,1-1.71,2.25" transform="translate(-18.99 -35.71)"/></g><g class="cls-14"><path class="cls-19" d="M415.85,183.05c1.55-3.06,6.81-5.92,8.83-6.16" transform="translate(-18.99 -35.71)"/><path class="cls-19" d="M423.75,176.58c.15-2.17,1.12-4,1.82-3.17s-.91,3-.91,3" transform="translate(-18.99 -35.71)"/><path class="cls-19" d="M424.48,177.63C426,180,427,180.42,427.62,180s-1-1.72-2.21-2.53" transform="translate(-18.99 -35.71)"/><path class="cls-19" d="M425.52,174.89c.9-.86,1.6-.79,1.63.13s-1.92,1.87-1.92,1.87" transform="translate(-18.99 -35.71)"/><path class="cls-19" d="M426.19,176.31c1.29-.33,2,.18,2.14,1s-1.36,1-1.94.85" transform="translate(-18.99 -35.71)"/><path class="cls-19" d="M410.38,162.3c-.71,5.63-2.17,7.13-2.17,7.13" transform="translate(-18.99 -35.71)"/><path class="cls-19" d="M409.65,162.42c-2.25-.44-3.31-1.59-2.52-2s2.84,1.54,2.84,1.54" transform="translate(-18.99 -35.71)"/><path class="cls-19" d="M408.62,160.83c-1-1.52-.31-2.62.37-2.55s1.4,3.31,1.4,3.31" transform="translate(-18.99 -35.71)"/><path class="cls-19" d="M409.73,159.37c-.14-1.39,1.59-1.54,1.59,0a4.62,4.62,0,0,1-.41,2.22" transform="translate(-18.99 -35.71)"/><path class="cls-19" d="M411.32,159.37c.58-.55,1.62-.15,1.16.95a4.75,4.75,0,0,1-1.38,1.79" transform="translate(-18.99 -35.71)"/><path class="cls-19" d="M411.53,162.7c1.14.1,2.47-1.82,1-2.38" transform="translate(-18.99 -35.71)"/><path class="cls-19" d="M376.39,161.92a19.23,19.23,0,0,1,5.66,6.26" transform="translate(-18.99 -35.71)"/><path class="cls-19" d="M376.39,160.75c.67-3.18.13-4.62-.94-3.62s0,3.62,0,3.62" transform="translate(-18.99 -35.71)"/><path class="cls-19" d="M375.08,159.42c-1.21-2.29-3.61-1.54-2,.43a4.9,4.9,0,0,0,2.13,1.75" transform="translate(-18.99 -35.71)"/><path class="cls-19" d="M374.84,162.79c-3-.75-3.38-1.78-3.28-2.31.19-1,2.39.36,2.39.36" transform="translate(-18.99 -35.71)"/><path class="cls-19" d="M374.33,163.46c-2.86,1.18-4.61-.06-1.32-1.22" transform="translate(-18.99 -35.71)"/></g><path class="cls-13" d="M403.15,171.48c-.45,1.21-5,1.72-5,1.72h0a3.2,3.2,0,0,0-3.44-2.78,2.08,2.08,0,0,0-1.86,3c-4.5-.46-8.2-4-7.54-5.24s6.4,3.36,6.56,3.5c-2.84-3-4.19-6.77-3.33-8.58,1.1-2.34,5,5.77,5,5.77s-1.19-10.73,2.22-10.58c1.49.06.38,8.07.28,8.8.08-.52.83-4.77,2.32-4.66s.36,5.21.32,5.41c.11-.21,3.15-5.95,5.73-5s-1.74,6.46-4.43,8.23C399.91,171,403.59,170.26,403.15,171.48Z" transform="translate(-18.99 -35.71)"/><g class="cls-9"><path class="cls-10" d="M387.39,172.49c-3.24-3.48-11.74-4.34-13.79-3.05s2.76,7.71,7.21,6.78" transform="translate(-18.99 -35.71)"/><path class="cls-10" d="M375,170.84a18,18,0,0,1,7.66,2.92" transform="translate(-18.99 -35.71)"/><path class="cls-10" d="M379.22,169.58a8,8,0,0,1,.61,2.65" transform="translate(-18.99 -35.71)"/><path class="cls-10" d="M384.11,171a15.72,15.72,0,0,1,0,2.17" transform="translate(-18.99 -35.71)"/><path class="cls-10" d="M376.14,174.89a10.17,10.17,0,0,1,3.39-.88" transform="translate(-18.99 -35.71)"/></g><path class="cls-13" d="M390.87,181c-.86-1.43-4.81-.25-5.59,1.87-.52,1.43,0,2.24,1,2.57-1.94,2.92-7.21,4.62-7.43,2.9s4.66-3.59,5-3.7c-.35.08-7.44,1.87-7.41,0s2.61-3.22,6.92-2.2c-1.52-.43-4.61-1.51-4.94-3.11-.45-2.14,2.51-3.25,7.55,1.22-.12-.15-5-6.15-2.4-6.74,1.72-.39,4.14,3.44,4.14,3.44s-.48-3.32.93-3.44,1.61,2.5,1.45,4.24c0,0,1.13-1.64,2.11-1.1C392.91,177.33,392.24,179.38,390.87,181Z" transform="translate(-18.99 -35.71)"/><line class="cls-17" x1="119.05" y1="238.98" x2="168.87" y2="277.05"/><line class="cls-17" x1="117.2" y1="241.44" x2="167.29" y2="278.7"/><path class="cls-17" d="M190.81,311.17c-3.79,1-8,6.44-6.77,12.14s5.62,7.69,10.85,7.69" transform="translate(-18.99 -35.71)"/><g id="rueda1"><g class="cls-14"><path class="cls-20" d="M181.81,252.5A65.83,65.83,0,0,0,146,271a68.38,68.38,0,0,0-5.84,6.66l4.51,3.42a60.78,60.78,0,0,1,40.66-23.42Zm58.7,19.16c-1,1-2.63,2.75-3.93,4.08a60.74,60.74,0,1,1-92.42,6.05l-4.62-3.3a66.36,66.36,0,1,0,101-6.84Zm-1.11-1.11a66.48,66.48,0,0,0-11.12-8.81c-.54,1.72-1.25,3.95-1.75,5.62a61.3,61.3,0,0,1,9,7.35l3.83-4.16Zm-34-17.82c.25,1,.48,2.17.69,2.89a17.18,17.18,0,0,1,.47,3.11c1.65.38,3.27.82,4.87,1.34a40.51,40.51,0,0,0,1.32-5.51A63.65,63.65,0,0,0,205.37,252.73Z" transform="translate(-18.99 -35.71)"/></g><path class="cls-1" d="M173.26,273.44c-1.87-2.05-6.41-.23-9.73,1.73s-4.6,3.84-2.79,6,9.42-2.9,11.31-4.05S173.84,274.07,173.26,273.44Z" transform="translate(-18.99 -35.71)"/><path class="cls-1" d="M149.66,318.51c1.48,11.62,7,21.21,15.24,27.53" transform="translate(-18.99 -35.71)"/><path class="cls-1" d="M141.57,307.81c-.14,19.48,3.7,38.31,22.62,49.6" transform="translate(-18.99 -35.71)"/></g><path class="cls-11" d="M200.71,364.48c4.15.6,6.78.6,9.52-.42a52.8,52.8,0,0,0,6.38-3.11s1.84,2.21,2,6.72-2.17,6-4.87,6.32S203.6,374.09,200.71,364.48Z" transform="translate(-18.99 -35.71)"/><path class="cls-22" d="M195.36,341.54a40.74,40.74,0,0,1,4.78-1.69" transform="translate(-18.99 -35.71)"/><path class="cls-11" d="M207.31,351.77c2.31,3.18,6,3.35,9,3.29s5-1.44,4.18-4.3-2.88-8-2.88-8-7.93-.95-10,2.76c0,0-7.06-7.89-7.53-10.46s2-11.47-1.57-15.74c0,0-2.62,3.68-3.68,5.24-1.34,2-2.37,4.48,2.59,12.62A172.15,172.15,0,0,0,207.31,351.77Z" transform="translate(-18.99 -35.71)"/><g class="cls-14"><path class="cls-23" d="M201.62,363.55c4.12-5.28,8.61-10.12,8.61-10.12" transform="translate(-18.99 -35.71)"/><path class="cls-23" d="M196.19,346.52c7.19,7.68,14.68,12.4,19.56,12.62" transform="translate(-18.99 -35.71)"/><path class="cls-23" d="M199.29,317.67c2.23,4.36,6.55,7.47,10.94,6.95" transform="translate(-18.99 -35.71)"/><path class="cls-23" d="M199.11,333.67c3.87-.47,12.9,1.47,17.56,6.88" transform="translate(-18.99 -35.71)"/><path class="cls-23" d="M206.93,345.11A19.59,19.59,0,0,1,213,333.93" transform="translate(-18.99 -35.71)"/></g><line class="cls-1" x1="228.66" y1="224.66" x2="199.81" y2="255.43"/><line class="cls-18" x1="237.72" y1="214.99" x2="231.95" y2="221.15"/><path class="cls-24" d="M178.06,253.84c-13.51.66-21,3.21-26.74,5.77s-25.12,11.32-35.86-4.53" transform="translate(-18.99 -35.71)"/><path class="cls-5" d="M212,251.36a48.7,48.7,0,0,1,1.7-6" transform="translate(-18.99 -35.71)"/><path class="cls-5" d="M52.86,105.06c0,1.65.14,2.13,1.45,3s3.85,2.58,3.85,2.58-.57,3.19,3.28,6.21" transform="translate(-18.99 -35.71)"/><path class="cls-5" d="M49.63,108.69c2.28.47,4.68,1.21,5,1s0-1.33,0-1.33" transform="translate(-18.99 -35.71)"/><path class="cls-5" d="M50.62,112.79c2.69.65,4.83.79,5.09.48a4.93,4.93,0,0,0,0-2.67,2.79,2.79,0,0,0-1.05-.91" transform="translate(-18.99 -35.71)"/><path class="cls-5" d="M52.53,116.62c2,.19,4.67.59,4.93,0s-.23-2-.31-2.43-1.44-.92-1.44-.92" transform="translate(-18.99 -35.71)"/><path class="cls-5" d="M52.86,119.44c2.41.35,3.9.69,3.9.69" transform="translate(-18.99 -35.71)"/><path class="cls-5" d="M57.54,117.21c1.37.56,1.85.69,1.85,1.22s-.93,1.71-.93,1.71" transform="translate(-18.99 -35.71)"/><path class="cls-12" d="M200.1,83.11l-.11.15a4.89,4.89,0,0,1-1.36-5.38c-3.22.5-4.22-1.55-4.21-3.87l5.43-3.57h0C200.07,70.76,204.59,77.16,200.1,83.11Z" transform="translate(-18.99 -35.71)"/><path class="cls-10" d="M198.63,77.88c-.25-2.81.5-3,1.09-2.81S200.4,76.32,198.63,77.88Z" transform="translate(-18.99 -35.71)"/><path class="cls-10" d="M198.63,77.88c1.47,2.8,4.68,2.08,6.68,0" transform="translate(-18.99 -35.71)"/><path class="cls-25" d="M199.85,70.44c7.54-3.86,19-7,21.22-3.26,2.63,4.34-4.51,9.56-19.1,16.32" transform="translate(-18.99 -35.71)"/><path class="cls-25" d="M177.08,86.05c-8.24,5.23-17,10.86-25.35,14.67s-15.24,6.23-20,3.31" transform="translate(-18.99 -35.71)"/><path class="cls-25" d="M130,101.65c-.72-2.81,2.56-5.93,8.93-7.43s25.67-6.49,28.71-8.68" transform="translate(-18.99 -35.71)"/><path class="cls-10" d="M142.42,110.88c4.62,2.37,9,2.43,14.06-3.24s9.62-8.53,12.23-8.92" transform="translate(-18.99 -35.71)"/><path class="cls-10" d="M165,112.23c3.27-2.92,4.74-5,3.36-7.11s-2.83,2-1.23,2.75,4.68-.88,5.42-3.2,0-3.46,0-3.46" transform="translate(-18.99 -35.71)"/><path class="cls-5" d="M175.1,93.17a44.22,44.22,0,0,0,2.57,7.89" transform="translate(-18.99 -35.71)"/><polygon class="cls-11" points="148.64 48.43 148.64 52.5 159.98 48.43 160.08 49.57 181.32 35.44 179.6 33.63 148.64 48.43"/><path class="cls-25" d="M168.3,83.81c0-7.78,4.14-15.77,13.19-18.68S197.17,70,197.17,70" transform="translate(-18.99 -35.71)"/><circle class="cls-3" cx="166.02" cy="53.25" r="1.29"/><path class="cls-3" d="M196.87,85a1.11,1.11,0,1,1-1.11,1.11A1.11,1.11,0,0,1,196.87,85Z" transform="translate(-18.99 -35.71)"/><path class="cls-5" d="M194.67,109.38l-.29.09c-4.11,1.21-9.13-.75-12.72-3.26a20.35,20.35,0,0,1-1.86-1.47" transform="translate(-18.99 -35.71)"/><path class="cls-5" d="M179.59,86.26c1.25-2.16,3-4.26,6.94-4.16" transform="translate(-18.99 -35.71)"/><path class="cls-5" d="M198.45,79.72c-3.67-.53-5.49.07-5.9,2.71a13,13,0,0,0,.67,7.07c.87,2.31,2.18,5.31,2.18,5.31" transform="translate(-18.99 -35.71)"/><path class="cls-5" d="M181.67,89c1,.62,2.8.66,3.41,0" transform="translate(-18.99 -35.71)"/><path class="cls-5" d="M197,86.08a2.23,2.23,0,0,0,2.17-1.9" transform="translate(-18.99 -35.71)"/><path class="cls-5" d="M191.08,95.32c.29-.26.78-.33,2.77-.3s2.14-.46,2.85-2.59" transform="translate(-18.99 -35.71)"/><path class="cls-3" d="M186.53,99.19c-1.2.63,2,4.21,4.22,4.7s4-1.65,4.53-2.82.9-2.23-.15-2.36S188,98.42,186.53,99.19Z" transform="translate(-18.99 -35.71)"/><path class="cls-26" d="M187.31,99.43c1.4-.54,6.95-.31,7.06,0s-.52,1.42-1.82,1.53a16,16,0,0,1-4.49-.31C187.59,100.39,186.8,99.63,187.31,99.43Z" transform="translate(-18.99 -35.71)"/><g class="cls-14"><path class="cls-23" d="M186.66,194.25c5.17,9.48,9.48,22.39,9.48,22.39" transform="translate(-18.99 -35.71)"/><path class="cls-23" d="M174.45,175.85c1.8.28,6.76,2.76,15.09,3.32s10.81,0,10.81,0" transform="translate(-18.99 -35.71)"/><path class="cls-23" d="M172.51,178.94a21.11,21.11,0,0,0,5.34,1.32" transform="translate(-18.99 -35.71)"/><path class="cls-23" d="M181.46,180.74c2.38.55,6.39,1.91,18.65,1.9" transform="translate(-18.99 -35.71)"/><path class="cls-23" d="M169.77,170.79c-10.46-5.08-18.94-3-18.23,4.66" transform="translate(-18.99 -35.71)"/><path class="cls-23" d="M156.08,174.43c.42-3.4,6.16-4.84,15.48-1.91" transform="translate(-18.99 -35.71)"/><path class="cls-23" d="M157.58,178.5c2.15,2.5,7.49,5.35,10.86,4.94" transform="translate(-18.99 -35.71)"/><path class="cls-23" d="M153.22,178.5c6.51,5.73,8.56,6.86,13.42,6.33" transform="translate(-18.99 -35.71)"/><path class="cls-23" d="M147.06,190c7.29-1.38,21.38-10.88,21.38-10.88" transform="translate(-18.99 -35.71)"/><path class="cls-23" d="M170.84,175.85c-10.21,0-35.79,3.48-31.49,13.22" transform="translate(-18.99 -35.71)"/><path class="cls-23" d="M139.06,188.26c4.45,3.57,16.27,1.42,25.94-2.16" transform="translate(-18.99 -35.71)"/><path class="cls-23" d="M159.42,191.16c-9.41,1.36-17.85,2.86-21.6-3.33s.12-10.19,8.13-11.62,24.56-1.78,24.56-1.78" transform="translate(-18.99 -35.71)"/><path class="cls-23" d="M149,205.77c-4.09,2.56-6.4,4.43-7.9,4.43s-4.73-.72-4.73-2.52c0-.79,12.18-2.87,19.27-11.29" transform="translate(-18.99 -35.71)"/><path class="cls-23" d="M153.22,192c-3.33,5.36-23.95,8.51-28.9,9.32a14.93,14.93,0,0,0-7.78,3.72c-.75-3.24-4.45-5.62-4.45-5.62s2.8-2.87,12-4.24,15.81-1.76,20-3.18" transform="translate(-18.99 -35.71)"/></g><path class="cls-27" d="M25.4,92.37c.8-1.8,2.08-3.49,2.68-3.08s1.62,2.19,1.23,3C28.42,94,25,93.36,25.4,92.37Z" transform="translate(-18.99 -35.71)"/><path class="cls-28" d="M27.44,89.32c-1.11-2.48.06-6.8,1.36-6.71S29.06,87.13,27.44,89.32Z" transform="translate(-18.99 -35.71)"/><path class="cls-28" d="M27.44,89.32c-.05-3.68-.56-7.14-2.32-7.17S24.83,87.78,27.44,89.32Z" transform="translate(-18.99 -35.71)"/><path class="cls-28" d="M26.13,93.21c-.3,2.33-4.74,4-5.28,3.25s1.52-3.47,4.61-3.65C25.47,92.81,25.53,93.09,26.13,93.21Z" transform="translate(-18.99 -35.71)"/><path class="cls-28" d="M26,91.17c-3.13-1-7.5,1.06-7,2.19s2.84,1.14,6.44-.55C25.47,92.81,25.05,92.76,26,91.17Z" transform="translate(-18.99 -35.71)"/><path class="cls-28" d="M26.72,90.12c-4.51-2.74-5.38-4.74-4.89-5.62s5.34,3.1,5.55,4.94Z" transform="translate(-18.99 -35.71)"/><path class="cls-28" d="M25.9,91.38c-3.7.05-6.27-1.9-6.24-3.31s3.52-1.42,7.21,1.85Z" transform="translate(-18.99 -35.71)"/><path class="cls-27" d="M39.05,86.47a1.13,1.13,0,1,1-1.13,1.13A1.13,1.13,0,0,1,39.05,86.47Z" transform="translate(-18.99 -35.71)"/><path class="cls-28" d="M38.74,86.6c-2.14-2.41-2.44-7.07-1.22-7.4S40.64,82.47,38.74,86.6Z" transform="translate(-18.99 -35.71)"/><path class="cls-28" d="M38.74,86.6c0-2,3-5.95,4.79-5S42.58,85.88,38.74,86.6Z" transform="translate(-18.99 -35.71)"/><path class="cls-28" d="M39.05,86.47c-1.57-1.88-4.49-3-5.21-2s2,2.77,4.14,2.74A1.06,1.06,0,0,1,39.05,86.47Z" transform="translate(-18.99 -35.71)"/><path class="cls-28" d="M37.92,87.6c-1.48-.83-5.54-.29-5.29,1.38s4.09,2,5.72-.5A1.42,1.42,0,0,1,37.92,87.6Z" transform="translate(-18.99 -35.71)"/><path class="cls-28" d="M38.26,88.38c-.4-.41-1.21,3.56.09,4.43s2.45-2.09,1.32-4.27C39.67,88.54,38.74,88.88,38.26,88.38Z" transform="translate(-18.99 -35.71)"/><path class="cls-28" d="M40.13,87.92c2.65.81,4.59,2.28,3.95,3.66s-3.65-.09-4.41-3A.82.82,0,0,0,40.13,87.92Z" transform="translate(-18.99 -35.71)"/><path class="cls-28" d="M40,86.92c.32.81.18,1,.18,1a6,6,0,0,0,5.31,1.31c3.08-.82,2-3.15-.66-3.49A8.53,8.53,0,0,0,40,86.92Z" transform="translate(-18.99 -35.71)"/><path class="cls-27" d="M42.1,97.85a1.27,1.27,0,1,1-1.27,1.27A1.27,1.27,0,0,1,42.1,97.85Z" transform="translate(-18.99 -35.71)"/><path class="cls-28" d="M41,98.46c-2.56-.87-5-3.34-3.59-4.07s3.77,2.37,4.51,3.47C41.94,97.86,41.18,98,41,98.46Z" transform="translate(-18.99 -35.71)"/><path class="cls-28" d="M41.94,92.65c.83-.34,2.35,2.16.82,5.38a1,1,0,0,0-.82-.17S40,93.48,41.94,92.65Z" transform="translate(-18.99 -35.71)"/><path class="cls-28" d="M41,98.46c-2-1.22-5.06-1.39-5.4-.25s3.12,2.42,5.23,1.21A1.52,1.52,0,0,1,41,98.46Z" transform="translate(-18.99 -35.71)"/><path class="cls-28" d="M40.87,99.42c-2.17-.28-8.4,2.19-6.55,3.59s7-2.9,7-2.9A1,1,0,0,1,40.87,99.42Z" transform="translate(-18.99 -35.71)"/><path class="cls-28" d="M42.7,100.25c.63,1.89.16,4.84-1,4.66s-1.79-3.29-.61-5A1.3,1.3,0,0,0,42.7,100.25Z" transform="translate(-18.99 -35.71)"/><path class="cls-28" d="M42.76,98a1.44,1.44,0,0,1,.65,1.17s4.38-1.63,4.71-3.87-2.4-2.36-3.8-.23A15.54,15.54,0,0,0,42.76,98Z" transform="translate(-18.99 -35.71)"/><path class="cls-28" d="M43.21,99.74c2.28,1.27,4.24,4.56,3.51,5.43-1,1.18-4.28-2-4-4.92A1,1,0,0,0,43.21,99.74Z" transform="translate(-18.99 -35.71)"/><path class="cls-28" d="M43.38,99.12a1,1,0,0,1-.27.78s3.78,4.11,5.26,2.48S46.83,98.81,43.38,99.12Z" transform="translate(-18.99 -35.71)"/><circle class="cls-29" cx="181.68" cy="96.17" r="4.34" transform="translate(27.68 215.47) rotate(-76.84)"/><path class="cls-3" d="M194.63,114.76A14.56,14.56,0,0,1,185,112.4c-1.14-.9-2.55-4.16-3.34-6.18,3.58,2.52,8.6,4.47,12.72,3.26C194.41,110.3,194.52,112.9,194.63,114.76Z" transform="translate(-18.99 -35.71)"/><line class="cls-17" x1="223.55" y1="25.6" x2="230.55" y2="26.95"/><line class="cls-17" x1="244.33" y1="27.19" x2="241.4" y2="27.19"/><path class="cls-30" d="M339.47,176.32c-.39-1.78-.11-2,.28-2.33s2.87-2.55,3-2.83-1.72-2.63-1.72-2.63" transform="translate(-18.99 -35.71)"/><path class="cls-5" d="M344.07,165.82c1.89,3.18,3.69,6.52,3.3,7s-4.77,3.68-4.77,3.68" transform="translate(-18.99 -35.71)"/><path class="cls-5" d="M345.26,178.45c1.71-1.63,5.53-4.66,6-5.32s-3.42-8.53-3.42-8.53" transform="translate(-18.99 -35.71)"/><g class="cls-14"><path class="cls-19" d="M405.1,198.75c-.59,11.89-4.38,27.77-7.67,33.43" transform="translate(-18.99 -35.71)"/><path class="cls-19" d="M399.13,198.75c-4.07,21.95-11.73,30.89-11.73,30.89" transform="translate(-18.99 -35.71)"/><path class="cls-23" d="M391.87,199.59c.19,17.83,2.38,27.87,2.38,27.87" transform="translate(-18.99 -35.71)"/><path class="cls-23" d="M389,199.59c-.36,13.29-5.08,31.21-5.08,31.21" transform="translate(-18.99 -35.71)"/><path class="cls-23" d="M385.17,199.59c-.5,20.41-8.78,33.35-8.78,33.35" transform="translate(-18.99 -35.71)"/><path class="cls-23" d="M380.74,199.59c-1.07,16.91-6.89,27.87-6.89,27.87" transform="translate(-18.99 -35.71)"/></g><path class="cls-31" d="M398.05,173.83a1.22,1.22,0,0,0,0-.63,3.2,3.2,0,0,0-3.44-2.78,2.08,2.08,0,0,0-1.86,3h0a3,3,0,0,0,2.08,1.89" transform="translate(-18.99 -35.71)"/><path class="cls-31" d="M388.3,183.52a20.15,20.15,0,0,1,3.8,4.08" transform="translate(-18.99 -35.71)"/><path class="cls-31" d="M391,181.32c-.4-1.95-4.9-.75-5.74,1.51s1,3,2.87,2.63S391.54,184,391,181.32Z" transform="translate(-18.99 -35.71)"/><path class="cls-11" d="M400.68,188.65s3-2.36,1.3-3.72-2.67,2.07-2.85,2.27.68-5.61-1.12-5.86-2.94,1.93-1.64,6.09c0,0-3.35-6.31-4.49-4.6s2.13,5.76,2.13,5.76c-3.49-.59-7.41,1.3-6.75,3.43s5.92-1,6.19-1.12c-.22.18-4.07,3.29-3.49,4.49s5.41-2.9,5.41-2.9-2.46,3.56-.2,4.17,3.35-3.06,3.35-3.06,3.59,2.5,4.35,1.46-2.71-2.52-2.9-2.61c.25,0,5.1.75,5.27-1.65S400.68,188.65,400.68,188.65Zm-3.25,3a1.7,1.7,0,1,1,1.71-1.7h0a1.7,1.7,0,0,1-1.71,1.69h0Z" transform="translate(-18.99 -35.71)"/></svg>